<?xml version="1.0" standalone="no"?>
<!DOCTYPE svg PUBLIC "-//W3C//DTD SVG 1.1//EN" "http://www.w3.org/Graphics/SVG/1.1/DTD/svg11.dtd" >
<svg>
<metadata>
Created by FontForge 20120731 at Sat Jan 23 22:08:56 2016
 By www-data
Font software Copyright 1990, 1991, 1998 Adobe Systems Incorporated. Typeface designs Copyright The Monotype Corporation. All rights reserved. "Gill Sans" is a registered trademark of The Monotype Corporation in the United States and/or other countries. "MT" is a trademark of Monotype Imaging, Inc. Registered in U.S. Patent and Trademark Office and may be registered in certain other jurisdictions.
</metadata>
<defs>
<font id="GillSansMTPro-Bold" horiz-adv-x="333" >
  <font-face 
    font-family="Gill Sans MT Pro"
    font-weight="700"
    font-stretch="normal"
    units-per-em="1000"
    panose-1="2 11 8 2 2 1 4 2 2 3"
    ascent="682"
    descent="-318"
    x-height="461"
    cap-height="682"
    bbox="-177 -240 1167 957"
    underline-thickness="50"
    underline-position="-50"
    stemh="97"
    stemv="145"
    unicode-range="U+0020-FB04"
  />
<missing-glyph horiz-adv-x="500" 
d="M12 0v665h475v-665h-475zM88 618l162 -243l161 243h-323zM60 575v-484c0 -1 161 242 161 242zM440 575l-162 -242l162 -243v485zM411 48l-161 242l-162 -242h323z" />
    <glyph glyph-name="fi" unicode="fi" horiz-adv-x="594" 
d="M320 461v-97h-93v-364h-146v364h-60v97h60c0 22 -2 86 30 144c45 81 145 86 175 86c34 0 51 -5 65 -9v-114c-13 2 -25 3 -36 3c-88 0 -88 -68 -88 -110h93zM458 692c43 0 79 -35 79 -79c0 -43 -35 -79 -79 -79s-79 35 -79 79s36 79 79 79zM531 461v-461h-144v461h144z
" />
    <glyph glyph-name="fl" unicode="fl" horiz-adv-x="594" 
d="M531 682v-682h-144v682h144zM319 461v-97h-93v-364h-145v364h-60v97h60c-1 22 -2 86 30 144c45 81 144 86 175 86c33 0 50 -5 65 -9v-114c-13 2 -26 3 -36 3c-89 0 -89 -68 -89 -110h93z" />
    <glyph glyph-name="f_f" unicode="ff" horiz-adv-x="594" 
d="M593 461v-97h-71v-364h-143v364h-162v-364h-145v364h-66v97h66c3 70 7 126 53 174c44 45 101 56 149 56c24 0 34 -1 83 -8l7 -1v-117c-12 1 -41 6 -67 6c-80 0 -80 -56 -80 -110h162c0 64 9 107 28 143c45 84 149 87 168 87c26 0 68 -4 99 -9v-117c-34 6 -67 7 -67 7
c-74 0 -83 -48 -85 -111h71z" />
    <glyph glyph-name="f_f_i" unicode="ffi" horiz-adv-x="896" 
d="M622 461v-97h-93v-364h-146v364h-160v-364h-145v364h-59v97h59c-2 122 46 230 204 230c38 0 56 -6 65 -9v-113c-9 1 -20 3 -33 3c-69 0 -90 -34 -91 -111h160c3 77 9 230 209 230c34 0 50 -5 61 -9v-113c-10 1 -21 3 -36 3c-82 0 -89 -59 -88 -111h93zM760 692
c43 0 79 -35 79 -79c0 -43 -35 -79 -79 -79s-79 36 -79 79s35 79 79 79zM834 461v-461h-144v461h144z" />
    <glyph glyph-name="f_f_l" unicode="ffl" horiz-adv-x="896" 
d="M836 682v-682h-144v682h144zM622 461v-97h-94v-364h-145v364h-161v-364h-144v364h-60v97h60c-3 122 45 230 204 230c38 0 55 -6 65 -9v-113c-9 1 -20 3 -34 3c-69 0 -90 -34 -91 -111h161c3 77 8 230 208 230c34 0 51 -5 62 -9v-113c-10 1 -21 3 -37 3
c-81 0 -88 -59 -88 -111h94z" />
    <glyph glyph-name=".notdef" horiz-adv-x="500" 
d="M12 0v665h475v-665h-475zM88 618l162 -243l161 243h-323zM60 575v-484c0 -1 161 242 161 242zM440 575l-162 -242l162 -243v485zM411 48l-161 242l-162 -242h323z" />
    <glyph glyph-name="space" unicode=" " horiz-adv-x="278" 
 />
    <glyph glyph-name="exclam" unicode="!" horiz-adv-x="271" 
d="M222 77c0 -40 -33 -86 -86 -86c-48 0 -87 41 -87 87c0 45 37 86 86 86c52 0 87 -42 87 -87zM220 565c0 -36 -22 -217 -55 -330c-7 -25 -10 -30 -33 -30c-17 0 -20 3 -31 48c-13 52 -48 232 -48 334c0 47 20 104 82 104c85 0 85 -79 85 -126z" />
    <glyph glyph-name="quotedbl" unicode="&#x22;" horiz-adv-x="479" 
d="M299 428l-24 133v121h149v-121l-24 -133h-101zM79 428l-24 133v121h149v-121l-24 -133h-101z" />
    <glyph glyph-name="numbersign" unicode="#" horiz-adv-x="667" 
d="M35 438h146l38 181h112l-38 -181h154l38 181h111l-38 -181h74v-111h-96l-27 -129h123v-110h-147l-38 -180h-111l37 180h-154l-38 -180h-112l38 180h-72v110h95l27 129h-122v111zM423 327h-153l-27 -129h153z" />
    <glyph glyph-name="dollar" unicode="$" horiz-adv-x="542" 
d="M467 604v-123c-69 50 -114 60 -156 66v-162c143 -46 191 -131 191 -203c0 -70 -48 -171 -191 -191v-110h-84v110c-45 6 -127 35 -175 69v118c64 -46 103 -72 175 -84v191c-33 9 -75 22 -114 50c-40 28 -68 83 -68 142c0 96 77 167 182 178v36h84v-36
c62 -3 122 -32 156 -51zM227 415v132c-53 -13 -67 -44 -67 -64c0 -23 12 -49 67 -68zM311 260v-164c61 13 77 50 77 79c0 38 -25 66 -77 85z" />
    <glyph glyph-name="percent" unicode="%" horiz-adv-x="719" 
d="M185 690c88 0 161 -71 161 -161c0 -89 -72 -161 -161 -161s-161 72 -161 161s72 161 161 161zM185 600c-39 0 -71 -32 -71 -71c0 -40 31 -72 71 -72c39 0 71 32 71 72c0 39 -32 71 -71 71zM533 316c88 0 162 -71 162 -162c0 -89 -72 -161 -162 -161
c-89 0 -161 72 -161 161c0 91 74 162 161 162zM532 224c-40 0 -71 -32 -71 -70c0 -39 32 -71 71 -71s70 32 70 71s-31 70 -70 70zM637 691l-478 -699h-83l480 699h81z" />
    <glyph glyph-name="ampersand" unicode="&#x26;" horiz-adv-x="750" 
d="M589 150l137 -150h-207l-50 54c-94 -59 -178 -63 -206 -63c-119 0 -224 69 -224 180c0 114 115 173 153 193c-29 41 -62 88 -62 151c0 92 75 176 209 176c132 0 197 -80 197 -161c0 -65 -40 -125 -127 -176l93 -107c39 40 64 81 78 107h146c-16 -35 -59 -134 -137 -204z
M335 435c23 14 68 40 68 85c0 32 -24 57 -63 57c-30 0 -63 -16 -63 -51c0 -36 53 -87 58 -91zM390 142l-121 134c-47 -31 -70 -60 -70 -92c0 -54 49 -81 85 -81c29 0 70 14 106 39z" />
    <glyph glyph-name="quoteright" unicode="&#x2019;" horiz-adv-x="271" 
d="M50 377v30c15 18 51 61 45 128c-50 22 -51 69 -51 77c0 49 43 79 84 79c43 0 98 -34 98 -115c0 -92 -70 -188 -176 -199z" />
    <glyph glyph-name="parenleft" unicode="(" horiz-adv-x="385" 
d="M379 -230h-103c-160 124 -231 318 -231 463c0 224 158 413 231 458h103c-172 -183 -178 -380 -178 -453c0 -194 63 -355 178 -468z" />
    <glyph glyph-name="parenright" unicode=")" horiz-adv-x="385" 
d="M7 691h102c73 -46 231 -234 231 -458c0 -145 -71 -339 -231 -463h-102c117 115 177 279 177 468c0 76 -7 271 -177 453z" />
    <glyph glyph-name="asterisk" unicode="*" horiz-adv-x="469" 
d="M261 508l101 108c1 1 14 13 24 13c7 0 14 -2 28 -27l22 -42c4 -6 8 -16 8 -21c0 -12 -14 -15 -22 -17l-151 -35v-14l136 -30c22 -5 37 -12 37 -25c0 -11 -6 -21 -8 -24l-29 -49c-3 -7 -12 -20 -23 -20c-10 0 -19 9 -31 23l-92 106l-15 -11l42 -142c3 -8 4 -13 4 -18
c0 -19 -24 -19 -31 -19h-51c-11 0 -35 0 -35 20c0 1 4 15 5 17l42 142l-12 11l-99 -102c-8 -8 -23 -23 -31 -23s-17 14 -22 23l-26 49c-4 6 -7 14 -7 23s6 15 23 19l152 30v14l-142 35c-19 5 -32 10 -32 22c0 10 5 19 11 29l27 43c8 15 13 19 22 19c7 0 10 -2 25 -19
l99 -108l12 6l-42 140c-2 4 -3 14 -3 19c0 18 19 18 33 18h51c12 0 31 0 31 -15c0 -2 -1 -15 -4 -22l-42 -140z" />
    <glyph glyph-name="plus" unicode="+" horiz-adv-x="583" 
d="M227 91v186h-186v128h186v186h129v-186h186v-128h-186v-186h-129z" />
    <glyph glyph-name="comma" unicode="," horiz-adv-x="271" 
d="M50 -169v31c15 17 51 61 45 129c-50 22 -51 67 -51 75c0 47 43 77 84 77c43 0 98 -34 98 -114c0 -91 -70 -187 -176 -198z" />
    <glyph glyph-name="hyphen" unicode="-" 
d="M297 298v-133h-261v133h261z" />
    <glyph glyph-name="period" unicode="." horiz-adv-x="271" 
d="M222 79c0 -42 -33 -88 -86 -88c-48 0 -88 41 -88 87s38 87 87 87c52 0 87 -41 87 -86z" />
    <glyph glyph-name="slash" unicode="/" horiz-adv-x="281" 
d="M5 -9l168 700h103l-170 -700h-101z" />
    <glyph glyph-name="zero" unicode="0" horiz-adv-x="552" 
d="M507 344c0 -273 -120 -353 -228 -353c-37 0 -107 7 -165 81c-64 83 -69 208 -69 269c0 289 140 350 232 350c74 0 230 -44 230 -347zM350 348c0 167 -26 215 -73 215c-64 0 -74 -97 -74 -229c0 -70 0 -216 74 -216c43 0 58 48 64 81c8 50 9 129 9 149z" />
    <glyph glyph-name="one" unicode="1" horiz-adv-x="552" 
d="M354 691v-691h-156v691h156z" />
    <glyph glyph-name="two" unicode="2" horiz-adv-x="552" 
d="M505 139v-139h-451v20c4 4 107 138 151 202c42 60 114 164 114 250c0 54 -41 96 -92 96c-37 0 -99 -23 -164 -85v143c85 54 135 65 191 65c163 0 216 -102 216 -193c0 -45 -7 -92 -83 -217c-33 -54 -90 -126 -102 -142h220z" />
    <glyph glyph-name="three" unicode="3" horiz-adv-x="552" 
d="M75 541v120c64 27 129 30 156 30c121 0 218 -62 218 -167c0 -45 -19 -92 -56 -127c-18 -17 -33 -25 -45 -31c37 -16 120 -52 120 -176c0 -134 -112 -199 -243 -199c-75 0 -137 23 -167 39v132c22 -15 75 -52 150 -52c56 0 101 37 101 89c0 9 0 84 -105 95v120
c65 6 94 49 94 83c0 39 -35 80 -96 80c-26 0 -52 -5 -75 -13c-9 -3 -45 -20 -52 -23z" />
    <glyph glyph-name="four" unicode="4" horiz-adv-x="552" 
d="M458 691v-414h46v-109h-46v-168h-151v168h-266v109l321 414h96zM307 277v186l-146 -186h146z" />
    <glyph glyph-name="five" unicode="5" horiz-adv-x="552" 
d="M453 682v-137h-218v-128c7 0 16 1 27 1c118 0 214 -81 214 -210c0 -28 -6 -99 -59 -151c-48 -48 -114 -66 -188 -66c-77 0 -145 25 -165 37v124c62 -33 110 -41 145 -41c78 0 108 54 108 94c0 47 -36 98 -135 98c-9 0 -42 0 -83 -10v389h354z" />
    <glyph glyph-name="six" unicode="6" horiz-adv-x="552" 
d="M423 691l-158 -258c11 3 19 6 40 6c117 0 191 -103 191 -215c0 -135 -97 -233 -226 -233c-119 0 -226 83 -226 242c0 94 38 177 93 267l118 191h168zM349 220c0 53 -26 100 -77 100c-42 0 -74 -34 -74 -103c0 -71 35 -99 75 -99c54 0 76 52 76 102z" />
    <glyph glyph-name="seven" unicode="7" horiz-adv-x="552" 
d="M518 682v-8l-249 -683l-136 52l183 503h-252v136h454z" />
    <glyph glyph-name="eight" unicode="8" horiz-adv-x="552" 
d="M403 360c14 -7 31 -16 50 -34c32 -32 52 -79 52 -131c0 -85 -54 -204 -230 -204c-130 0 -227 79 -227 203c0 80 40 122 59 139c16 14 32 22 44 27c-27 18 -84 54 -84 146c0 99 70 185 207 185c153 0 212 -105 212 -186c0 -35 -12 -81 -41 -112c-17 -18 -32 -26 -42 -33z
M340 499c0 15 0 90 -65 90c-31 0 -43 -19 -48 -28c-13 -24 -15 -53 -15 -64c0 -13 2 -95 66 -95c7 0 62 0 62 97zM351 195c0 82 -37 110 -74 110c-6 0 -76 0 -76 -106c0 -83 44 -110 77 -110c35 0 73 28 73 106z" />
    <glyph glyph-name="nine" unicode="9" horiz-adv-x="552" 
d="M110 -9l157 256c-12 -3 -25 -7 -44 -7c-99 0 -188 90 -188 216c0 138 102 235 227 235c120 0 225 -92 225 -235c0 -108 -43 -192 -90 -270l-120 -195h-167zM334 461c0 86 -48 102 -75 102c-45 0 -77 -43 -77 -102c0 -73 40 -101 76 -101c46 0 76 44 76 101z" />
    <glyph glyph-name="colon" unicode=":" horiz-adv-x="271" 
d="M222 374c0 -45 -35 -89 -87 -89c-48 0 -87 38 -87 86c0 47 38 87 86 87c52 0 88 -41 88 -84zM222 78c0 -41 -33 -87 -86 -87c-48 0 -88 41 -88 86c0 46 39 88 88 88c54 0 86 -48 86 -87z" />
    <glyph glyph-name="semicolon" unicode=";" horiz-adv-x="271" 
d="M50 -169v31c15 17 51 61 45 129c-50 22 -51 67 -51 75c0 47 43 77 84 77c43 0 98 -34 98 -114c0 -91 -70 -187 -176 -198zM222 374c0 -45 -35 -89 -87 -89c-48 0 -87 38 -87 86c0 47 38 87 86 87c52 0 88 -41 88 -84z" />
    <glyph glyph-name="less" unicode="&#x3c;" horiz-adv-x="583" 
d="M542 69l-501 213v119l501 212v-139l-347 -131l347 -136v-138z" />
    <glyph glyph-name="equal" unicode="=" horiz-adv-x="583" 
d="M41 169v128h501v-128h-501zM41 385v129h501v-129h-501z" />
    <glyph glyph-name="greater" unicode="&#x3e;" horiz-adv-x="583" 
d="M41 613l501 -213v-118l-501 -213v139l347 131l-347 136v138z" />
    <glyph glyph-name="question" unicode="?" horiz-adv-x="375" 
d="M34 548h-9l25 123c54 20 108 20 116 20c121 0 165 -72 165 -142c0 -77 -40 -128 -97 -202c-39 -49 -49 -85 -49 -120c0 -6 0 -14 -1 -16c-3 -5 -21 -5 -33 -5c-13 0 -20 2 -26 15c-5 9 -24 49 -24 96c0 53 16 81 49 138c19 34 28 54 28 75c0 20 -10 53 -58 53
c-38 0 -67 -20 -86 -35zM245 79c0 -43 -34 -88 -86 -88c-49 0 -88 41 -88 86c0 44 38 86 88 86c53 0 86 -46 86 -84z" />
    <glyph glyph-name="at" unicode="@" horiz-adv-x="979" 
d="M868 -11h104c-82 -167 -262 -219 -432 -219c-71 0 -164 9 -257 45c-181 71 -253 243 -253 400c0 238 153 493 501 493c266 0 415 -172 415 -373c0 -182 -134 -355 -320 -355c-68 0 -84 27 -92 56c-17 -17 -57 -56 -134 -56c-103 0 -186 76 -186 209c0 131 90 320 263 320
c33 0 93 -7 130 -66l12 54h129l-74 -350c-5 -26 -7 -34 -7 -44c0 -23 18 -23 19 -23c48 0 172 102 172 257c0 116 -77 282 -329 282c-346 0 -410 -280 -410 -409c0 -161 98 -351 413 -351c226 0 305 91 336 130zM340 183c0 -86 49 -114 88 -114c112 0 152 167 152 240
c0 12 -3 112 -91 112c-108 0 -149 -149 -149 -238z" />
    <glyph glyph-name="A" unicode="A" horiz-adv-x="781" 
d="M475 682l303 -682h-183l-56 135h-305l-51 -135h-180l275 682h197zM489 254l-110 264l-100 -264h210z" />
    <glyph glyph-name="B" unicode="B" horiz-adv-x="698" 
d="M76 682h260c49 0 87 0 133 -13c89 -26 130 -97 130 -157c0 -49 -29 -105 -92 -137c36 -11 144 -45 144 -176c0 -60 -22 -125 -97 -167c-46 -26 -87 -32 -164 -32h-314v682zM316 560h-67v-149h64c39 0 115 0 115 75c0 74 -75 74 -112 74zM325 288h-76v-164h84
c59 0 143 0 143 81c0 83 -81 83 -151 83z" />
    <glyph glyph-name="C" unicode="C" horiz-adv-x="759" 
d="M700 216v-157c-100 -53 -181 -68 -268 -68c-265 0 -397 173 -397 348c0 172 135 352 412 352c124 0 210 -39 245 -60v-157c-28 21 -115 74 -233 74c-142 0 -247 -82 -247 -207c0 -134 114 -209 242 -209c64 0 124 18 181 47z" />
    <glyph glyph-name="D" unicode="D" horiz-adv-x="801" 
d="M76 682h278c44 0 107 0 185 -27c54 -19 218 -102 218 -313c0 -68 -17 -210 -166 -291c-65 -35 -131 -51 -250 -51h-265v682zM334 552h-86v-422h69c95 0 122 8 150 20c69 30 114 96 114 193c0 74 -27 155 -115 191c-44 18 -86 18 -132 18z" />
    <glyph glyph-name="E" unicode="E" horiz-adv-x="633" 
d="M579 125v-125h-503v682h496v-127h-324v-138h309v-128h-309v-164h331z" />
    <glyph glyph-name="F" unicode="F" horiz-adv-x="604" 
d="M546 682v-129h-298v-144h298v-129h-298v-280h-172v682h470z" />
    <glyph glyph-name="G" unicode="G" horiz-adv-x="804" 
d="M715 635v-148c-80 37 -166 62 -254 62c-79 0 -126 -20 -156 -39c-49 -30 -93 -89 -93 -175c0 -129 108 -202 225 -202c42 0 83 9 122 24v80h-98v127h271v-281c-70 -59 -181 -92 -292 -92c-219 0 -405 130 -405 350c0 213 171 350 412 350c135 0 227 -39 268 -56z" />
    <glyph glyph-name="H" unicode="H" horiz-adv-x="833" 
d="M757 682v-682h-171v276h-338v-276h-172v682h172v-274h338v274h171z" />
    <glyph glyph-name="I" unicode="I" horiz-adv-x="324" 
d="M248 682v-682h-172v682h172z" />
    <glyph glyph-name="J" unicode="J" 
d="M260 682v-580c0 -85 0 -231 -127 -282c-50 -20 -114 -22 -165 -17v134c7 -2 12 -3 22 -3c26 0 61 7 81 42c12 19 18 42 18 141v565h171z" />
    <glyph glyph-name="K" unicode="K" horiz-adv-x="719" 
d="M650 682l-222 -320l302 -362h-213l-271 320v-320h-171v682h171v-309l217 309h187z" />
    <glyph glyph-name="L" unicode="L" horiz-adv-x="615" 
d="M596 127v-127h-520v682h172v-555h348z" />
    <glyph glyph-name="M" unicode="M" horiz-adv-x="887" 
d="M811 682v-682h-172v417l-183 -220h-25l-183 220v-417h-172v682h151l216 -259l219 259h149z" />
    <glyph glyph-name="N" unicode="N" horiz-adv-x="840" 
d="M764 682v-682h-142l-377 422v-422h-169v682h155l365 -402v402h168z" />
    <glyph glyph-name="O" unicode="O" horiz-adv-x="853" 
d="M818 340c0 -158 -129 -349 -394 -349c-236 0 -389 171 -389 349c0 159 132 351 392 351c241 0 391 -173 391 -351zM642 336c0 127 -83 210 -216 210c-122 0 -214 -74 -214 -209c0 -163 134 -208 215 -208c109 0 215 72 215 207z" />
    <glyph glyph-name="P" unicode="P" horiz-adv-x="651" 
d="M76 682h279c44 0 97 0 149 -28c58 -31 104 -96 104 -174c0 -71 -37 -137 -98 -174c-52 -32 -105 -32 -161 -32h-101v-274h-172v682zM308 556h-60v-157h56c55 0 128 0 128 80c0 77 -75 77 -124 77z" />
    <glyph glyph-name="Q" unicode="Q" horiz-adv-x="853" 
d="M815 -30l11 -14l-133 -113c-201 20 -362 143 -378 157c-204 52 -280 218 -280 338c0 160 134 353 393 353c243 0 389 -177 389 -348c0 -130 -84 -280 -254 -332c33 -21 120 -50 185 -50c31 0 50 5 67 9zM642 338c0 19 -4 92 -49 143c-41 46 -107 68 -167 68
c-105 0 -215 -63 -215 -208c0 -144 107 -211 216 -211c121 0 215 79 215 208z" />
    <glyph glyph-name="R" unicode="R" horiz-adv-x="679" 
d="M76 682h262c62 0 124 0 179 -34c36 -24 89 -80 89 -161c0 -114 -88 -154 -117 -168c49 -24 83 -93 98 -128c19 -39 48 -103 66 -142l23 -49h-187c-15 30 -74 165 -88 192c-46 86 -80 86 -128 86h-25v-278h-172v682zM334 558h-86v-156h71c44 2 55 2 73 12
c25 13 37 38 37 66c0 78 -76 78 -95 78z" />
    <glyph glyph-name="S" unicode="S" horiz-adv-x="602" 
d="M532 638v-140c-47 23 -132 66 -219 66c-100 0 -103 -49 -103 -56c0 -41 67 -65 165 -100c86 -31 188 -83 188 -215c0 -158 -165 -202 -267 -202c-115 0 -224 54 -241 66v147c59 -37 137 -85 237 -85c22 0 102 1 102 62c0 45 -39 59 -129 90c-98 34 -222 82 -222 226
c0 104 87 194 258 194c54 0 122 -6 231 -53z" />
    <glyph glyph-name="T" unicode="T" horiz-adv-x="719" 
d="M692 682v-128h-246v-554h-173v554h-247v128h666z" />
    <glyph glyph-name="U" unicode="U" horiz-adv-x="826" 
d="M755 682v-371c0 -54 -1 -139 -59 -210c-70 -84 -182 -110 -287 -110c-53 0 -195 2 -287 121c-27 36 -52 84 -52 194v376h172v-338c0 -28 0 -68 12 -106c22 -76 91 -110 158 -110c99 0 145 65 159 100c12 30 12 56 12 116v338h172z" />
    <glyph glyph-name="V" unicode="V" horiz-adv-x="719" 
d="M719 682l-315 -691h-74l-330 691h185l180 -389l171 389h183z" />
    <glyph glyph-name="W" unicode="W" horiz-adv-x="1167" 
d="M1167 682l-301 -691h-73l-210 445l-211 -445h-73l-300 691h180l161 -377l175 377h139l171 -377l162 377h180z" />
    <glyph glyph-name="X" unicode="X" horiz-adv-x="812" 
d="M779 682l-267 -329l296 -353h-220l-185 225l-182 -225h-217l289 353l-273 329h220l163 -201l160 201h216z" />
    <glyph glyph-name="Y" unicode="Y" horiz-adv-x="708" 
d="M709 682l-269 -363v-319h-171v319l-269 363h205l150 -214l150 214h204z" />
    <glyph glyph-name="Z" unicode="Z" horiz-adv-x="698" 
d="M666 682l-372 -554h372v-128h-662l375 554h-349v128h636z" />
    <glyph glyph-name="bracketleft" unicode="[" horiz-adv-x="438" 
d="M419 682v-109h-190v-685h190v-109h-335v903h335z" />
    <glyph glyph-name="backslash" unicode="\" horiz-adv-x="281" 
d="M108 691l168 -700h-101l-170 700h103z" />
    <glyph glyph-name="bracketright" unicode="]" horiz-adv-x="437" 
d="M19 682h334v-903h-334v109h190v685h-190v109z" />
    <glyph glyph-name="asciicircum" unicode="^" horiz-adv-x="583" 
d="M56 292l184 390h108l179 -390h-139l-96 239l-96 -239h-140z" />
    <glyph glyph-name="underscore" unicode="_" horiz-adv-x="500" 
d="M-6 -75h512v-50h-512v50z" />
    <glyph glyph-name="quoteleft" unicode="&#x2018;" horiz-adv-x="271" 
d="M220 691v-30c-14 -17 -50 -61 -44 -128c50 -22 50 -69 50 -76c0 -48 -42 -78 -83 -78c-43 0 -98 34 -98 115c0 90 70 187 175 197z" />
    <glyph glyph-name="a" unicode="a" horiz-adv-x="531" 
d="M532 114v-81c-34 -21 -92 -42 -136 -42c-68 0 -77 33 -82 51c-34 -22 -81 -51 -152 -51c-69 0 -129 47 -129 121c0 92 94 125 128 137c23 8 125 41 146 47c0 24 1 78 -79 78c-90 0 -157 -62 -171 -78v118c67 42 137 56 201 56c23 0 140 -1 181 -75c7 -12 14 -28 14 -84
v-182c0 -16 0 -37 23 -37c15 0 30 8 56 22zM307 112v111c-10 -4 -62 -24 -73 -29c-13 -6 -54 -26 -54 -67c0 -32 26 -49 46 -49c4 0 44 0 81 34z" />
    <glyph glyph-name="b" unicode="b" horiz-adv-x="587" 
d="M207 682v-247c30 17 60 35 119 35c116 0 225 -81 225 -238c0 -143 -90 -241 -215 -241c-47 0 -91 16 -129 44v-35h-145v682h145zM207 341v-214c16 -12 46 -34 86 -34c36 0 113 17 113 139c0 20 -3 63 -22 91c-18 28 -55 47 -93 47c-35 0 -68 -17 -84 -29z" />
    <glyph glyph-name="c" unicode="c" horiz-adv-x="497" 
d="M460 126v-104c-24 -9 -84 -31 -156 -31c-150 0 -267 83 -267 238c0 162 133 241 261 241c44 0 105 -11 155 -30v-108c-23 12 -69 31 -118 31c-113 0 -143 -80 -143 -133c0 -67 42 -136 135 -136c43 0 77 12 133 32z" />
    <glyph glyph-name="d" unicode="d" horiz-adv-x="586" 
d="M527 682v-682h-144v37c-18 -14 -58 -46 -128 -46c-99 0 -215 76 -215 240c0 153 103 239 223 239c30 0 73 -5 120 -29v241h144zM383 126v220c-5 4 -40 27 -81 27c-32 0 -59 -13 -78 -32c-16 -17 -35 -43 -35 -112c0 -127 86 -136 109 -136c43 0 69 21 85 33z" />
    <glyph glyph-name="e" unicode="e" horiz-adv-x="564" 
d="M510 145v-93c-85 -60 -177 -61 -210 -61c-204 0 -263 140 -263 239c0 148 115 240 244 240c96 0 240 -57 237 -263h-331c6 -84 63 -126 153 -126c83 0 125 31 170 64zM190 283h200c-4 41 -31 99 -100 99c-71 0 -97 -59 -100 -99z" />
    <glyph glyph-name="f" unicode="f" horiz-adv-x="302" 
d="M226 461h66v-97h-66v-364h-145v364h-66v97h66c3 70 7 126 53 174c48 50 111 56 149 56c24 0 34 -1 81 -8l7 -1v-117c-20 3 -41 6 -65 6c-80 0 -80 -55 -80 -110z" />
    <glyph glyph-name="g" unicode="g" horiz-adv-x="542" 
d="M531 461v-96h-67c10 -16 23 -38 23 -78c0 -21 -6 -115 -127 -147c-27 -7 -44 -9 -84 -11c-38 -3 -45 -23 -45 -31c0 -24 35 -28 104 -33c64 -4 179 -29 179 -142c0 -85 -70 -120 -94 -130c-40 -17 -76 -23 -143 -23c-40 0 -99 1 -148 18c-58 21 -101 61 -101 116
c0 39 22 90 124 116c-32 10 -57 28 -57 61c0 49 55 62 85 69c-59 10 -129 59 -129 144c0 80 52 123 90 142c49 25 104 25 134 25h256zM354 294c0 39 -32 81 -85 81c-57 0 -82 -50 -82 -84c0 -45 38 -82 83 -82c52 0 84 45 84 85zM385 -86c0 51 -94 51 -110 51
c-18 0 -113 0 -113 -56c0 -14 10 -53 111 -53c51 0 68 7 85 17s27 28 27 41z" />
    <glyph glyph-name="h" unicode="h" horiz-adv-x="585" 
d="M210 682v-289c56 69 110 77 147 77c35 0 93 -8 134 -68c25 -37 32 -71 32 -122v-280h-144v249c0 36 0 115 -74 115c-40 0 -76 -33 -95 -70v-294h-148v682h148z" />
    <glyph glyph-name="i" unicode="i" horiz-adv-x="269" 
d="M201 461v-461h-139v461h139zM135 692c43 0 79 -34 79 -79s-36 -80 -79 -80c-44 0 -80 35 -80 80s37 79 80 79z" />
    <glyph glyph-name="j" unicode="j" horiz-adv-x="271" 
d="M210 461v-420c0 -69 0 -138 -46 -200c-29 -40 -79 -68 -127 -70l-46 130c70 11 75 77 75 140v420h144zM137 693c43 0 79 -36 79 -80c0 -43 -35 -79 -79 -79c-45 0 -80 36 -80 79c0 44 36 80 80 80z" />
    <glyph glyph-name="k" unicode="k" horiz-adv-x="568" 
d="M209 682v-449l182 228h169l-180 -228l188 -233h-177l-182 227v-227h-146v682h146z" />
    <glyph glyph-name="l" unicode="l" horiz-adv-x="270" 
d="M208 682v-682h-146v682h146z" />
    <glyph glyph-name="m" unicode="m" horiz-adv-x="958" 
d="M206 461v-59c61 55 117 68 162 68c33 0 84 -7 123 -42c25 -22 34 -40 42 -56c26 31 85 98 182 98c56 0 109 -20 143 -65s38 -82 38 -127v-278h-146v249c0 40 0 118 -86 118c-51 0 -89 -36 -114 -72v-295h-145v257c0 25 0 47 -12 69c-17 30 -50 42 -76 42
c-20 0 -63 -6 -111 -59v-309h-144v461h144z" />
    <glyph glyph-name="n" unicode="n" horiz-adv-x="588" 
d="M207 461v-66c39 45 83 75 150 75c85 0 131 -49 151 -90c17 -34 18 -67 18 -108v-272h-146v260c0 29 0 49 -7 66c-10 28 -36 43 -65 43c-58 0 -95 -62 -101 -72v-297h-145v461h145z" />
    <glyph glyph-name="o" unicode="o" horiz-adv-x="593" 
d="M556 229c0 -180 -152 -238 -258 -238c-141 0 -261 87 -261 237c0 144 117 242 262 242c105 0 257 -59 257 -241zM401 238c0 32 0 143 -107 143c-101 0 -101 -114 -101 -156c0 -28 0 -144 105 -144c103 0 103 120 103 157z" />
    <glyph glyph-name="p" unicode="p" horiz-adv-x="588" 
d="M208 461v-40c37 31 84 49 132 49c105 0 213 -87 213 -234c0 -159 -101 -245 -226 -245c-39 0 -85 11 -119 32v-244h-146v682h146zM208 330v-212c16 -12 41 -30 83 -30c45 0 113 28 113 140c0 34 -5 72 -26 100c-15 22 -46 39 -81 39c-31 0 -70 -17 -89 -37z" />
    <glyph glyph-name="q" unicode="q" horiz-adv-x="588" 
d="M530 461v-682h-144v246c-35 -24 -77 -34 -120 -34c-124 0 -226 90 -226 234c0 101 60 245 211 245c29 0 80 -4 135 -46v37h144zM386 119v216c-45 31 -84 32 -93 32c-38 0 -106 -27 -106 -140c0 -116 75 -136 116 -136c45 0 69 17 83 28z" />
    <glyph glyph-name="r" unicode="r" horiz-adv-x="446" 
d="M207 461v-132c49 103 97 141 149 141c34 0 62 -17 96 -42l-40 -128c-15 10 -48 34 -85 34c-54 0 -82 -45 -108 -101c-2 -5 -10 -30 -12 -34v-199h-145v461h145z" />
    <glyph glyph-name="s" unicode="s" horiz-adv-x="427" 
d="M377 436v-103c-50 27 -99 45 -143 45c-13 0 -64 -2 -64 -32c0 -18 10 -25 57 -45c91 -36 173 -70 173 -163c0 -94 -70 -147 -188 -147c-72 0 -142 21 -165 34v102c73 -38 120 -43 147 -43c48 0 70 16 70 35c0 26 -18 33 -88 62c-47 20 -58 25 -77 36
c-36 22 -61 61 -61 110c0 78 66 143 188 143c83 0 128 -22 151 -34z" />
    <glyph glyph-name="t" unicode="t" horiz-adv-x="409" 
d="M379 461v-100h-166v-101c0 -72 0 -88 4 -112c8 -46 50 -50 65 -50c39 0 66 12 97 27v-105c-26 -10 -70 -29 -135 -29c-58 0 -116 22 -150 69c-22 31 -28 65 -28 134v167h-66v27l193 218h20v-145h166z" />
    <glyph glyph-name="u" unicode="u" horiz-adv-x="583" 
d="M521 461v-461h-146v66c-50 -71 -117 -75 -146 -75c-93 0 -141 58 -158 102c-10 28 -10 55 -10 80v288h146v-246c0 -56 0 -123 70 -123c18 0 59 5 98 65v304h146z" />
    <glyph glyph-name="v" unicode="v" horiz-adv-x="510" 
d="M507 461l-205 -470h-88l-212 470h154l100 -245l97 245h154z" />
    <glyph glyph-name="w" unicode="w" horiz-adv-x="781" 
d="M782 461l-211 -470h-68l-112 251l-116 -251h-68l-208 470h148l97 -245l103 245h87l102 -245l99 245h147z" />
    <glyph glyph-name="x" unicode="x" horiz-adv-x="561" 
d="M544 461l-177 -225l191 -236h-177l-104 134l-101 -134h-172l184 236l-184 225h178l95 -124l90 124h177z" />
    <glyph glyph-name="y" unicode="y" horiz-adv-x="510" 
d="M509 461l-309 -682h-154l135 296l-180 386h155l97 -228l104 228h152z" />
    <glyph glyph-name="z" unicode="z" horiz-adv-x="521" 
d="M42 461h450l-236 -361h236v-100h-473l237 359h-214v102z" />
    <glyph glyph-name="braceleft" unicode="{" horiz-adv-x="385" 
d="M29 169v114c93 4 107 56 107 169c0 73 1 112 17 151c32 79 138 79 184 79h26v-113c-95 0 -97 -13 -100 -74c-4 -143 -5 -169 -31 -213c-17 -29 -40 -44 -60 -56c83 -47 86 -114 89 -217c3 -76 4 -85 7 -94c11 -32 52 -32 95 -32v-113h-26c-52 0 -122 0 -167 51
c-32 36 -34 93 -34 161c0 77 -1 104 -15 135c-21 46 -57 50 -92 52z" />
    <glyph glyph-name="bar" unicode="|" horiz-adv-x="281" 
d="M86 -230v921h109v-921h-109z" />
    <glyph glyph-name="braceright" unicode="}" horiz-adv-x="385" 
d="M48 -230h-26v113c92 0 98 15 100 74c5 144 6 169 31 212c20 34 45 48 61 57c-84 52 -86 105 -90 216c-3 71 -3 86 -6 95c-9 32 -46 32 -96 32v113h26c52 0 123 0 168 -51c31 -36 33 -93 33 -160c0 -79 1 -105 15 -136c22 -47 58 -51 92 -52v-114
c-91 -4 -107 -54 -107 -169c0 -74 0 -112 -16 -151c-33 -79 -139 -79 -185 -79z" />
    <glyph glyph-name="asciitilde" unicode="~" horiz-adv-x="583" 
d="M16 241v131c29 24 87 72 160 72c30 0 57 -5 137 -44c65 -31 89 -34 108 -34c60 0 112 45 146 74v-131c-25 -20 -87 -71 -158 -71c-20 0 -42 3 -89 22c-18 7 -96 44 -113 50c-9 3 -22 7 -38 7c-62 0 -115 -44 -153 -76z" />
    <glyph glyph-name="exclamdown" unicode="&#xa1;" horiz-adv-x="271" 
d="M218 -119c0 -65 -26 -112 -85 -112c-82 0 -82 89 -82 114c0 82 32 262 49 324c11 38 13 46 31 46c26 0 26 0 33 -25c25 -84 54 -267 54 -347zM222 383c0 -43 -34 -87 -86 -87c-48 0 -87 40 -87 87c0 46 38 87 87 87c52 0 86 -43 86 -87z" />
    <glyph glyph-name="cent" unicode="&#xa2;" horiz-adv-x="500" 
d="M471 632l-55 -177c22 -6 32 -11 39 -14v-107c-25 13 -39 18 -69 26l-83 -262c35 -2 89 -5 159 31v-107c-31 -12 -96 -38 -192 -31l-57 -180h-71l60 189c-37 13 -161 59 -161 227c0 150 114 243 264 243c22 0 33 -1 43 -3l52 165h71zM240 124l76 239
c-61 -4 -123 -46 -123 -133c0 -25 7 -73 47 -106z" />
    <glyph glyph-name="sterling" unicode="&#xa3;" horiz-adv-x="521" 
d="M336 394v-118h-97c-4 -20 -22 -112 -26 -130c11 4 21 5 33 5c24 0 63 -9 93 -15c15 -3 36 -7 60 -7c37 0 47 4 81 17v-135c-29 -13 -47 -20 -88 -20c-19 0 -24 1 -67 9c-22 5 -83 16 -124 16c-67 0 -123 -16 -154 -25c1 45 36 223 52 285h-45v118h77c18 66 44 153 94 214
c54 67 129 83 165 83c17 0 22 -4 29 -9l61 -127c-15 5 -28 9 -51 9c-52 0 -119 -13 -157 -170h64z" />
    <glyph glyph-name="fraction" unicode="&#x2044;" horiz-adv-x="219" 
d="M395 691l-478 -718h-94l479 718h93z" />
    <glyph glyph-name="yen" unicode="&#xa5;" horiz-adv-x="552" 
d="M206 133h-181v99h181v68h-181v99h132l-156 317h151l97 -208c18 -40 22 -53 26 -69c4 17 8 30 27 69l99 208h151l-159 -317h134v-99h-183v-68h183v-99h-183v-133h-138v133z" />
    <glyph glyph-name="florin" unicode="&#x192;" horiz-adv-x="552" 
d="M107 415l18 103h98l8 44c12 63 16 83 30 107c26 45 77 59 134 59c46 0 91 -6 135 -20l-26 -110c-14 4 -46 13 -78 13c-47 0 -52 -29 -60 -65l-5 -28h101l-18 -103h-100l-84 -477c-13 -76 -32 -148 -161 -148c-32 0 -91 5 -136 19l28 108c39 -9 59 -11 82 -11
c45 0 50 25 60 83l73 426h-99z" />
    <glyph glyph-name="section" unicode="&#xa7;" horiz-adv-x="521" 
d="M406 25c29 -38 46 -67 46 -113c0 -96 -84 -142 -194 -142c-112 0 -190 46 -190 107c0 38 34 73 74 73c13 0 53 -5 64 -53c4 -16 9 -38 49 -38c18 0 57 8 57 46c0 23 0 37 -121 122c-49 34 -72 50 -84 62c-68 64 -81 112 -81 164c0 92 56 152 87 182
c-31 42 -47 62 -47 105c0 47 23 92 68 121c33 22 66 30 133 30c51 0 86 -3 124 -22c22 -12 62 -41 62 -87c0 -42 -33 -74 -74 -74c-27 0 -53 15 -61 47c-4 15 -11 45 -53 45c-33 0 -58 -22 -58 -49s19 -41 55 -68c39 -30 44 -33 87 -62c125 -84 146 -159 146 -217
c0 -87 -47 -136 -89 -179zM260 312l-73 57c-14 -16 -34 -39 -34 -80c0 -34 13 -61 67 -108c16 -14 96 -74 114 -88c19 23 34 41 34 76c0 47 -26 81 -108 143z" />
    <glyph glyph-name="currency" unicode="&#xa4;" horiz-adv-x="552" 
d="M86 446l-64 63l80 86l68 -66c15 9 51 29 106 29s90 -20 106 -29l66 66l82 -83l-65 -66c22 -40 27 -78 27 -106s-6 -66 -27 -105l65 -65l-82 -83l-66 65c-24 -13 -62 -27 -106 -27s-83 14 -106 27l-63 -65l-85 83l64 65c-25 46 -27 87 -27 106c0 39 11 76 27 105zM177 341
c0 -55 45 -99 99 -99s98 44 98 99s-44 99 -98 99c-55 0 -99 -44 -99 -99z" />
    <glyph glyph-name="quotesingle" unicode="'" horiz-adv-x="240" 
d="M69 428l-24 133v121h150v-121l-25 -133h-101z" />
    <glyph glyph-name="quotedblleft" unicode="&#x201c;" horiz-adv-x="562" 
d="M511 691v-30c-14 -17 -50 -61 -44 -128c50 -22 50 -69 50 -76c0 -48 -42 -78 -83 -78c-43 0 -99 34 -99 115c0 90 71 187 176 197zM232 691v-30c-14 -17 -50 -61 -44 -128c50 -22 51 -69 51 -76c0 -48 -43 -78 -84 -78c-43 0 -98 34 -98 115c0 90 70 187 175 197z" />
    <glyph glyph-name="guillemotleft" unicode="&#xab;" horiz-adv-x="594" 
d="M583 454l-159 -225l159 -222h-144l-160 222l160 225h144zM317 454l-161 -225l161 -222h-143l-163 222l163 225h143z" />
    <glyph glyph-name="guilsinglleft" unicode="&#x2039;" horiz-adv-x="323" 
d="M314 454l-161 -226l161 -221h-144l-162 221l162 226h144z" />
    <glyph glyph-name="guilsinglright" unicode="&#x203a;" horiz-adv-x="323" 
d="M9 454h144l161 -226l-161 -221h-144l161 221z" />
    <glyph glyph-name="endash" unicode="&#x2013;" horiz-adv-x="500" 
d="M508 297v-132h-516v132h516z" />
    <glyph glyph-name="dagger" unicode="&#x2020;" horiz-adv-x="510" 
d="M283 443l170 36c32 7 33 -14 33 -36v-62c0 -12 0 -38 -19 -38c-3 0 -5 0 -17 4l-167 34l52 -587c1 -7 2 -24 -22 -24h-110c-34 0 -33 14 -31 35l54 576l-181 -36c-19 0 -20 24 -20 36v62c0 9 0 40 19 40c2 0 10 -3 12 -4l170 -36l-36 220c-3 20 1 28 36 28h57
c30 0 44 -3 40 -24z" />
    <glyph glyph-name="daggerdbl" unicode="&#x2021;" horiz-adv-x="510" 
d="M280 429l40 -199l-40 -198l170 39c27 6 34 -9 34 -62c0 -62 -8 -70 -22 -70c-5 0 -11 1 -16 3l-166 39l40 -178c5 -21 0 -33 -60 -33c-43 0 -74 2 -74 25c0 4 1 6 3 16l40 170l-168 -39c-2 -1 -8 -2 -11 -2c-22 0 -24 33 -24 72c0 25 0 61 20 61c2 0 8 -2 11 -2l172 -39
l-40 198l40 199l-164 -39c-8 -1 -8 -2 -11 -2c-20 0 -28 9 -28 65c0 58 7 67 19 67c3 0 10 -2 12 -2l172 -39l-40 172c-1 2 -2 9 -2 14c0 26 42 26 68 26c48 0 67 -5 67 -25c0 -1 0 -8 -2 -15l-40 -172l166 39c11 3 12 3 16 3c13 0 23 -6 23 -65c0 -67 -11 -67 -22 -67
c-5 0 -11 1 -13 1z" />
    <glyph glyph-name="periodcentered" unicode="&#xb7;" horiz-adv-x="271" 
d="M223 346c0 -41 -34 -87 -87 -87c-47 0 -87 40 -87 87c0 45 37 87 86 87c53 0 88 -45 88 -87z" />
    <glyph glyph-name="paragraph" unicode="&#xb6;" horiz-adv-x="552" 
d="M308 -230h-117v511c-243 18 -226 292 -112 364c57 37 100 37 181 37h291v-127h-55v-785h-117v785h-71v-785z" />
    <glyph glyph-name="bullet" unicode="&#x2022;" horiz-adv-x="354" 
d="M321 341c0 -81 -66 -144 -145 -144s-144 64 -144 144c0 79 64 144 144 144c79 0 145 -63 145 -144z" />
    <glyph glyph-name="quotesinglbase" unicode="&#x201a;" horiz-adv-x="271" 
d="M50 -171v31c15 17 51 60 45 127c-50 22 -51 69 -51 77c0 49 43 79 84 79c43 0 98 -33 98 -115c0 -92 -70 -188 -176 -199z" />
    <glyph glyph-name="quotedblbase" unicode="&#x201e;" horiz-adv-x="562" 
d="M57 -169v31c15 17 50 61 44 129c-49 22 -50 67 -50 75c0 47 42 77 83 77c44 0 99 -34 99 -114c0 -91 -70 -187 -176 -198zM336 -169v31c14 17 50 61 44 129c-49 22 -50 67 -50 75c0 47 42 77 83 77c43 0 99 -34 99 -114c0 -91 -71 -187 -176 -198z" />
    <glyph glyph-name="quotedblright" unicode="&#x201d;" horiz-adv-x="562" 
d="M63 377v30c14 18 50 61 44 128c-50 22 -51 69 -51 77c0 49 43 79 84 79c42 0 98 -33 98 -115c0 -92 -70 -188 -175 -199zM341 377v30c15 18 51 61 45 128c-50 22 -51 69 -51 77c0 49 43 79 84 79c43 0 98 -34 98 -115c0 -92 -71 -188 -176 -199z" />
    <glyph glyph-name="guillemotright" unicode="&#xbb;" horiz-adv-x="594" 
d="M11 454h144l160 -226l-160 -221h-144l159 221zM277 454h145l161 -226l-161 -221h-145l161 221z" />
    <glyph glyph-name="ellipsis" unicode="&#x2026;" horiz-adv-x="1000" 
d="M920 78c0 -41 -34 -87 -86 -87c-48 0 -88 41 -88 87c0 45 37 86 86 86c53 0 88 -44 88 -86zM587 78c0 -41 -34 -87 -86 -87c-48 0 -88 41 -88 87c0 45 37 86 86 86c53 0 88 -44 88 -86zM254 78c0 -41 -34 -87 -86 -87c-48 0 -88 41 -88 87c0 45 37 86 86 86
c53 0 88 -44 88 -86z" />
    <glyph glyph-name="perthousand" unicode="&#x2030;" horiz-adv-x="1083" 
d="M176 690c88 0 161 -71 161 -161c0 -89 -73 -161 -161 -161c-89 0 -161 72 -161 161s72 161 161 161zM176 600c-39 0 -72 -32 -72 -71c0 -40 32 -72 72 -72c39 0 71 32 71 72c0 39 -33 71 -71 71zM524 316c88 0 162 -71 162 -162c0 -89 -73 -161 -162 -161
s-161 72 -161 161c0 91 74 162 161 162zM523 224c-40 0 -71 -32 -71 -70c0 -39 31 -71 71 -71c39 0 70 32 70 71s-31 70 -70 70zM907 316c88 0 162 -71 162 -162c0 -89 -73 -161 -162 -161s-161 72 -161 161c0 91 74 162 161 162zM906 224c-40 0 -71 -32 -71 -70
c0 -39 31 -71 71 -71c39 0 70 32 70 71s-31 70 -70 70zM627 691l-477 -699h-83l480 699h80z" />
    <glyph glyph-name="questiondown" unicode="&#xbf;" horiz-adv-x="375" 
d="M325 -89l-24 -123c-14 -4 -67 -18 -122 -18c-115 0 -160 73 -160 141c0 74 36 121 85 185c37 48 60 86 60 129c0 3 -1 18 0 21c3 7 15 7 31 7c19 0 22 0 34 -22c13 -25 19 -69 19 -92c0 -47 -16 -77 -37 -114c-39 -71 -40 -73 -40 -93c0 -34 25 -57 57 -57
c36 0 70 22 89 36h8zM278 383c0 -39 -33 -87 -86 -87c-48 0 -87 40 -87 87s38 87 86 87c54 0 87 -48 87 -87z" />
    <glyph glyph-name="grave" unicode="`" 
d="M14 664h165l74 -146h-74z" />
    <glyph glyph-name="acute" unicode="&#xb4;" 
d="M319 664l-164 -146h-75l75 146h164z" />
    <glyph glyph-name="circumflex" unicode="&#x2c6;" 
d="M235 693l99 -175h-89l-78 87l-80 -87h-88l99 175h137z" />
    <glyph glyph-name="tilde" unicode="&#x2dc;" 
d="M38 520h-66c4 48 23 149 119 149c31 0 51 -10 91 -30c38 -19 52 -24 67 -24c20 0 37 10 44 54h68c-5 -78 -36 -151 -117 -151c-31 0 -73 21 -87 28c-40 20 -53 28 -74 28c-34 0 -43 -35 -45 -54z" />
    <glyph glyph-name="macron" unicode="&#xaf;" 
d="M360 642v-100h-387v100h387z" />
    <glyph glyph-name="breve" unicode="&#x2d8;" 
d="M-16 689h100c10 -46 52 -62 82 -62c42 0 71 18 84 62h99c-5 -58 -62 -171 -180 -171c-100 0 -161 68 -185 171z" />
    <glyph glyph-name="dotaccent" unicode="&#x2d9;" 
d="M167 657c35 0 65 -28 65 -65c0 -35 -29 -65 -65 -65c-37 0 -65 30 -65 65c0 36 29 65 65 65z" />
    <glyph glyph-name="dieresis" unicode="&#xa8;" 
d="M268 657c36 0 65 -28 65 -65c0 -35 -29 -65 -65 -65s-65 30 -65 65c0 36 29 65 65 65zM65 657c36 0 65 -29 65 -65c0 -35 -28 -65 -65 -65c-36 0 -65 30 -65 65c0 36 29 65 65 65z" />
    <glyph glyph-name="ring" unicode="&#x2da;" 
d="M167 699c55 0 101 -45 101 -101s-45 -102 -101 -102c-57 0 -102 45 -102 102s46 101 102 101zM166 652c-30 0 -54 -24 -54 -54s24 -55 54 -55c31 0 55 25 55 55s-24 54 -55 54z" />
    <glyph glyph-name="cedilla" unicode="&#xb8;" 
d="M234 8l-13 -31c47 -17 62 -44 62 -73c0 -34 -23 -83 -108 -83c-18 0 -59 2 -75 10v50c47 0 76 0 76 31c0 21 -19 25 -41 28l39 68h60z" />
    <glyph glyph-name="hungarumlaut" unicode="&#x2dd;" 
d="M230 663l-130 -145h-72l53 145h149zM418 663l-130 -145h-72l52 145h150z" />
    <glyph glyph-name="ogonek" unicode="&#x2db;" 
d="M254 -93v-80c-37 -15 -70 -15 -78 -15c-55 0 -101 35 -101 113c0 46 17 71 25 84h79c-11 -24 -16 -40 -16 -55c0 -39 35 -52 57 -52c12 0 24 3 34 5z" />
    <glyph glyph-name="caron" unicode="&#x2c7;" 
d="M98 518l-99 175h89l78 -93l80 93h88l-99 -175h-137z" />
    <glyph glyph-name="emdash" unicode="&#x2014;" horiz-adv-x="1000" 
d="M1007 297v-132h-1014v132h1014z" />
    <glyph glyph-name="AE" unicode="&#xc6;" horiz-adv-x="1073" 
d="M1007 682v-129h-316v-142h302v-128h-302v-156h326v-127h-497v283h-183l-168 -283h-176l409 682h605zM520 411v180l-107 -180h107z" />
    <glyph glyph-name="ordfeminine" unicode="&#xaa;" horiz-adv-x="354" 
d="M353 486v-57c-30 -17 -67 -27 -93 -27c-12 0 -46 2 -56 27c-24 -13 -50 -27 -94 -27c-45 0 -88 28 -88 74c0 57 64 78 87 85c14 5 76 23 89 26c0 17 -2 41 -45 41c-61 0 -100 -39 -115 -54v82c26 15 72 35 130 35c33 0 98 -4 124 -45c6 -8 11 -18 11 -51v-109
c0 -9 0 -18 9 -18c8 0 19 6 41 18zM198 477v59c-46 -15 -70 -23 -70 -50c0 -17 14 -26 25 -26c3 0 26 1 45 17z" />
    <glyph glyph-name="Lslash" unicode="&#x141;" horiz-adv-x="615" 
d="M246 682v-204l140 114v-132l-140 -116v-217h350v-127h-521v204l-93 -74v130l93 78v344h171z" />
    <glyph glyph-name="Oslash" unicode="&#xd8;" horiz-adv-x="853" 
d="M830 626l-83 -74c23 -30 77 -102 77 -211c0 -183 -154 -350 -388 -350c-124 0 -192 39 -242 69l-110 -97l-61 76l99 88c-62 77 -79 157 -79 213c0 162 134 351 392 351c135 0 222 -58 239 -73l87 77zM625 444l-314 -280c37 -23 81 -33 124 -33c121 0 214 81 214 208
c0 45 -12 76 -24 105zM244 235l314 281c-39 22 -84 32 -129 32c-112 0 -210 -70 -210 -208c0 -26 3 -66 25 -105z" />
    <glyph glyph-name="OE" unicode="&#x152;" horiz-adv-x="1094" 
d="M1033 682v-128h-317v-137h303v-128h-303v-161h325v-128h-588c-113 0 -164 17 -198 31c-111 45 -208 142 -208 313c0 177 109 270 211 310c73 28 123 28 268 28h507zM545 128v426c-59 0 -107 0 -131 -4c-103 -15 -190 -84 -190 -209c0 -186 175 -206 212 -210
c20 -2 56 -5 109 -3z" />
    <glyph glyph-name="ordmasculine" unicode="&#xba;" horiz-adv-x="396" 
d="M370 546c0 -107 -100 -144 -171 -144c-94 0 -173 54 -173 144c0 87 78 145 173 145c67 0 171 -34 171 -145zM258 551c0 20 0 81 -62 81c-56 0 -59 -58 -59 -88c0 -17 0 -82 62 -82c59 0 59 65 59 89z" />
    <glyph glyph-name="ae" unicode="&#xe6;" horiz-adv-x="797" 
d="M741 149v-95c-67 -49 -136 -63 -200 -63c-71 0 -142 22 -187 63c-37 -25 -93 -63 -185 -63c-111 0 -133 82 -133 117c0 53 38 97 78 119c61 33 179 64 200 69c0 13 1 21 -2 31c-12 40 -61 48 -80 48c-78 0 -153 -57 -176 -79v115c79 45 135 59 194 59
c70 0 107 -22 146 -51c21 18 61 51 137 51c127 0 182 -101 194 -129c17 -41 21 -89 21 -133h-289c-4 -93 54 -128 116 -128c78 0 137 46 166 69zM459 285h150c-5 62 -31 96 -77 96c-49 0 -71 -39 -73 -96zM314 110v113c-31 -9 -131 -38 -131 -99c0 -24 17 -48 45 -48
c35 0 71 23 86 34z" />
    <glyph glyph-name="dotlessi" unicode="&#x131;" horiz-adv-x="271" 
d="M209 461v-461h-144v461h144z" />
    <glyph glyph-name="lslash" unicode="&#x142;" horiz-adv-x="271" 
d="M208 447l77 63v-92l-77 -63v-355h-145v235l-77 -64v91l77 64v356h145v-235z" />
    <glyph glyph-name="oslash" unicode="&#xf8;" horiz-adv-x="594" 
d="M552 471l-62 -71c30 -34 68 -75 68 -168c0 -185 -158 -241 -257 -241c-64 0 -116 21 -137 29l-65 -74l-51 45l60 69c-72 68 -72 159 -72 172c0 115 88 238 266 238c63 0 96 -14 132 -29l65 81zM397 290l-161 -188c7 -5 26 -20 61 -20c103 0 103 113 103 153
c0 34 -1 43 -3 55zM199 167l164 191c-21 14 -45 22 -70 22c-26 0 -78 -11 -94 -85c-2 -7 -7 -30 -7 -67s5 -51 7 -61z" />
    <glyph glyph-name="oe" unicode="&#x153;" horiz-adv-x="889" 
d="M837 149v-99c-31 -20 -92 -59 -182 -59c-64 0 -126 21 -179 59c-80 -59 -165 -59 -179 -59c-131 0 -261 90 -261 242c0 137 115 237 262 237c87 0 137 -32 171 -56c14 13 63 56 138 56c122 0 232 -75 238 -262h-297c-1 -95 72 -128 122 -128c85 0 142 48 167 69zM549 284
h163c-3 23 -11 99 -85 99c-47 0 -79 -40 -78 -99zM403 237c0 36 -4 64 -20 91c-14 24 -43 49 -88 49c-98 0 -105 -103 -105 -151c0 -49 8 -146 107 -146c96 0 106 90 106 157z" />
    <glyph glyph-name="germandbls" unicode="&#xdf;" horiz-adv-x="604" 
d="M65 0v453c0 45 0 116 47 170c16 18 67 68 174 68c86 0 136 -21 171 -45c37 -26 67 -72 67 -127c0 -66 -42 -114 -88 -133c15 -5 38 -14 60 -35c46 -45 56 -109 56 -151c0 -140 -98 -209 -202 -209c-14 0 -39 1 -68 9v95c6 -1 12 -3 24 -3c59 0 102 39 102 129
c0 39 -7 98 -67 120c-20 8 -37 9 -53 8v72c23 0 94 2 94 89c0 72 -47 90 -83 90c-86 0 -89 -81 -89 -139v-461h-145z" />
    <glyph glyph-name="logicalnot" unicode="&#xac;" horiz-adv-x="583" 
d="M414 169v216h-373v129h501v-345h-128z" />
    <glyph glyph-name="mu" unicode="&#xb5;" horiz-adv-x="615" 
d="M392 459h145v-301c0 -21 0 -56 28 -56c5 0 10 1 21 5v-94c-23 -11 -49 -23 -91 -23c-23 0 -49 8 -64 37c-25 -23 -59 -37 -91 -37c-63 0 -104 46 -121 74v-294h-145v689h145v-295c15 -19 53 -66 104 -66c36 0 56 34 64 57c2 6 5 57 5 64v240z" />
    <glyph glyph-name="trademark" unicode="&#x2122;" horiz-adv-x="1000" 
d="M227 282v331h-121v69h324v-69h-121v-331h-82zM478 282v400h127l73 -275l73 275h126v-400h-76v319l-87 -319h-73l-86 319v-319h-77z" />
    <glyph glyph-name="Eth" unicode="&#xd0;" horiz-adv-x="802" 
d="M75 296h-83v91h83v295h278c44 0 107 0 185 -27c54 -19 218 -102 218 -313c0 -68 -17 -210 -166 -291c-65 -35 -131 -51 -250 -51h-265v296zM397 296h-150v-166h69c95 0 122 8 150 20c69 30 114 96 114 193c0 74 -27 155 -115 191c-44 18 -86 18 -132 18h-86v-165h150v-91
z" />
    <glyph glyph-name="onehalf" unicode="&#xbd;" horiz-adv-x="896" 
d="M222 691v-359h-104v359h104zM728 691l-478 -718h-94l478 718h94zM870 77v-77h-278v14c92 103 157 175 157 230c0 28 -24 46 -48 46c-44 0 -88 -37 -103 -51v85c52 29 83 36 118 36c98 0 134 -52 134 -101c0 -62 -66 -136 -106 -182h126z" />
    <glyph glyph-name="plusminus" unicode="&#xb1;" horiz-adv-x="583" 
d="M41 -12v128h501v-128h-501zM227 162v186h-186v128h186v186h129v-186h186v-128h-186v-186h-129z" />
    <glyph glyph-name="Thorn" unicode="&#xde;" horiz-adv-x="656" 
d="M77 682h172v-137h107c44 0 97 0 149 -28c58 -31 104 -95 104 -174c0 -71 -37 -137 -98 -174c-52 -32 -105 -32 -161 -32h-101v-137h-172v682zM309 419h-60v-157h56c55 0 128 0 128 80c0 77 -75 77 -124 77z" />
    <glyph glyph-name="onequarter" unicode="&#xbc;" horiz-adv-x="896" 
d="M842 360v-212h28v-62h-28v-86h-101v86h-156v62l192 212h65zM741 148v78l-71 -78h71zM222 691v-359h-104v359h104zM746 691l-479 -718h-94l479 718h94z" />
    <glyph glyph-name="divide" unicode="&#xf7;" horiz-adv-x="583" 
d="M41 277v128h501v-128h-501zM292 611c39 0 72 -32 72 -73c0 -40 -32 -73 -72 -73s-73 32 -73 73s33 73 73 73zM292 217c39 0 72 -32 72 -73c0 -40 -32 -73 -72 -73s-73 32 -73 73s33 73 73 73z" />
    <glyph glyph-name="brokenbar" unicode="&#xa6;" horiz-adv-x="281" 
d="M86 -230v377h109v-377h-109zM86 314v377h109v-377h-109z" />
    <glyph glyph-name="degree" unicode="&#xb0;" horiz-adv-x="396" 
d="M42 535c0 87 70 156 156 156s156 -69 156 -156c0 -86 -71 -155 -156 -155s-156 69 -156 155zM123 535c0 -41 34 -74 75 -74s74 33 74 74c0 42 -33 75 -74 75s-75 -33 -75 -75z" />
    <glyph glyph-name="thorn" unicode="&#xfe;" horiz-adv-x="583" 
d="M203 682v-261c37 31 84 49 132 49c105 0 213 -87 213 -234c0 -159 -101 -245 -226 -245c-39 0 -85 11 -119 32v-244h-146v903h146zM203 330v-212c16 -12 41 -30 83 -30c45 0 113 28 113 140c0 34 -5 72 -26 100c-15 22 -46 39 -81 39c-31 0 -70 -17 -89 -37z" />
    <glyph glyph-name="threequarters" unicode="&#xbe;" horiz-adv-x="896" 
d="M45 606v68c42 16 82 17 98 17c76 0 135 -35 135 -88c0 -35 -25 -64 -56 -81c16 -7 67 -27 67 -90c0 -68 -66 -105 -150 -105c-39 0 -77 9 -104 22v77c25 -16 52 -32 94 -32c29 0 54 16 54 42c0 34 -31 44 -61 46v67c55 4 55 36 55 40c0 18 -17 38 -51 38
c-16 0 -31 -4 -43 -7c-6 -2 -32 -13 -38 -14zM746 691l-479 -718h-94l479 718h94zM842 360v-212h28v-62h-28v-86h-101v86h-156v62l192 212h65zM741 148v78l-71 -78h71z" />
    <glyph glyph-name="registered" unicode="&#xae;" horiz-adv-x="740" 
d="M546 117h-99l-32 64c-7 13 -19 35 -42 65c-25 32 -45 34 -77 34h-15v-163h-80v397h141c71 0 108 0 139 -24c27 -21 41 -54 41 -87c0 -45 -26 -101 -107 -112c36 -14 47 -30 85 -94zM281 451v-108h33c20 0 68 0 84 4c33 10 39 36 39 51c0 20 -11 34 -23 41
c-20 12 -35 12 -100 12h-33zM744 317c0 -209 -170 -374 -374 -374c-207 0 -374 168 -374 374s167 374 374 374c204 0 374 -165 374 -374zM671 317c0 167 -136 301 -301 301c-166 0 -301 -136 -301 -301s135 -300 301 -300c165 0 301 133 301 300z" />
    <glyph glyph-name="minus" unicode="&#x2212;" horiz-adv-x="583" 
d="M41 277v128h501v-128h-501z" />
    <glyph glyph-name="eth" unicode="&#xf0;" horiz-adv-x="615" 
d="M329 639l143 51l23 -61l-100 -35c54 -47 175 -150 175 -350c0 -212 -172 -253 -265 -253c-145 0 -261 91 -261 237c0 151 118 242 233 242c49 0 69 -11 95 -25c-30 53 -51 79 -84 111l-168 -61l-22 61l130 47c-15 10 -40 28 -80 43l66 44c51 -14 75 -26 115 -51zM412 237
c0 40 -5 143 -109 143c-92 0 -103 -98 -103 -155c0 -55 12 -82 24 -100c15 -23 44 -42 81 -42c107 0 107 126 107 154z" />
    <glyph glyph-name="multiply" unicode="&#xd7;" horiz-adv-x="583" 
d="M54 193l148 148l-148 148l90 90l147 -148l149 148l89 -90l-148 -148l148 -148l-89 -90l-149 148l-147 -148z" />
    <glyph glyph-name="copyright" unicode="&#xa9;" horiz-adv-x="740" 
d="M460 262l79 -27c-29 -98 -101 -127 -164 -127c-88 0 -189 54 -189 206c0 123 67 210 190 210c116 0 150 -82 163 -118l-79 -19c-9 24 -28 68 -87 68c-91 0 -101 -97 -101 -138c0 -19 0 -139 97 -139c67 0 86 65 91 84zM744 317c0 -209 -170 -374 -374 -374
c-207 0 -374 168 -374 374s167 374 374 374c205 0 374 -166 374 -374zM670 317c0 167 -136 301 -300 301c-166 0 -301 -135 -301 -301s135 -300 301 -300c164 0 300 133 300 300z" />
    <glyph glyph-name="Aacute" unicode="&#xc1;" horiz-adv-x="781" 
d="M475 682l303 -682h-183l-56 135h-305l-51 -135h-180l275 682h197zM489 254l-110 264l-100 -264h210zM588 918l-208 -189h-101l117 189h192z" />
    <glyph glyph-name="Acircumflex" unicode="&#xc2;" horiz-adv-x="781" 
d="M475 682l303 -682h-183l-56 135h-305l-51 -135h-180l275 682h197zM489 254l-110 264l-100 -264h210zM480 899l117 -170h-93l-116 103l-114 -103h-91l115 170h182z" />
    <glyph glyph-name="Adieresis" unicode="&#xc4;" horiz-adv-x="781" 
d="M475 682l303 -682h-183l-56 135h-305l-51 -135h-180l275 682h197zM489 254l-110 264l-100 -264h210zM533 894c44 0 80 -36 80 -80s-36 -80 -80 -80s-80 36 -80 80s36 80 80 80zM248 894c44 0 80 -36 80 -80s-36 -80 -80 -80s-80 36 -80 80s36 80 80 80z" />
    <glyph glyph-name="Agrave" unicode="&#xc0;" horiz-adv-x="781" 
d="M475 682l303 -682h-183l-56 135h-305l-51 -135h-180l275 682h197zM489 254l-110 264l-100 -264h210zM193 918h192l117 -189h-101z" />
    <glyph glyph-name="Aring" unicode="&#xc5;" horiz-adv-x="781" 
d="M475 682l303 -682h-183l-56 135h-305l-51 -135h-180l275 682h197zM489 254l-110 264l-100 -264h210zM390 957c61 0 114 -50 114 -114s-51 -114 -114 -114s-114 50 -114 114s52 114 114 114zM390 904c-34 0 -61 -27 -61 -61c0 -35 27 -62 61 -62s61 28 61 62
c0 33 -27 61 -61 61z" />
    <glyph glyph-name="Atilde" unicode="&#xc3;" horiz-adv-x="781" 
d="M475 682l303 -682h-183l-56 135h-305l-51 -135h-180l275 682h197zM489 254l-110 264l-100 -264h210zM243 734h-74c0 90 43 160 131 160c51 0 87 -18 118 -34c17 -9 47 -24 72 -24c39 0 45 43 47 58h75c0 -89 -43 -160 -128 -160c-55 0 -96 21 -137 42
c-27 14 -44 18 -59 18c-31 0 -43 -27 -45 -60z" />
    <glyph glyph-name="Ccedilla" unicode="&#xc7;" horiz-adv-x="761" 
d="M695 633v-158c-60 39 -139 74 -233 74c-138 0 -249 -76 -249 -208c0 -151 137 -208 241 -208c90 0 173 35 248 84v-157c-92 -50 -174 -65 -226 -69l-10 -12c59 -8 90 -48 90 -81c0 -48 -42 -77 -71 -86c-30 -10 -60 -11 -86 -11c-67 0 -103 10 -117 14v56
c13 -1 30 -2 43 -2c19 0 69 3 69 35c0 26 -33 29 -65 29l58 58c-36 4 -98 12 -161 43c-104 52 -191 160 -191 304c0 182 148 353 414 353c74 0 156 -15 246 -58z" />
    <glyph glyph-name="Eacute" unicode="&#xc9;" horiz-adv-x="635" 
d="M581 125v-125h-503v682h496v-127h-324v-138h309v-128h-309v-164h331zM555 918l-208 -189h-101l117 189h192z" />
    <glyph glyph-name="Ecircumflex" unicode="&#xca;" horiz-adv-x="635" 
d="M581 125v-125h-503v682h496v-127h-324v-138h309v-128h-309v-164h331zM422 899l117 -170h-93l-116 103l-114 -103h-91l115 170h182z" />
    <glyph glyph-name="Edieresis" unicode="&#xcb;" horiz-adv-x="635" 
d="M581 125v-125h-503v682h496v-127h-324v-138h309v-128h-309v-164h331zM475 894c44 0 80 -36 80 -80s-36 -80 -80 -80s-80 36 -80 80s36 80 80 80zM190 894c44 0 80 -36 80 -80s-36 -80 -80 -80s-80 36 -80 80s36 80 80 80z" />
    <glyph glyph-name="Egrave" unicode="&#xc8;" horiz-adv-x="635" 
d="M581 125v-125h-503v682h496v-127h-324v-138h309v-128h-309v-164h331zM135 918h192l117 -189h-101z" />
    <glyph glyph-name="Iacute" unicode="&#xcd;" 
d="M253 682v-682h-172v682h172zM364 918l-208 -189h-101l117 189h192z" />
    <glyph glyph-name="Icircumflex" unicode="&#xce;" 
d="M253 682v-682h-172v682h172zM256 899l117 -170h-93l-116 103l-114 -103h-91l115 170h182z" />
    <glyph glyph-name="Idieresis" unicode="&#xcf;" 
d="M253 682v-682h-172v682h172zM309 894c44 0 80 -36 80 -80s-36 -80 -80 -80s-80 36 -80 80s36 80 80 80zM24 894c44 0 80 -36 80 -80s-36 -80 -80 -80s-80 36 -80 80s36 80 80 80z" />
    <glyph glyph-name="Igrave" unicode="&#xcc;" 
d="M253 682v-682h-172v682h172zM-31 918h192l117 -189h-101z" />
    <glyph glyph-name="Ntilde" unicode="&#xd1;" horiz-adv-x="840" 
d="M764 682v-682h-142l-377 422v-422h-169v682h155l365 -402v402h168zM273 734h-74c0 90 43 160 131 160c51 0 87 -18 118 -34c17 -9 47 -24 72 -24c39 0 45 43 47 58h75c0 -89 -43 -160 -128 -160c-55 0 -96 21 -137 42c-27 14 -44 18 -59 18c-31 0 -43 -27 -45 -60z" />
    <glyph glyph-name="Oacute" unicode="&#xd3;" horiz-adv-x="853" 
d="M818 340c0 -158 -129 -349 -394 -349c-236 0 -389 171 -389 349c0 159 132 351 392 351c241 0 391 -173 391 -351zM642 336c0 127 -83 210 -216 210c-122 0 -214 -74 -214 -209c0 -163 134 -208 215 -208c109 0 215 72 215 207zM624 918l-208 -189h-101l117 189h192z" />
    <glyph glyph-name="Ocircumflex" unicode="&#xd4;" horiz-adv-x="853" 
d="M818 340c0 -158 -129 -349 -394 -349c-236 0 -389 171 -389 349c0 159 132 351 392 351c241 0 391 -173 391 -351zM642 336c0 127 -83 210 -216 210c-122 0 -214 -74 -214 -209c0 -163 134 -208 215 -208c109 0 215 72 215 207zM516 899l117 -170h-93l-116 103l-114 -103
h-91l115 170h182z" />
    <glyph glyph-name="Odieresis" unicode="&#xd6;" horiz-adv-x="853" 
d="M818 340c0 -158 -129 -349 -394 -349c-236 0 -389 171 -389 349c0 159 132 351 392 351c241 0 391 -173 391 -351zM642 336c0 127 -83 210 -216 210c-122 0 -214 -74 -214 -209c0 -163 134 -208 215 -208c109 0 215 72 215 207zM569 894c44 0 80 -36 80 -80
s-36 -80 -80 -80s-80 36 -80 80s36 80 80 80zM284 894c44 0 80 -36 80 -80s-36 -80 -80 -80s-80 36 -80 80s36 80 80 80z" />
    <glyph glyph-name="Ograve" unicode="&#xd2;" horiz-adv-x="853" 
d="M818 340c0 -158 -129 -349 -394 -349c-236 0 -389 171 -389 349c0 159 132 351 392 351c241 0 391 -173 391 -351zM642 336c0 127 -83 210 -216 210c-122 0 -214 -74 -214 -209c0 -163 134 -208 215 -208c109 0 215 72 215 207zM239 918h192l117 -189h-101z" />
    <glyph glyph-name="Otilde" unicode="&#xd5;" horiz-adv-x="853" 
d="M818 340c0 -158 -129 -349 -394 -349c-236 0 -389 171 -389 349c0 159 132 351 392 351c241 0 391 -173 391 -351zM642 336c0 127 -83 210 -216 210c-122 0 -214 -74 -214 -209c0 -163 134 -208 215 -208c109 0 215 72 215 207zM279 734h-74c0 90 43 160 131 160
c51 0 87 -18 118 -34c17 -9 47 -24 72 -24c39 0 45 43 47 58h75c0 -89 -43 -160 -128 -160c-55 0 -96 21 -137 42c-27 14 -44 18 -59 18c-31 0 -43 -27 -45 -60z" />
    <glyph glyph-name="Scaron" unicode="&#x160;" horiz-adv-x="604" 
d="M534 638v-140c-47 23 -132 66 -219 66c-100 0 -103 -49 -103 -56c0 -41 67 -65 165 -100c86 -31 188 -83 188 -215c0 -158 -165 -202 -267 -202c-115 0 -224 54 -241 66v147c59 -37 137 -85 237 -85c22 0 102 1 102 62c0 45 -39 59 -129 90c-98 34 -222 82 -222 226
c0 104 87 194 258 194c54 0 122 -6 231 -53zM212 729l-117 170h93l116 -104l114 104h91l-115 -170h-182z" />
    <glyph glyph-name="Uacute" unicode="&#xda;" horiz-adv-x="823" 
d="M754 682v-371c0 -54 -1 -139 -59 -210c-70 -84 -182 -110 -287 -110c-53 0 -195 2 -287 121c-27 36 -52 84 -52 194v376h172v-338c0 -28 0 -68 12 -106c22 -76 91 -110 158 -110c99 0 145 65 159 100c12 30 12 56 12 116v338h172zM609 918l-208 -189h-101l117 189h192z
" />
    <glyph glyph-name="Ucircumflex" unicode="&#xdb;" horiz-adv-x="823" 
d="M754 682v-371c0 -54 -1 -139 -59 -210c-70 -84 -182 -110 -287 -110c-53 0 -195 2 -287 121c-27 36 -52 84 -52 194v376h172v-338c0 -28 0 -68 12 -106c22 -76 91 -110 158 -110c99 0 145 65 159 100c12 30 12 56 12 116v338h172zM501 899l117 -170h-93l-116 103
l-114 -103h-91l115 170h182z" />
    <glyph glyph-name="Udieresis" unicode="&#xdc;" horiz-adv-x="823" 
d="M754 682v-371c0 -54 -1 -139 -59 -210c-70 -84 -182 -110 -287 -110c-53 0 -195 2 -287 121c-27 36 -52 84 -52 194v376h172v-338c0 -28 0 -68 12 -106c22 -76 91 -110 158 -110c99 0 145 65 159 100c12 30 12 56 12 116v338h172zM554 894c44 0 80 -36 80 -80
s-36 -80 -80 -80s-80 36 -80 80s36 80 80 80zM269 894c44 0 80 -36 80 -80s-36 -80 -80 -80s-80 36 -80 80s36 80 80 80z" />
    <glyph glyph-name="Ugrave" unicode="&#xd9;" horiz-adv-x="823" 
d="M754 682v-371c0 -54 -1 -139 -59 -210c-70 -84 -182 -110 -287 -110c-53 0 -195 2 -287 121c-27 36 -52 84 -52 194v376h172v-338c0 -28 0 -68 12 -106c22 -76 91 -110 158 -110c99 0 145 65 159 100c12 30 12 56 12 116v338h172zM214 918h192l117 -189h-101z" />
    <glyph glyph-name="Yacute" unicode="&#xdd;" horiz-adv-x="708" 
d="M709 682l-269 -363v-319h-171v319l-269 363h205l150 -214l150 214h204zM582 918l-208 -189h-101l117 189h192z" />
    <glyph glyph-name="Ydieresis" unicode="&#x178;" horiz-adv-x="708" 
d="M709 682l-269 -363v-319h-171v319l-269 363h205l150 -214l150 214h204zM497 894c44 0 80 -36 80 -80s-36 -80 -80 -80s-80 36 -80 80s36 80 80 80zM212 894c44 0 80 -36 80 -80s-36 -80 -80 -80s-80 36 -80 80s36 80 80 80z" />
    <glyph glyph-name="Zcaron" unicode="&#x17d;" horiz-adv-x="698" 
d="M666 682l-372 -554h372v-128h-662l375 554h-349v128h636zM259 729l-117 170h93l116 -104l114 104h91l-115 -170h-182z" />
    <glyph glyph-name="aacute" unicode="&#xe1;" horiz-adv-x="531" 
d="M532 114v-81c-34 -21 -92 -42 -136 -42c-68 0 -77 33 -82 51c-34 -22 -81 -51 -152 -51c-69 0 -129 47 -129 121c0 92 94 125 128 137c23 8 125 41 146 47c0 24 1 78 -79 78c-90 0 -157 -62 -171 -78v118c67 42 137 56 201 56c23 0 140 -1 181 -75c7 -12 14 -28 14 -84
v-182c0 -16 0 -37 23 -37c15 0 30 8 56 22zM307 112v111c-10 -4 -62 -24 -73 -29c-13 -6 -54 -26 -54 -67c0 -32 26 -49 46 -49c4 0 44 0 81 34zM398 664l-164 -146h-75l75 146h164z" />
    <glyph glyph-name="acircumflex" unicode="&#xe2;" horiz-adv-x="531" 
d="M532 114v-81c-34 -21 -92 -42 -136 -42c-68 0 -77 33 -82 51c-34 -22 -81 -51 -152 -51c-69 0 -129 47 -129 121c0 92 94 125 128 137c23 8 125 41 146 47c0 24 1 78 -79 78c-90 0 -157 -62 -171 -78v118c67 42 137 56 201 56c23 0 140 -1 181 -75c7 -12 14 -28 14 -84
v-182c0 -16 0 -37 23 -37c15 0 30 8 56 22zM307 112v111c-10 -4 -62 -24 -73 -29c-13 -6 -54 -26 -54 -67c0 -32 26 -49 46 -49c4 0 44 0 81 34zM314 693l99 -175h-89l-78 87l-80 -87h-88l99 175h137z" />
    <glyph glyph-name="adieresis" unicode="&#xe4;" horiz-adv-x="531" 
d="M532 114v-81c-34 -21 -92 -42 -136 -42c-68 0 -77 33 -82 51c-34 -22 -81 -51 -152 -51c-69 0 -129 47 -129 121c0 92 94 125 128 137c23 8 125 41 146 47c0 24 1 78 -79 78c-90 0 -157 -62 -171 -78v118c67 42 137 56 201 56c23 0 140 -1 181 -75c7 -12 14 -28 14 -84
v-182c0 -16 0 -37 23 -37c15 0 30 8 56 22zM307 112v111c-10 -4 -62 -24 -73 -29c-13 -6 -54 -26 -54 -67c0 -32 26 -49 46 -49c4 0 44 0 81 34zM347 657c36 0 65 -28 65 -65c0 -35 -29 -65 -65 -65s-65 30 -65 65c0 36 29 65 65 65zM144 657c36 0 65 -29 65 -65
c0 -35 -28 -65 -65 -65c-36 0 -65 30 -65 65c0 36 29 65 65 65z" />
    <glyph glyph-name="agrave" unicode="&#xe0;" horiz-adv-x="531" 
d="M532 114v-81c-34 -21 -92 -42 -136 -42c-68 0 -77 33 -82 51c-34 -22 -81 -51 -152 -51c-69 0 -129 47 -129 121c0 92 94 125 128 137c23 8 125 41 146 47c0 24 1 78 -79 78c-90 0 -157 -62 -171 -78v118c67 42 137 56 201 56c23 0 140 -1 181 -75c7 -12 14 -28 14 -84
v-182c0 -16 0 -37 23 -37c15 0 30 8 56 22zM307 112v111c-10 -4 -62 -24 -73 -29c-13 -6 -54 -26 -54 -67c0 -32 26 -49 46 -49c4 0 44 0 81 34zM93 664h165l74 -146h-74z" />
    <glyph glyph-name="aring" unicode="&#xe5;" horiz-adv-x="531" 
d="M532 114v-81c-34 -21 -92 -42 -136 -42c-68 0 -77 33 -82 51c-34 -22 -81 -51 -152 -51c-69 0 -129 47 -129 121c0 92 94 125 128 137c23 8 125 41 146 47c0 24 1 78 -79 78c-90 0 -157 -62 -171 -78v118c67 42 137 56 201 56c23 0 140 -1 181 -75c7 -12 14 -28 14 -84
v-182c0 -16 0 -37 23 -37c15 0 30 8 56 22zM307 112v111c-10 -4 -62 -24 -73 -29c-13 -6 -54 -26 -54 -67c0 -32 26 -49 46 -49c4 0 44 0 81 34zM246 699c55 0 101 -45 101 -101s-45 -102 -101 -102c-57 0 -102 45 -102 102s46 101 102 101zM245 652c-30 0 -54 -24 -54 -54
s24 -55 54 -55c31 0 55 25 55 55s-24 54 -55 54z" />
    <glyph glyph-name="atilde" unicode="&#xe3;" horiz-adv-x="531" 
d="M532 114v-81c-34 -21 -92 -42 -136 -42c-68 0 -77 33 -82 51c-34 -22 -81 -51 -152 -51c-69 0 -129 47 -129 121c0 92 94 125 128 137c23 8 125 41 146 47c0 24 1 78 -79 78c-90 0 -157 -62 -171 -78v118c67 42 137 56 201 56c23 0 140 -1 181 -75c7 -12 14 -28 14 -84
v-182c0 -16 0 -37 23 -37c15 0 30 8 56 22zM307 112v111c-10 -4 -62 -24 -73 -29c-13 -6 -54 -26 -54 -67c0 -32 26 -49 46 -49c4 0 44 0 81 34zM117 520h-66c4 48 23 149 119 149c31 0 51 -10 91 -30c38 -19 52 -24 67 -24c20 0 37 10 44 54h68c-5 -78 -36 -151 -117 -151
c-31 0 -73 21 -87 28c-40 20 -53 28 -74 28c-34 0 -43 -35 -45 -54z" />
    <glyph glyph-name="ccedilla" unicode="&#xe7;" horiz-adv-x="496" 
d="M459 128v-105c-35 -17 -96 -30 -141 -32l-8 -20c16 -5 77 -23 77 -81c0 -78 -94 -88 -140 -88c-17 0 -59 6 -77 9v58c33 -2 95 -5 95 32c0 28 -37 30 -50 31l27 59c-167 34 -205 151 -205 233c0 164 129 246 261 246c32 0 89 -6 155 -29v-108c-20 9 -37 16 -56 21
c-19 6 -39 9 -64 9c-121 0 -141 -88 -141 -132c0 -45 20 -91 53 -113c28 -19 65 -21 85 -21c39 0 77 9 129 31z" />
    <glyph glyph-name="eacute" unicode="&#xe9;" horiz-adv-x="564" 
d="M510 145v-93c-85 -60 -177 -61 -210 -61c-204 0 -263 140 -263 239c0 148 115 240 244 240c96 0 240 -57 237 -263h-331c6 -84 63 -126 153 -126c83 0 125 31 170 64zM190 283h200c-4 41 -31 99 -100 99c-71 0 -97 -59 -100 -99zM444 664l-164 -146h-75l75 146h164z" />
    <glyph glyph-name="ecircumflex" unicode="&#xea;" horiz-adv-x="564" 
d="M510 145v-93c-85 -60 -177 -61 -210 -61c-204 0 -263 140 -263 239c0 148 115 240 244 240c96 0 240 -57 237 -263h-331c6 -84 63 -126 153 -126c83 0 125 31 170 64zM190 283h200c-4 41 -31 99 -100 99c-71 0 -97 -59 -100 -99zM355 693l99 -175h-89l-78 87l-80 -87h-88
l99 175h137z" />
    <glyph glyph-name="edieresis" unicode="&#xeb;" horiz-adv-x="564" 
d="M510 145v-93c-85 -60 -177 -61 -210 -61c-204 0 -263 140 -263 239c0 148 115 240 244 240c96 0 240 -57 237 -263h-331c6 -84 63 -126 153 -126c83 0 125 31 170 64zM190 283h200c-4 41 -31 99 -100 99c-71 0 -97 -59 -100 -99zM388 657c36 0 65 -28 65 -65
c0 -35 -29 -65 -65 -65s-65 30 -65 65c0 36 29 65 65 65zM185 657c36 0 65 -29 65 -65c0 -35 -28 -65 -65 -65c-36 0 -65 30 -65 65c0 36 29 65 65 65z" />
    <glyph glyph-name="egrave" unicode="&#xe8;" horiz-adv-x="564" 
d="M510 145v-93c-85 -60 -177 -61 -210 -61c-204 0 -263 140 -263 239c0 148 115 240 244 240c96 0 240 -57 237 -263h-331c6 -84 63 -126 153 -126c83 0 125 31 170 64zM190 283h200c-4 41 -31 99 -100 99c-71 0 -97 -59 -100 -99zM139 664h165l74 -146h-74z" />
    <glyph glyph-name="iacute" unicode="&#xed;" horiz-adv-x="274" 
d="M206 461v-461h-144v461h144zM285 664l-164 -146h-75l75 146h164z" />
    <glyph glyph-name="icircumflex" unicode="&#xee;" horiz-adv-x="274" 
d="M206 461v-461h-144v461h144zM201 693l99 -175h-89l-78 87l-80 -87h-88l99 175h137z" />
    <glyph glyph-name="idieresis" unicode="&#xef;" horiz-adv-x="274" 
d="M206 461v-461h-144v461h144zM234 657c36 0 65 -28 65 -65c0 -35 -29 -65 -65 -65s-65 30 -65 65c0 36 29 65 65 65zM31 657c36 0 65 -29 65 -65c0 -35 -28 -65 -65 -65c-36 0 -65 30 -65 65c0 36 29 65 65 65z" />
    <glyph glyph-name="igrave" unicode="&#xec;" horiz-adv-x="274" 
d="M206 461v-461h-144v461h144zM-20 664h165l74 -146h-74z" />
    <glyph glyph-name="ntilde" unicode="&#xf1;" horiz-adv-x="588" 
d="M207 461v-66c39 45 83 75 150 75c85 0 131 -49 151 -90c17 -34 18 -67 18 -108v-272h-146v260c0 29 0 49 -7 66c-10 28 -36 43 -65 43c-58 0 -95 -62 -101 -72v-297h-145v461h145zM165 520h-66c4 48 23 149 119 149c31 0 51 -10 91 -30c38 -19 52 -24 67 -24
c20 0 37 10 44 54h68c-5 -78 -36 -151 -117 -151c-31 0 -73 21 -87 28c-40 20 -53 28 -74 28c-34 0 -43 -35 -45 -54z" />
    <glyph glyph-name="oacute" unicode="&#xf3;" horiz-adv-x="594" 
d="M556 229c0 -180 -152 -238 -258 -238c-141 0 -261 87 -261 237c0 144 117 242 262 242c105 0 257 -59 257 -241zM401 238c0 32 0 143 -107 143c-101 0 -101 -114 -101 -156c0 -28 0 -144 105 -144c103 0 103 120 103 157zM450 664l-164 -146h-75l75 146h164z" />
    <glyph glyph-name="ocircumflex" unicode="&#xf4;" horiz-adv-x="594" 
d="M556 229c0 -180 -152 -238 -258 -238c-141 0 -261 87 -261 237c0 144 117 242 262 242c105 0 257 -59 257 -241zM401 238c0 32 0 143 -107 143c-101 0 -101 -114 -101 -156c0 -28 0 -144 105 -144c103 0 103 120 103 157zM376 693l99 -175h-89l-78 87l-80 -87h-88l99 175
h137z" />
    <glyph glyph-name="odieresis" unicode="&#xf6;" horiz-adv-x="594" 
d="M556 229c0 -180 -152 -238 -258 -238c-141 0 -261 87 -261 237c0 144 117 242 262 242c105 0 257 -59 257 -241zM401 238c0 32 0 143 -107 143c-101 0 -101 -114 -101 -156c0 -28 0 -144 105 -144c103 0 103 120 103 157zM409 657c36 0 65 -28 65 -65
c0 -35 -29 -65 -65 -65s-65 30 -65 65c0 36 29 65 65 65zM206 657c36 0 65 -29 65 -65c0 -35 -28 -65 -65 -65c-36 0 -65 30 -65 65c0 36 29 65 65 65z" />
    <glyph glyph-name="ograve" unicode="&#xf2;" horiz-adv-x="594" 
d="M556 229c0 -180 -152 -238 -258 -238c-141 0 -261 87 -261 237c0 144 117 242 262 242c105 0 257 -59 257 -241zM401 238c0 32 0 143 -107 143c-101 0 -101 -114 -101 -156c0 -28 0 -144 105 -144c103 0 103 120 103 157zM155 664h165l74 -146h-74z" />
    <glyph glyph-name="otilde" unicode="&#xf5;" horiz-adv-x="594" 
d="M556 229c0 -180 -152 -238 -258 -238c-141 0 -261 87 -261 237c0 144 117 242 262 242c105 0 257 -59 257 -241zM401 238c0 32 0 143 -107 143c-101 0 -101 -114 -101 -156c0 -28 0 -144 105 -144c103 0 103 120 103 157zM179 520h-66c4 48 23 149 119 149
c31 0 51 -10 91 -30c38 -19 52 -24 67 -24c20 0 37 10 44 54h68c-5 -78 -36 -151 -117 -151c-31 0 -73 21 -87 28c-40 20 -53 28 -74 28c-34 0 -43 -35 -45 -54z" />
    <glyph glyph-name="scaron" unicode="&#x161;" horiz-adv-x="427" 
d="M377 436v-103c-50 27 -99 45 -143 45c-13 0 -64 -2 -64 -32c0 -18 10 -25 57 -45c91 -36 173 -70 173 -163c0 -94 -70 -147 -188 -147c-72 0 -142 21 -165 34v102c73 -38 120 -43 147 -43c48 0 70 16 70 35c0 26 -18 33 -88 62c-47 20 -58 25 -77 36
c-36 22 -61 61 -61 110c0 78 66 143 188 143c83 0 128 -22 151 -34zM145 518l-99 175h89l78 -93l80 93h88l-99 -175h-137z" />
    <glyph glyph-name="uacute" unicode="&#xfa;" horiz-adv-x="583" 
d="M521 461v-461h-146v66c-50 -71 -117 -75 -146 -75c-93 0 -141 58 -158 102c-10 28 -10 55 -10 80v288h146v-246c0 -56 0 -123 70 -123c18 0 59 5 98 65v304h146zM444 664l-164 -146h-75l75 146h164z" />
    <glyph glyph-name="ucircumflex" unicode="&#xfb;" horiz-adv-x="583" 
d="M521 461v-461h-146v66c-50 -71 -117 -75 -146 -75c-93 0 -141 58 -158 102c-10 28 -10 55 -10 80v288h146v-246c0 -56 0 -123 70 -123c18 0 59 5 98 65v304h146zM360 693l99 -175h-89l-78 87l-80 -87h-88l99 175h137z" />
    <glyph glyph-name="udieresis" unicode="&#xfc;" horiz-adv-x="583" 
d="M521 461v-461h-146v66c-50 -71 -117 -75 -146 -75c-93 0 -141 58 -158 102c-10 28 -10 55 -10 80v288h146v-246c0 -56 0 -123 70 -123c18 0 59 5 98 65v304h146zM393 657c36 0 65 -28 65 -65c0 -35 -29 -65 -65 -65s-65 30 -65 65c0 36 29 65 65 65zM190 657
c36 0 65 -29 65 -65c0 -35 -28 -65 -65 -65c-36 0 -65 30 -65 65c0 36 29 65 65 65z" />
    <glyph glyph-name="ugrave" unicode="&#xf9;" horiz-adv-x="583" 
d="M521 461v-461h-146v66c-50 -71 -117 -75 -146 -75c-93 0 -141 58 -158 102c-10 28 -10 55 -10 80v288h146v-246c0 -56 0 -123 70 -123c18 0 59 5 98 65v304h146zM139 664h165l74 -146h-74z" />
    <glyph glyph-name="yacute" unicode="&#xfd;" horiz-adv-x="510" 
d="M509 461l-309 -682h-154l135 296l-180 386h155l97 -228l104 228h152zM408 664l-164 -146h-75l75 146h164z" />
    <glyph glyph-name="ydieresis" unicode="&#xff;" horiz-adv-x="510" 
d="M509 461l-309 -682h-154l135 296l-180 386h155l97 -228l104 228h152zM367 657c36 0 65 -28 65 -65c0 -35 -29 -65 -65 -65s-65 30 -65 65c0 36 29 65 65 65zM164 657c36 0 65 -29 65 -65c0 -35 -28 -65 -65 -65c-36 0 -65 30 -65 65c0 36 29 65 65 65z" />
    <glyph glyph-name="zcaron" unicode="&#x17e;" horiz-adv-x="521" 
d="M42 461h450l-236 -361h236v-100h-473l237 359h-214v102zM192 518l-99 175h89l78 -93l80 93h88l-99 -175h-137z" />
    <glyph glyph-name="oneeighth" unicode="&#x215b;" horiz-adv-x="896" 
d="M809 188c36 -17 58 -46 58 -85c0 -57 -46 -108 -142 -108c-77 0 -140 40 -140 107c0 14 0 59 59 86c-33 18 -47 43 -47 74c0 55 48 98 128 98c92 0 131 -54 131 -99c0 -46 -35 -66 -47 -73zM758 258c0 27 -11 43 -32 43c-30 0 -32 -35 -32 -44c0 -8 2 -45 33 -45
c3 0 31 0 31 46zM764 103c0 36 -16 53 -38 53c-19 0 -38 -14 -38 -51c0 -40 22 -53 39 -53c20 0 37 17 37 51zM222 691v-359h-104v359h104zM725 691l-478 -718h-94l478 718h94z" />
    <glyph glyph-name="threeeighths" unicode="&#x215c;" horiz-adv-x="896" 
d="M809 188c36 -18 58 -46 58 -85c0 -56 -46 -108 -142 -108c-77 0 -140 40 -140 107c0 14 0 59 59 86c-33 18 -47 43 -47 74c0 55 48 98 128 98c92 0 131 -54 131 -99c0 -46 -35 -66 -47 -73zM758 258c0 27 -11 43 -32 43c-30 0 -32 -35 -32 -44c0 -8 2 -45 33 -45
c3 0 31 0 31 46zM764 103c0 36 -16 53 -38 53c-19 0 -38 -14 -38 -51c0 -40 22 -53 39 -53c20 0 37 17 37 51zM45 606v68c42 16 82 17 98 17c76 0 135 -35 135 -88c0 -35 -25 -64 -56 -81c16 -7 67 -27 67 -90c0 -68 -66 -105 -150 -105c-39 0 -77 9 -104 22v77
c25 -16 52 -32 94 -32c29 0 54 16 54 42c0 34 -31 44 -61 46v67c55 4 55 36 55 40c0 18 -17 38 -51 38c-16 0 -31 -4 -43 -7c-6 -2 -32 -13 -38 -14zM734 691l-478 -718h-94l478 718h94z" />
    <glyph glyph-name="fiveeighths" unicode="&#x215d;" horiz-adv-x="896" 
d="M809 188c36 -18 58 -46 58 -85c0 -56 -46 -108 -142 -108c-77 0 -140 40 -140 107c0 14 0 59 59 86c-33 18 -47 43 -47 74c0 55 48 98 128 98c92 0 131 -54 131 -99c0 -46 -35 -66 -47 -73zM758 258c0 27 -11 43 -32 43c-30 0 -32 -35 -32 -44c0 -8 2 -45 33 -45
c3 0 31 0 31 46zM764 103c0 36 -16 53 -38 53c-19 0 -38 -14 -38 -51c0 -40 22 -53 39 -53c20 0 37 17 37 51zM280 687v-77h-129v-59c85 4 143 -44 143 -110c0 -54 -41 -114 -152 -114c-40 0 -82 10 -103 21v71c19 -9 52 -24 91 -24c42 0 58 24 58 45c0 24 -20 47 -73 47
c-25 0 -42 -4 -55 -7v207h220zM734 691l-478 -718h-94l478 718h94z" />
    <glyph glyph-name="seveneighths" unicode="&#x215e;" horiz-adv-x="896" 
d="M809 188c16 -9 58 -31 58 -85c0 -55 -45 -108 -142 -108c-77 0 -140 40 -140 107c0 14 0 59 59 86c-33 18 -47 43 -47 74c0 55 48 98 128 98c92 0 131 -54 131 -99c0 -46 -35 -66 -47 -73zM758 258c0 27 -11 43 -32 43c-30 0 -32 -35 -32 -44c0 -8 2 -45 33 -45
c3 0 31 0 31 46zM764 103c0 36 -16 53 -38 53c-19 0 -38 -14 -38 -51c0 -40 22 -53 39 -53c20 0 37 17 37 51zM297 691l-148 -364l-91 30l107 255h-147v79h279zM722 691l-478 -718h-94l478 718h94z" />
    <glyph glyph-name="onethird" unicode="&#x2153;" horiz-adv-x="896" 
d="M222 691v-359h-104v359h104zM722 691l-478 -718h-94l478 718h94zM639 288l-38 -14v69c42 15 82 17 99 17c76 0 134 -35 134 -89c0 -35 -25 -64 -56 -81c16 -6 67 -27 67 -90c0 -68 -66 -105 -149 -105c-39 0 -78 10 -104 22v77c25 -15 51 -31 93 -31c29 0 54 15 54 42
c0 34 -31 43 -61 46v67c55 3 55 35 55 39c0 18 -17 38 -51 38c-16 0 -31 -3 -43 -7z" />
    <glyph glyph-name="twothirds" unicode="&#x2154;" horiz-adv-x="896" 
d="M294 409v-77h-279v13c93 104 157 176 157 231c0 28 -23 46 -48 46c-44 0 -88 -38 -103 -51v85c52 29 83 35 118 35c98 0 134 -52 134 -101c0 -61 -66 -135 -106 -181h127zM734 691l-478 -718h-94l478 718h94zM601 274v69c42 15 82 17 99 17c76 0 134 -35 134 -89
c0 -35 -25 -64 -56 -81c16 -6 67 -27 67 -90c0 -68 -66 -105 -149 -105c-39 0 -78 10 -104 22v77c25 -15 51 -31 93 -31c29 0 54 15 54 42c0 34 -31 43 -61 46v67c55 3 55 35 55 39c0 16 -14 38 -52 38c-24 0 -36 -5 -80 -21z" />
    <glyph glyph-name="ampersand.sc" unicode="&#xf726;" horiz-adv-x="545" 
d="M423 116l108 -116h-165l-37 41c-39 -29 -86 -47 -135 -47c-83 0 -159 53 -159 133c0 79 76 118 106 134c-17 23 -44 60 -44 109c0 67 54 131 151 131c98 0 144 -64 144 -120c0 -63 -52 -97 -89 -120l57 -72c21 27 32 44 46 76h119c-35 -74 -49 -96 -102 -149zM247 318
c38 26 38 50 38 56c0 12 -10 36 -36 36c-18 0 -36 -13 -36 -32c0 -22 19 -43 34 -60zM269 110l-76 86c-17 -14 -37 -32 -37 -58c0 -27 23 -48 53 -48c27 0 47 12 60 20z" />
    <glyph glyph-name="zero.oldstyle" unicode="&#xf730;" horiz-adv-x="526" 
d="M263 124c23 0 87 17 87 107c0 89 -64 106 -87 106s-46 -11 -62 -30c-13 -15 -25 -33 -25 -81c0 -74 53 -102 87 -102zM497 230c0 -183 -139 -239 -233 -239c-124 0 -235 85 -235 237c0 145 106 242 236 242c98 0 232 -63 232 -240z" />
    <glyph glyph-name="one.oldstyle" unicode="&#xf731;" horiz-adv-x="411" 
d="M311 0h-147v290l-129 -103v140l163 143h113v-470z" />
    <glyph glyph-name="two.oldstyle" unicode="&#xf732;" horiz-adv-x="510" 
d="M463 130v-130h-428v20l120 99c130 108 130 146 130 171c0 51 -56 51 -61 51c-57 0 -119 -37 -171 -70v140c67 30 131 59 218 59c102 0 172 -46 172 -143c0 -87 -55 -143 -118 -197h138z" />
    <glyph glyph-name="three.oldstyle" unicode="&#xf733;" horiz-adv-x="465" 
d="M441 461l-150 -302c25 -6 55 -13 87 -42c28 -26 58 -70 58 -131c0 -115 -107 -216 -243 -216c-71 0 -132 24 -166 39v132c33 -22 80 -52 144 -52c81 0 106 57 106 95c0 53 -43 98 -116 98c-17 0 -32 -3 -49 -5l118 248l-201 -1v137h412z" />
    <glyph glyph-name="four.oldstyle" unicode="&#xf734;" horiz-adv-x="531" 
d="M301 0h-298v66l356 404h81v-373h88v-97h-88v-221h-139v221zM155 97h149v177z" />
    <glyph glyph-name="five.oldstyle" unicode="&#xf735;" horiz-adv-x="471" 
d="M459 461l1 -136l-228 -1l-21 -141c35 -3 94 -8 145 -41c51 -34 82 -92 82 -153c0 -94 -61 -219 -243 -219c-34 0 -92 3 -169 36v133c38 -20 93 -50 155 -50s100 33 100 80c0 51 -41 98 -149 98c-24 0 -44 -2 -63 -4l63 398h327z" />
    <glyph glyph-name="six.oldstyle" unicode="&#xf736;" horiz-adv-x="510" 
d="M264 691l115 -58c-108 -134 -120 -160 -144 -209c17 7 39 15 69 15c94 0 177 -79 177 -208c0 -146 -97 -240 -228 -240s-224 93 -224 244c0 152 85 276 235 456zM334 220c0 53 -26 100 -77 100c-42 0 -74 -34 -74 -103c0 -71 35 -99 75 -99c54 0 76 52 76 102z" />
    <glyph glyph-name="seven.oldstyle" unicode="&#xf737;" horiz-adv-x="494" 
d="M483 461v-8l-249 -683l-136 52l183 502h-252v137h454z" />
    <glyph glyph-name="eight.oldstyle" unicode="&#xf738;" horiz-adv-x="516" 
d="M373 360c24 -11 114 -53 114 -167c0 -76 -48 -202 -231 -202c-134 0 -227 84 -227 201c0 120 91 158 116 168c-35 20 -96 55 -96 148c0 89 63 183 207 183c157 0 212 -109 212 -185c0 -37 -14 -83 -47 -113c-19 -18 -36 -26 -48 -33zM322 499c0 15 0 90 -65 90
c-31 0 -43 -19 -48 -28c-14 -24 -15 -53 -15 -64c0 -13 2 -95 66 -95c7 0 62 0 62 97zM333 195c0 82 -37 110 -74 110c-6 0 -76 0 -76 -106c0 -83 43 -110 77 -110c35 0 73 28 73 106z" />
    <glyph glyph-name="nine.oldstyle" unicode="&#xf739;" horiz-adv-x="510" 
d="M247 -230l-115 57c107 135 120 161 143 210c-16 -7 -38 -16 -69 -16c-94 0 -177 80 -177 209c0 145 97 240 229 240c131 0 223 -93 223 -244c0 -152 -85 -276 -234 -456zM177 241c0 -53 26 -101 76 -101c42 0 74 34 74 104c0 71 -35 99 -75 99c-54 0 -75 -52 -75 -102z
" />
    <glyph glyph-name="a.sc" unicode="&#xf761;" horiz-adv-x="569" 
d="M380 79h-208l-27 -79h-139l194 495h146l217 -495h-151zM202 175h143l-79 189z" />
    <glyph glyph-name="b.sc" unicode="&#xf762;" horiz-adv-x="519" 
d="M60 0v495h186c80 0 122 -9 148 -25c32 -19 53 -57 53 -97c0 -69 -49 -94 -74 -107c104 -16 106 -107 106 -122c0 -47 -22 -86 -53 -107c-45 -30 -75 -37 -143 -37h-223zM193 395v-96h41c32 0 80 0 80 49c0 47 -49 47 -78 47h-43zM193 202v-102h57c40 0 93 0 93 51
s-56 51 -104 51h-46z" />
    <glyph glyph-name="c.sc" unicode="&#xf763;" horiz-adv-x="559" 
d="M511 167v-122c-30 -16 -91 -51 -190 -51c-198 0 -281 137 -281 252c0 169 142 255 293 255c60 0 120 -11 172 -39v-132c-21 15 -77 55 -167 55c-91 0 -159 -53 -159 -138c0 -88 72 -137 155 -137c67 0 133 34 177 57z" />
    <glyph glyph-name="d.sc" unicode="&#xf764;" horiz-adv-x="580" 
d="M59 0v495h198c92 0 150 -21 197 -59c60 -48 86 -123 86 -190c0 -75 -31 -161 -118 -211c-52 -29 -119 -35 -166 -35h-197zM192 387v-279h60c35 0 75 13 93 26c37 25 57 71 57 117c0 54 -26 90 -52 110c-29 23 -59 26 -97 26h-61z" />
    <glyph glyph-name="e.sc" unicode="&#xf765;" horiz-adv-x="467" 
d="M422 106v-106h-361v495h356v-106h-223v-80h213v-106h-213v-97h228z" />
    <glyph glyph-name="f.sc" unicode="&#xf766;" horiz-adv-x="446" 
d="M398 495v-106h-205v-86h205v-106h-205v-197h-133v495h338z" />
    <glyph glyph-name="g.sc" unicode="&#xf767;" horiz-adv-x="587" 
d="M522 466v-123c-74 27 -118 42 -178 42c-31 0 -87 -4 -123 -39c-29 -28 -42 -67 -42 -102c0 -75 59 -134 145 -134c34 0 60 8 77 14v45h-71v103h203v-209c-57 -50 -132 -69 -208 -69c-153 0 -284 95 -284 253c0 153 117 254 292 254c93 0 160 -25 189 -35z" />
    <glyph glyph-name="h.sc" unicode="&#xf768;" horiz-adv-x="601" 
d="M192 303h217v192h132v-495h-132v193h-217v-193h-132v495h132v-192z" />
    <glyph glyph-name="i.sc" unicode="&#xf769;" horiz-adv-x="262" 
d="M197 495v-495h-132v495h132z" />
    <glyph glyph-name="j.sc" unicode="&#xf76a;" horiz-adv-x="262" 
d="M204 495v-415c0 -77 -8 -219 -165 -219c-30 0 -44 5 -61 11l6 109c14 -6 20 -8 31 -8c57 0 57 53 57 118v404h132z" />
    <glyph glyph-name="k.sc" unicode="&#xf76b;" horiz-adv-x="550" 
d="M194 288l139 207h143l-156 -228l224 -267h-174l-176 210v-210h-132v495h132v-207z" />
    <glyph glyph-name="l.sc" unicode="&#xf76c;" horiz-adv-x="453" 
d="M432 106v-106h-372v495h133v-389h239z" />
    <glyph glyph-name="m.sc" unicode="&#xf76d;" horiz-adv-x="673" 
d="M515 495h98v-495h-133v285l-131 -159h-26l-131 159v-285h-132v495h97l179 -204z" />
    <glyph glyph-name="n.sc" unicode="&#xf76e;" horiz-adv-x="609" 
d="M548 495v-495h-110l-244 280v-280h-133v495h119l235 -266v266h133z" />
    <glyph glyph-name="o.sc" unicode="&#xf76f;" horiz-adv-x="630" 
d="M590 246c0 -134 -115 -252 -275 -252c-154 0 -275 110 -275 251c0 136 116 256 274 256c134 0 276 -94 276 -255zM451 244c0 103 -81 141 -134 141c-69 0 -138 -55 -138 -139c0 -79 62 -136 138 -136c82 0 134 66 134 134z" />
    <glyph glyph-name="p.sc" unicode="&#xf770;" horiz-adv-x="481" 
d="M60 495h199c47 0 106 -1 152 -56c23 -26 36 -61 36 -96c0 -48 -25 -91 -52 -117c-43 -40 -100 -40 -140 -40h-62v-186h-133v495zM245 395h-52v-109h49c25 0 72 0 72 58c0 51 -49 51 -69 51z" />
    <glyph glyph-name="q.sc" unicode="&#xf771;" horiz-adv-x="630" 
d="M593 -47l-93 -81c-120 25 -182 56 -265 129c-156 44 -194 170 -194 244c0 147 133 256 279 256c155 0 270 -119 270 -254c0 -28 -6 -171 -169 -237c54 -26 114 -45 172 -57zM451 245c0 106 -79 140 -133 140c-81 0 -138 -64 -138 -140c0 -81 65 -137 137 -137
c96 0 134 85 134 137z" />
    <glyph glyph-name="r.sc" unicode="&#xf772;" horiz-adv-x="497" 
d="M60 495h161c104 0 150 -9 188 -45c27 -26 43 -63 43 -100c0 -54 -27 -101 -75 -128c30 -27 37 -44 67 -118c21 -51 36 -81 47 -104h-147c-51 149 -64 186 -117 186h-34v-186h-133v495zM238 395h-45v-109h42c25 0 78 0 78 54c0 55 -52 55 -75 55z" />
    <glyph glyph-name="s.sc" unicode="&#xf773;" horiz-adv-x="446" 
d="M390 467v-118c-43 19 -102 46 -159 46c-31 0 -61 -11 -61 -37c0 -22 25 -35 59 -48c16 -6 31 -12 47 -17c66 -23 135 -58 135 -150c0 -114 -116 -149 -189 -149c-60 0 -120 13 -175 38v125c65 -36 111 -57 168 -57c13 0 63 3 63 36c0 22 -6 25 -94 62
c-72 30 -145 61 -145 159c0 75 60 144 185 144c81 0 138 -23 166 -34z" />
    <glyph glyph-name="t.sc" unicode="&#xf774;" horiz-adv-x="524" 
d="M498 495v-110h-170v-385h-132v385h-170v110h472z" />
    <glyph glyph-name="u.sc" unicode="&#xf775;" horiz-adv-x="595" 
d="M539 495v-268c0 -38 0 -101 -42 -153c-37 -46 -102 -80 -202 -80c-30 0 -112 0 -180 62c-59 55 -59 138 -59 167v272h132v-245c0 -59 15 -91 36 -110c20 -19 47 -30 76 -30c38 0 74 19 88 44c10 18 19 40 19 96v245h132z" />
    <glyph glyph-name="v.sc" unicode="&#xf776;" horiz-adv-x="529" 
d="M264 240l116 255h143l-228 -501h-62l-227 501h143z" />
    <glyph glyph-name="w.sc" unicode="&#xf777;" horiz-adv-x="850" 
d="M380 495h91l115 -255l115 255h143l-227 -501h-62l-130 286l-130 -286h-62l-227 501h143l115 -255z" />
    <glyph glyph-name="x.sc" unicode="&#xf778;" horiz-adv-x="595" 
d="M217 257l-196 238h161l116 -140l115 140h161l-196 -238l212 -257h-161l-131 159l-131 -159h-161z" />
    <glyph glyph-name="y.sc" unicode="&#xf779;" horiz-adv-x="517" 
d="M517 495l-191 -289v-206h-135v206l-191 289h144l114 -171l115 171h144z" />
    <glyph glyph-name="z.sc" unicode="&#xf77a;" horiz-adv-x="514" 
d="M489 495l-262 -388h264v-107h-485l267 388h-242v107h458z" />
    <glyph glyph-name="lslash.sc" unicode="&#xf6f9;" horiz-adv-x="453" 
d="M60 110l-60 -46v107l60 45v279h133v-189l128 104v-109l-128 -103v-92h239v-106h-372v110z" />
    <glyph glyph-name="scaron.sc" unicode="&#xf6fd;" horiz-adv-x="446" 
d="M390 467v-118c-43 19 -102 46 -159 46c-31 0 -61 -11 -61 -37c0 -22 25 -35 59 -48c16 -6 31 -12 47 -17c66 -23 135 -58 135 -150c0 -114 -116 -149 -189 -149c-60 0 -120 13 -175 38v125c65 -36 111 -57 168 -57c13 0 63 3 63 36c0 22 -6 25 -94 62
c-72 30 -145 61 -145 159c0 75 60 144 185 144c81 0 138 -23 166 -34zM134 549l-117 170h93l116 -104l114 104h91l-115 -170h-182z" />
    <glyph glyph-name="zcaron.sc" unicode="&#xf6ff;" horiz-adv-x="514" 
d="M489 495l-262 -388h264v-107h-485l267 388h-242v107h458zM168 549l-117 170h93l116 -104l114 104h91l-115 -170h-182z" />
    <glyph glyph-name="one.superior" unicode="&#xb9;" 
d="M219 632v-359h-104v359h104z" />
    <glyph glyph-name="two.superior" unicode="&#xb2;" 
d="M312 350v-77h-278v13c2 2 70 77 108 128c13 17 48 64 48 103c0 28 -23 46 -48 46c-43 0 -87 -38 -103 -51v85c53 29 84 35 118 35c99 0 134 -52 134 -101c0 -61 -65 -135 -106 -181h127z" />
    <glyph glyph-name="three.superior" unicode="&#xb3;" 
d="M42 547v68c42 16 81 17 98 17c76 0 135 -35 135 -88c0 -35 -25 -64 -57 -81c42 -17 68 -44 68 -90c0 -68 -67 -105 -150 -105c-39 0 -77 9 -104 22v77c25 -16 52 -32 94 -32c29 0 54 16 54 42c0 34 -31 44 -62 46v67c55 4 55 36 55 40c0 16 -13 38 -51 38
c-25 0 -37 -5 -80 -21z" />
    <glyph glyph-name="agrave.sc" unicode="&#xf7e0;" horiz-adv-x="569" 
d="M380 79h-208l-27 -79h-139l194 495h146l217 -495h-151zM202 175h143l-79 189zM63 738h192l117 -189h-101z" />
    <glyph glyph-name="aacute.sc" unicode="&#xf7e1;" horiz-adv-x="569" 
d="M380 79h-208l-27 -79h-139l194 495h146l217 -495h-151zM202 175h143l-79 189zM499 738l-208 -189h-101l117 189h192z" />
    <glyph glyph-name="acircumflex.sc" unicode="&#xf7e2;" horiz-adv-x="569" 
d="M380 79h-208l-27 -79h-139l194 495h146l217 -495h-151zM202 175h143l-79 189zM369 719l117 -170h-93l-116 103l-114 -103h-91l115 170h182z" />
    <glyph glyph-name="atilde.sc" unicode="&#xf7e3;" horiz-adv-x="569" 
d="M380 79h-208l-27 -79h-139l194 495h146l217 -495h-151zM202 175h143l-79 189zM133 554h-74c0 27 4 67 23 100c19 34 52 61 108 61c51 0 96 -23 118 -35c27 -15 47 -24 72 -24c39 0 45 43 47 58h75c0 -83 -42 -160 -128 -160c-55 0 -96 21 -137 42c-27 14 -44 18 -59 18
c-31 0 -43 -27 -45 -60z" />
    <glyph glyph-name="adieresis.sc" unicode="&#xf7e4;" horiz-adv-x="569" 
d="M380 79h-208l-27 -79h-139l194 495h146l217 -495h-151zM202 175h143l-79 189zM421 714c44 0 80 -36 80 -80s-36 -80 -80 -80s-80 36 -80 80s36 80 80 80zM137 714c44 0 80 -36 80 -80s-36 -80 -80 -80s-80 36 -80 80s36 80 80 80z" />
    <glyph glyph-name="aring.sc" unicode="&#xf7e5;" horiz-adv-x="569" 
d="M380 79h-208l-27 -79h-139l194 495h146l217 -495h-151zM202 175h143l-79 189zM280 777c61 0 114 -50 114 -114s-51 -114 -114 -114s-114 50 -114 114s52 114 114 114zM280 724c-34 0 -61 -27 -61 -61c0 -35 27 -62 61 -62s61 28 61 62c0 33 -27 61 -61 61z" />
    <glyph glyph-name="ae.sc" unicode="&#xf7e6;" horiz-adv-x="760" 
d="M712 495v-106h-218v-84h208v-106h-208v-93h224v-106h-356v92h-171l-53 -92h-138l303 495h409zM246 198h116v195z" />
    <glyph glyph-name="ccedilla.sc" unicode="&#xf7e7;" horiz-adv-x="559" 
d="M336 -6l-6 -17c25 -9 62 -23 62 -72c0 -48 -39 -84 -109 -84c-27 0 -51 3 -75 10v50c47 0 76 0 76 31c0 21 -20 25 -40 28l32 56c-172 22 -236 149 -236 250c0 169 142 255 293 255c60 0 120 -11 172 -39v-132c-21 15 -77 55 -167 55c-91 0 -159 -53 -159 -138
c0 -88 72 -137 155 -137c67 0 133 34 177 57v-122c-29 -16 -84 -47 -175 -51z" />
    <glyph glyph-name="egrave.sc" unicode="&#xf7e8;" horiz-adv-x="467" 
d="M422 106v-106h-361v495h356v-106h-223v-80h213v-106h-213v-97h228zM17 738h192l117 -189h-101z" />
    <glyph glyph-name="eacute.sc" unicode="&#xf7e9;" horiz-adv-x="467" 
d="M422 106v-106h-361v495h356v-106h-223v-80h213v-106h-213v-97h228zM463 738l-208 -189h-101l117 189h192z" />
    <glyph glyph-name="ecircumflex.sc" unicode="&#xf7ea;" horiz-adv-x="467" 
d="M422 106v-106h-361v495h356v-106h-223v-80h213v-106h-213v-97h228zM323 719l117 -170h-93l-116 103l-114 -103h-91l115 170h182z" />
    <glyph glyph-name="edieresis.sc" unicode="&#xf7eb;" horiz-adv-x="467" 
d="M422 106v-106h-361v495h356v-106h-223v-80h213v-106h-213v-97h228zM375 714c44 0 80 -36 80 -80s-36 -80 -80 -80s-80 36 -80 80s36 80 80 80zM91 714c44 0 80 -36 80 -80s-36 -80 -80 -80s-80 36 -80 80s36 80 80 80z" />
    <glyph glyph-name="igrave.sc" unicode="&#xf7ec;" horiz-adv-x="262" 
d="M197 495v-495h-132v495h132zM-85 738h192l117 -189h-101z" />
    <glyph glyph-name="iacute.sc" unicode="&#xf7ed;" horiz-adv-x="262" 
d="M197 495v-495h-132v495h132zM351 738l-208 -189h-101l117 189h192z" />
    <glyph glyph-name="icircumflex.sc" unicode="&#xf7ee;" horiz-adv-x="262" 
d="M197 495v-495h-132v495h132zM221 719l117 -170h-93l-116 103l-114 -103h-91l115 170h182z" />
    <glyph glyph-name="idieresis.sc" unicode="&#xf7ef;" horiz-adv-x="262" 
d="M197 495v-495h-132v495h132zM273 714c44 0 80 -36 80 -80s-36 -80 -80 -80s-80 36 -80 80s36 80 80 80zM-11 714c44 0 80 -36 80 -80s-36 -80 -80 -80s-80 36 -80 80s36 80 80 80z" />
    <glyph glyph-name="eth.sc" unicode="&#xf7f0;" horiz-adv-x="580" 
d="M59 206h-59v81h59v208h198c92 0 150 -21 197 -59c60 -48 86 -123 86 -190c0 -75 -31 -161 -118 -211c-52 -29 -119 -35 -166 -35h-197v206zM285 206h-93v-98h60c35 0 75 13 93 26c37 25 57 71 57 117c0 54 -26 90 -52 110c-29 23 -59 26 -97 26h-61v-100h93v-81z" />
    <glyph glyph-name="ntilde.sc" unicode="&#xf7f1;" horiz-adv-x="609" 
d="M548 495v-495h-110l-244 280v-280h-133v495h119l235 -266v266h133zM158 554h-74c0 27 4 67 23 100c19 34 52 61 108 61c51 0 96 -23 118 -35c27 -15 47 -24 72 -24c39 0 45 43 47 58h75c0 -83 -42 -160 -128 -160c-55 0 -96 21 -137 42c-27 14 -44 18 -59 18
c-31 0 -43 -27 -45 -60z" />
    <glyph glyph-name="ograve.sc" unicode="&#xf7f2;" horiz-adv-x="630" 
d="M590 246c0 -134 -115 -252 -275 -252c-154 0 -275 110 -275 251c0 136 116 256 274 256c134 0 276 -94 276 -255zM451 244c0 103 -81 141 -134 141c-69 0 -138 -55 -138 -139c0 -79 62 -136 138 -136c82 0 134 66 134 134zM99 738h192l117 -189h-101z" />
    <glyph glyph-name="oacute.sc" unicode="&#xf7f3;" horiz-adv-x="630" 
d="M590 246c0 -134 -115 -252 -275 -252c-154 0 -275 110 -275 251c0 136 116 256 274 256c134 0 276 -94 276 -255zM451 244c0 103 -81 141 -134 141c-69 0 -138 -55 -138 -139c0 -79 62 -136 138 -136c82 0 134 66 134 134zM535 738l-208 -189h-101l117 189h192z" />
    <glyph glyph-name="ocircumflex.sc" unicode="&#xf7f4;" horiz-adv-x="630" 
d="M590 246c0 -134 -115 -252 -275 -252c-154 0 -275 110 -275 251c0 136 116 256 274 256c134 0 276 -94 276 -255zM451 244c0 103 -81 141 -134 141c-69 0 -138 -55 -138 -139c0 -79 62 -136 138 -136c82 0 134 66 134 134zM405 719l117 -170h-93l-116 103l-114 -103h-91
l115 170h182z" />
    <glyph glyph-name="otilde.sc" unicode="&#xf7f5;" horiz-adv-x="630" 
d="M590 246c0 -134 -115 -252 -275 -252c-154 0 -275 110 -275 251c0 136 116 256 274 256c134 0 276 -94 276 -255zM451 244c0 103 -81 141 -134 141c-69 0 -138 -55 -138 -139c0 -79 62 -136 138 -136c82 0 134 66 134 134zM169 554h-74c0 27 4 67 23 100
c19 34 52 61 108 61c51 0 96 -23 118 -35c27 -15 47 -24 72 -24c39 0 45 43 47 58h75c0 -83 -42 -160 -128 -160c-55 0 -96 21 -137 42c-27 14 -44 18 -59 18c-31 0 -43 -27 -45 -60z" />
    <glyph glyph-name="odieresis.sc" unicode="&#xf7f6;" horiz-adv-x="630" 
d="M590 246c0 -134 -115 -252 -275 -252c-154 0 -275 110 -275 251c0 136 116 256 274 256c134 0 276 -94 276 -255zM451 244c0 103 -81 141 -134 141c-69 0 -138 -55 -138 -139c0 -79 62 -136 138 -136c82 0 134 66 134 134zM457 714c44 0 80 -36 80 -80s-36 -80 -80 -80
s-80 36 -80 80s36 80 80 80zM173 714c44 0 80 -36 80 -80s-36 -80 -80 -80s-80 36 -80 80s36 80 80 80z" />
    <glyph glyph-name="oe.sc" unicode="&#xf6fa;" horiz-adv-x="779" 
d="M729 495v-106h-218v-80h209v-106h-209v-97h223v-106h-408c-75 0 -172 11 -236 94c-28 37 -49 89 -49 156c0 107 55 165 86 189c72 56 197 56 248 56h354zM379 107v281h-33c-102 0 -167 -46 -167 -140c0 -58 35 -141 163 -141h37z" />
    <glyph glyph-name="oslash.sc" unicode="&#xf7f8;" horiz-adv-x="630" 
d="M205 14l-15 -20h-94l41 58c-15 12 -31 24 -48 47c-30 40 -49 92 -49 146c0 135 114 256 274 256c60 0 98 -16 122 -26l18 26h94l-47 -66c16 -14 32 -27 48 -52c26 -39 41 -86 41 -134c0 -142 -118 -255 -276 -255c-55 0 -89 12 -109 20zM426 329l-150 -213
c9 -3 20 -6 40 -6c78 0 135 58 135 138c0 28 -6 60 -25 81zM211 157l154 219c-11 4 -23 9 -48 9c-70 0 -138 -56 -138 -139c0 -10 0 -51 32 -89z" />
    <glyph glyph-name="ugrave.sc" unicode="&#xf7f9;" horiz-adv-x="595" 
d="M539 495v-268c0 -38 0 -101 -42 -153c-37 -46 -102 -80 -202 -80c-30 0 -112 0 -180 62c-59 55 -59 138 -59 167v272h132v-245c0 -59 15 -91 36 -110c20 -19 47 -30 76 -30c38 0 74 19 88 44c10 18 19 40 19 96v245h132zM81 738h192l117 -189h-101z" />
    <glyph glyph-name="uacute.sc" unicode="&#xf7fa;" horiz-adv-x="595" 
d="M539 495v-268c0 -38 0 -101 -42 -153c-37 -46 -102 -80 -202 -80c-30 0 -112 0 -180 62c-59 55 -59 138 -59 167v272h132v-245c0 -59 15 -91 36 -110c20 -19 47 -30 76 -30c38 0 74 19 88 44c10 18 19 40 19 96v245h132zM517 738l-208 -189h-101l117 189h192z" />
    <glyph glyph-name="ucircumflex.sc" unicode="&#xf7fb;" horiz-adv-x="595" 
d="M539 495v-268c0 -38 0 -101 -42 -153c-37 -46 -102 -80 -202 -80c-30 0 -112 0 -180 62c-59 55 -59 138 -59 167v272h132v-245c0 -59 15 -91 36 -110c20 -19 47 -30 76 -30c38 0 74 19 88 44c10 18 19 40 19 96v245h132zM387 719l117 -170h-93l-116 103l-114 -103h-91
l115 170h182z" />
    <glyph glyph-name="udieresis.sc" unicode="&#xf7fc;" horiz-adv-x="595" 
d="M539 495v-268c0 -38 0 -101 -42 -153c-37 -46 -102 -80 -202 -80c-30 0 -112 0 -180 62c-59 55 -59 138 -59 167v272h132v-245c0 -59 15 -91 36 -110c20 -19 47 -30 76 -30c38 0 74 19 88 44c10 18 19 40 19 96v245h132zM439 714c44 0 80 -36 80 -80s-36 -80 -80 -80
s-80 36 -80 80s36 80 80 80zM155 714c44 0 80 -36 80 -80s-36 -80 -80 -80s-80 36 -80 80s36 80 80 80z" />
    <glyph glyph-name="yacute.sc" unicode="&#xf7fd;" horiz-adv-x="517" 
d="M517 495l-191 -289v-206h-135v206l-191 289h144l114 -171l115 171h144zM498 738l-208 -189h-101l117 189h192z" />
    <glyph glyph-name="thorn.sc" unicode="&#xf7fe;" horiz-adv-x="481" 
d="M60 495h133v-88h66c57 0 111 -5 153 -55c22 -28 35 -63 35 -97c0 -49 -25 -92 -52 -117c-43 -41 -100 -41 -140 -41h-62v-97h-133v495zM245 306h-52v-109h49c25 0 72 0 72 58c0 51 -49 51 -69 51z" />
    <glyph glyph-name="ydieresis.sc" unicode="&#xf7ff;" horiz-adv-x="517" 
d="M517 495l-191 -289v-206h-135v206l-191 289h144l114 -171l115 171h144zM400 714c44 0 80 -36 80 -80s-36 -80 -80 -80s-80 36 -80 80s36 80 80 80zM116 714c44 0 80 -36 80 -80s-36 -80 -80 -80s-80 36 -80 80s36 80 80 80z" />
    <glyph glyph-name="Abreve" unicode="&#x102;" horiz-adv-x="781" 
d="M475 682l303 -682h-183l-56 135h-305l-51 -135h-180l275 682h197zM489 254l-110 264l-100 -264h210zM178 912h111c17 -57 58 -74 100 -74c40 0 80 15 103 74h110c-7 -77 -78 -183 -212 -183c-131 0 -206 106 -212 183z" />
    <glyph glyph-name="Amacron" unicode="&#x100;" horiz-adv-x="781" 
d="M475 682l303 -682h-183l-56 135h-305l-51 -135h-180l275 682h197zM489 254l-110 264l-100 -264h210zM610 854v-117h-440v117h440z" />
    <glyph glyph-name="Aogonek" unicode="&#x104;" horiz-adv-x="781" 
d="M772 -103v-89c-26 -11 -56 -17 -85 -17c-72 0 -114 51 -114 126c0 46 15 71 22 83l-56 135h-305l-51 -135h-180l275 682h197l303 -682h-93c-9 -21 -14 -34 -14 -50c0 -51 48 -59 61 -59c10 0 19 2 40 6zM489 254l-110 264l-100 -264h210z" />
    <glyph glyph-name="AEacute" unicode="&#x1fc;" horiz-adv-x="1073" 
d="M1007 682v-129h-316v-142h302v-128h-302v-156h326v-127h-497v283h-183l-168 -283h-176l409 682h605zM520 411v180l-107 -180h107zM934 918l-208 -189h-101l117 189h192z" />
    <glyph glyph-name="Cacute" unicode="&#x106;" horiz-adv-x="759" 
d="M700 216v-157c-100 -53 -181 -68 -268 -68c-265 0 -397 173 -397 348c0 172 135 352 412 352c124 0 210 -39 245 -60v-157c-28 21 -115 74 -233 74c-142 0 -247 -82 -247 -207c0 -134 114 -209 242 -209c64 0 124 18 181 47zM611 918l-208 -189h-101l117 189h192z" />
    <glyph glyph-name="Ccaron" unicode="&#x10c;" horiz-adv-x="759" 
d="M700 216v-157c-100 -53 -181 -68 -268 -68c-265 0 -397 173 -397 348c0 172 135 352 412 352c124 0 210 -39 245 -60v-157c-28 21 -115 74 -233 74c-142 0 -247 -82 -247 -207c0 -134 114 -209 242 -209c64 0 124 18 181 47zM318 729l-117 170h93l116 -104l114 104h91
l-115 -170h-182z" />
    <glyph glyph-name="Ccircumflex" unicode="&#x108;" horiz-adv-x="759" 
d="M700 216v-157c-100 -53 -181 -68 -268 -68c-265 0 -397 173 -397 348c0 172 135 352 412 352c124 0 210 -39 245 -60v-157c-28 21 -115 74 -233 74c-142 0 -247 -82 -247 -207c0 -134 114 -209 242 -209c64 0 124 18 181 47zM493 899l117 -170h-93l-116 103l-114 -103
h-91l115 170h182z" />
    <glyph glyph-name="Cdotaccent" unicode="&#x10a;" horiz-adv-x="771" 
d="M712 216v-157c-100 -53 -181 -68 -268 -68c-265 0 -397 173 -397 348c0 172 135 352 412 352c124 0 210 -39 245 -60v-157c-28 21 -115 74 -233 74c-142 0 -247 -82 -247 -207c0 -134 114 -209 242 -209c64 0 124 18 181 47zM425 894c44 0 80 -36 80 -80s-36 -80 -80 -80
s-80 36 -80 80s36 80 80 80z" />
    <glyph glyph-name="Dcaron" unicode="&#x10e;" horiz-adv-x="802" 
d="M75 682h278c44 0 107 0 185 -27c54 -19 218 -102 218 -313c0 -68 -17 -210 -166 -291c-65 -35 -131 -51 -250 -51h-265v682zM333 552h-86v-422h69c95 0 122 8 150 20c69 30 114 96 114 193c0 74 -27 155 -115 191c-44 18 -86 18 -132 18zM281 729l-117 170h93l116 -104
l114 104h91l-115 -170h-182z" />
    <glyph glyph-name="Dcroat" unicode="&#x110;" horiz-adv-x="802" 
d="M75 296h-83v91h83v295h278c44 0 107 0 185 -27c54 -19 218 -102 218 -313c0 -68 -17 -210 -166 -291c-65 -35 -131 -51 -250 -51h-265v296zM397 296h-150v-166h69c95 0 122 8 150 20c69 30 114 96 114 193c0 74 -27 155 -115 191c-44 18 -86 18 -132 18h-86v-165h150v-91
z" />
    <glyph glyph-name="Ebreve" unicode="&#x114;" horiz-adv-x="635" 
d="M581 125v-125h-503v682h496v-127h-324v-138h309v-128h-309v-164h331zM125 912h111c17 -57 58 -74 100 -74c40 0 80 15 103 74h110c-7 -77 -78 -183 -212 -183c-131 0 -206 106 -212 183z" />
    <glyph glyph-name="Ecaron" unicode="&#x11a;" horiz-adv-x="635" 
d="M581 125v-125h-503v682h496v-127h-324v-138h309v-128h-309v-164h331zM242 729l-117 170h93l116 -104l114 104h91l-115 -170h-182z" />
    <glyph glyph-name="Edotaccent" unicode="&#x116;" horiz-adv-x="635" 
d="M581 125v-125h-503v682h496v-127h-324v-138h309v-128h-309v-164h331zM332 894c44 0 80 -36 80 -80s-36 -80 -80 -80s-80 36 -80 80s36 80 80 80z" />
    <glyph glyph-name="Emacron" unicode="&#x112;" horiz-adv-x="635" 
d="M581 125v-125h-503v682h496v-127h-324v-138h309v-128h-309v-164h331zM552 854v-117h-440v117h440z" />
    <glyph glyph-name="Eng" unicode="&#x14a;" horiz-adv-x="834" 
d="M465 -7v134c13 -3 17 -3 27 -3c41 0 95 24 95 122v122c0 110 -54 180 -167 180c-106 0 -149 -65 -173 -113v-435h-170v681h170v-89c35 36 97 99 229 99c190 0 281 -126 281 -317v-120c0 -164 -71 -262 -238 -262c-24 0 -32 0 -54 1z" />
    <glyph glyph-name="Eogonek" unicode="&#x118;" horiz-adv-x="635" 
d="M581 -103v-89c-26 -11 -56 -17 -85 -17c-71 0 -115 48 -115 123c0 47 18 77 23 86h-326v682h496v-127h-324v-138h309v-128h-309v-164h331v-125h-87c-11 -26 -14 -36 -14 -49c0 -42 31 -60 64 -60c14 0 27 3 37 6z" />
    <glyph glyph-name="Gbreve" unicode="&#x11e;" horiz-adv-x="804" 
d="M715 635v-148c-80 37 -166 62 -254 62c-79 0 -126 -20 -156 -39c-49 -30 -93 -89 -93 -175c0 -129 108 -202 225 -202c42 0 83 9 122 24v80h-98v127h271v-281c-70 -59 -181 -92 -292 -92c-219 0 -405 130 -405 350c0 213 171 350 412 350c135 0 227 -39 268 -56zM216 912
h111c17 -57 58 -74 100 -74c40 0 80 15 103 74h110c-7 -77 -78 -183 -212 -183c-131 0 -206 106 -212 183z" />
    <glyph glyph-name="Gcircumflex" unicode="&#x11c;" horiz-adv-x="804" 
d="M715 635v-148c-80 37 -166 62 -254 62c-79 0 -126 -20 -156 -39c-49 -30 -93 -89 -93 -175c0 -129 108 -202 225 -202c42 0 83 9 122 24v80h-98v127h271v-281c-70 -59 -181 -92 -292 -92c-219 0 -405 130 -405 350c0 213 171 350 412 350c135 0 227 -39 268 -56zM503 899
l117 -170h-93l-116 103l-114 -103h-91l115 170h182z" />
    <glyph glyph-name="Gcommaaccent" unicode="&#x122;" horiz-adv-x="804" 
d="M715 635v-148c-80 37 -166 62 -254 62c-79 0 -126 -20 -156 -39c-49 -30 -93 -89 -93 -175c0 -129 108 -202 225 -202c42 0 83 9 122 24v80h-98v127h271v-281c-70 -59 -181 -92 -292 -92c-219 0 -405 130 -405 350c0 213 171 350 412 350c135 0 227 -39 268 -56z
M324 -229v56h29c61 0 75 10 75 36c0 34 -64 29 -84 29l5 51c82 0 220 9 220 -91c0 -51 -52 -92 -145 -92c-49 0 -83 6 -100 11z" />
    <glyph glyph-name="Gdotaccent" unicode="&#x120;" horiz-adv-x="804" 
d="M715 635v-148c-80 37 -166 62 -254 62c-79 0 -126 -20 -156 -39c-49 -30 -93 -89 -93 -175c0 -129 108 -202 225 -202c42 0 83 9 122 24v80h-98v127h271v-281c-70 -59 -181 -92 -292 -92c-219 0 -405 130 -405 350c0 213 171 350 412 350c135 0 227 -39 268 -56zM423 894
c44 0 80 -36 80 -80s-36 -80 -80 -80s-80 36 -80 80s36 80 80 80z" />
    <glyph glyph-name="Hbar" unicode="&#x126;" horiz-adv-x="833" 
d="M757 584h76v-91h-76v-493h-171v276h-338v-276h-172v493h-76v91h76v98h172v-98h338v98h171v-98zM586 493h-338v-85h338v85z" />
    <glyph glyph-name="Hcircumflex" unicode="&#x124;" horiz-adv-x="833" 
d="M757 682v-682h-171v276h-338v-276h-172v682h172v-274h338v274h171zM506 899l117 -170h-93l-116 103l-114 -103h-91l115 170h182z" />
    <glyph glyph-name="Ibreve" unicode="&#x12c;" 
d="M253 682v-682h-172v682h172zM-47 912h111c17 -57 58 -74 100 -74c40 0 80 15 103 74h110c-7 -77 -78 -183 -212 -183c-131 0 -206 106 -212 183z" />
    <glyph glyph-name="IJ" unicode="&#x132;" horiz-adv-x="667" 
d="M253 682v-682h-172v682h172zM594 682v-580c0 -85 0 -231 -128 -282c-50 -20 -114 -22 -164 -17v134c7 -2 12 -3 21 -3c27 0 61 7 82 42c11 19 17 42 17 141v565h172z" />
    <glyph glyph-name="Imacron" unicode="&#x12a;" 
d="M253 682v-682h-172v682h172zM386 854v-117h-440v117h440z" />
    <glyph glyph-name="Iogonek" unicode="&#x12e;" 
d="M259 -103v-89c-42 -17 -78 -17 -87 -17c-55 0 -113 33 -113 123c0 30 6 60 22 86v682h172v-682h-82c-10 -24 -14 -36 -14 -51c0 -51 46 -58 60 -58c12 0 25 3 42 6z" />
    <glyph glyph-name="Itilde" unicode="&#x128;" 
d="M253 682v-682h-172v682h172zM19 734h-74c0 90 43 160 131 160c51 0 87 -18 118 -34c17 -9 47 -24 72 -24c39 0 45 43 47 58h75c0 -89 -43 -160 -128 -160c-55 0 -96 21 -137 42c-27 14 -44 18 -59 18c-31 0 -43 -27 -45 -60z" />
    <glyph glyph-name="Jcircumflex" unicode="&#x134;" 
d="M260 682v-580c0 -85 0 -231 -127 -282c-50 -20 -114 -22 -165 -17v134c7 -2 12 -3 22 -3c26 0 61 7 81 42c12 19 18 42 18 141v565h171zM256 899l117 -170h-93l-116 103l-114 -103h-91l115 170h182z" />
    <glyph glyph-name="Kcommaaccent" unicode="&#x136;" horiz-adv-x="719" 
d="M650 682l-222 -320l302 -362h-213l-271 320v-320h-171v682h171v-309l217 309h187zM270 -229v56h29c61 0 75 10 75 36c0 34 -64 29 -84 29l5 51c82 0 220 9 220 -91c0 -51 -52 -92 -145 -92c-49 0 -83 6 -100 11z" />
    <glyph glyph-name="Lacute" unicode="&#x139;" horiz-adv-x="615" 
d="M596 127v-127h-520v682h172v-555h348zM425 918l-208 -189h-101l117 189h192z" />
    <glyph glyph-name="Lcaron" unicode="&#x13d;" horiz-adv-x="615" 
d="M596 127v-127h-520v682h172v-555h348zM374 377v30c14 18 51 61 44 128c-49 22 -50 69 -50 77c0 49 42 79 83 79c43 0 99 -34 99 -115c0 -92 -71 -188 -176 -199z" />
    <glyph glyph-name="Lcommaaccent" unicode="&#x13b;" horiz-adv-x="615" 
d="M596 127v-127h-520v682h172v-555h348zM218 -229v56h29c61 0 75 10 75 36c0 34 -64 29 -84 29l5 51c82 0 220 9 220 -91c0 -51 -52 -92 -145 -92c-49 0 -83 6 -100 11z" />
    <glyph glyph-name="Ldot" unicode="&#x13f;" horiz-adv-x="615" 
d="M596 127v-127h-520v682h173v-555h347zM416 450c44 0 80 -35 80 -80c0 -44 -35 -81 -80 -81c-44 0 -80 36 -80 81s36 80 80 80z" />
    <glyph glyph-name="Nacute" unicode="&#x143;" horiz-adv-x="840" 
d="M764 682v-682h-142l-377 422v-422h-169v682h155l365 -402v402h168zM648 918l-208 -189h-101l117 189h192z" />
    <glyph glyph-name="Ncaron" unicode="&#x147;" horiz-adv-x="840" 
d="M764 682v-682h-142l-377 422v-422h-169v682h155l365 -402v402h168zM330 729l-117 170h93l116 -104l114 104h91l-115 -170h-182z" />
    <glyph glyph-name="Ncommaaccent" unicode="&#x145;" horiz-adv-x="840" 
d="M764 682v-682h-142l-377 422v-422h-169v682h155l365 -402v402h168zM331 -229v56h29c61 0 75 10 75 36c0 34 -64 29 -84 29l5 51c82 0 220 9 220 -91c0 -51 -52 -92 -145 -92c-49 0 -83 6 -100 11z" />
    <glyph glyph-name="Obreve" unicode="&#x14e;" horiz-adv-x="875" 
d="M829 340c0 -158 -129 -349 -394 -349c-236 0 -389 171 -389 349c0 159 132 351 392 351c241 0 391 -173 391 -351zM653 336c0 127 -83 210 -216 210c-122 0 -214 -74 -214 -209c0 -163 134 -208 215 -208c109 0 215 72 215 207zM225 912h111c17 -57 58 -74 100 -74
c40 0 80 15 103 74h110c-7 -77 -78 -183 -212 -183c-131 0 -206 106 -212 183z" />
    <glyph glyph-name="Ohungarumlaut" unicode="&#x150;" horiz-adv-x="853" 
d="M818 340c0 -158 -129 -349 -394 -349c-236 0 -389 171 -389 349c0 159 132 351 392 351c241 0 391 -173 391 -351zM642 336c0 127 -83 210 -216 210c-122 0 -214 -74 -214 -209c0 -163 134 -208 215 -208c109 0 215 72 215 207zM480 918l-148 -189h-89l76 189h161z
M685 918l-147 -189h-90l77 189h160z" />
    <glyph glyph-name="Omacron" unicode="&#x14c;" horiz-adv-x="853" 
d="M818 340c0 -158 -129 -349 -394 -349c-236 0 -389 171 -389 349c0 159 132 351 392 351c241 0 391 -173 391 -351zM642 336c0 127 -83 210 -216 210c-122 0 -214 -74 -214 -209c0 -163 134 -208 215 -208c109 0 215 72 215 207zM656 854v-117h-440v117h440z" />
    <glyph glyph-name="Oslashacute" unicode="&#x1fe;" horiz-adv-x="853" 
d="M830 626l-83 -74c23 -30 77 -102 77 -211c0 -183 -154 -350 -388 -350c-124 0 -192 39 -242 69l-110 -97l-61 76l99 88c-62 77 -79 157 -79 213c0 162 134 351 392 351c135 0 222 -58 239 -73l87 77zM625 444l-314 -280c37 -23 81 -33 124 -33c121 0 214 81 214 208
c0 45 -12 76 -24 105zM244 235l314 281c-39 22 -84 32 -129 32c-112 0 -210 -70 -210 -208c0 -26 3 -66 25 -105zM633 918l-208 -189h-101l117 189h192z" />
    <glyph glyph-name="Racute" unicode="&#x154;" horiz-adv-x="677" 
d="M76 682h262c62 0 124 0 179 -34c36 -24 89 -80 89 -161c0 -114 -88 -154 -117 -168c49 -24 83 -93 98 -128c19 -39 48 -103 66 -142l23 -49h-187c-15 30 -74 165 -88 192c-46 86 -80 86 -128 86h-25v-278h-172v682zM334 558h-86v-156h71c44 2 55 2 73 12
c25 13 37 38 37 66c0 78 -76 78 -95 78zM516 918l-208 -189h-101l117 189h192z" />
    <glyph glyph-name="Rcaron" unicode="&#x158;" horiz-adv-x="677" 
d="M76 682h262c62 0 124 0 179 -34c36 -24 89 -80 89 -161c0 -114 -88 -154 -117 -168c49 -24 83 -93 98 -128c19 -39 48 -103 66 -142l23 -49h-187c-15 30 -74 165 -88 192c-46 86 -80 86 -128 86h-25v-278h-172v682zM334 558h-86v-156h71c44 2 55 2 73 12
c25 13 37 38 37 66c0 78 -76 78 -95 78zM208 729l-117 170h93l116 -104l114 104h91l-115 -170h-182z" />
    <glyph glyph-name="Rcommaaccent" unicode="&#x156;" horiz-adv-x="677" 
d="M76 682h262c62 0 124 0 179 -34c36 -24 89 -80 89 -161c0 -114 -88 -154 -117 -168c49 -24 83 -93 98 -128c19 -39 48 -103 66 -142l23 -49h-187c-15 30 -74 165 -88 192c-46 86 -80 86 -128 86h-25v-278h-172v682zM334 558h-86v-156h71c44 2 55 2 73 12
c25 13 37 38 37 66c0 78 -76 78 -95 78zM249 -229v56h29c61 0 75 10 75 36c0 34 -64 29 -84 29l5 51c82 0 220 9 220 -91c0 -51 -52 -92 -145 -92c-49 0 -83 6 -100 11z" />
    <glyph glyph-name="Sacute" unicode="&#x15a;" horiz-adv-x="604" 
d="M534 638v-140c-47 23 -132 66 -219 66c-100 0 -103 -49 -103 -56c0 -41 67 -65 165 -100c86 -31 188 -83 188 -215c0 -158 -165 -202 -267 -202c-115 0 -224 54 -241 66v147c59 -37 137 -85 237 -85c22 0 102 1 102 62c0 45 -39 59 -129 90c-98 34 -222 82 -222 226
c0 104 87 194 258 194c54 0 122 -6 231 -53zM515 918l-208 -189h-101l117 189h192z" />
    <glyph glyph-name="uni015E" unicode="&#x15e;" horiz-adv-x="604" 
d="M370 -2l-16 -19c59 -8 90 -48 90 -81c0 -41 -29 -64 -46 -75c-36 -22 -99 -22 -110 -22c-68 0 -104 10 -118 14v56c13 -1 24 -2 39 -2c17 0 74 1 74 35c0 26 -34 29 -66 29l59 59c-105 6 -201 53 -219 65v147c59 -37 137 -85 237 -85c22 0 102 1 102 62
c0 45 -39 59 -129 90c-98 34 -222 82 -222 226c0 104 87 194 258 194c54 0 122 -6 231 -53v-140c-47 23 -132 66 -219 66c-100 0 -103 -49 -103 -56c0 -41 67 -65 165 -100c86 -31 188 -83 188 -215c0 -147 -143 -186 -195 -195z" />
    <glyph glyph-name="Scircumflex" unicode="&#x15c;" horiz-adv-x="604" 
d="M534 638v-140c-47 23 -132 66 -219 66c-100 0 -103 -49 -103 -56c0 -41 67 -65 165 -100c86 -31 188 -83 188 -215c0 -158 -165 -202 -267 -202c-115 0 -224 54 -241 66v147c59 -37 137 -85 237 -85c22 0 102 1 102 62c0 45 -39 59 -129 90c-98 34 -222 82 -222 226
c0 104 87 194 258 194c54 0 122 -6 231 -53zM392 899l117 -170h-93l-116 103l-114 -103h-91l115 170h182z" />
    <glyph glyph-name="uni0218" unicode="&#x218;" horiz-adv-x="604" 
d="M534 638v-140c-47 23 -132 66 -219 66c-100 0 -103 -49 -103 -56c0 -41 67 -65 165 -100c86 -31 188 -83 188 -215c0 -158 -165 -202 -267 -202c-115 0 -224 54 -241 66v147c59 -37 137 -85 237 -85c22 0 102 1 102 62c0 45 -39 59 -129 90c-98 34 -222 82 -222 226
c0 104 87 194 258 194c54 0 122 -6 231 -53zM188 -229v56h29c61 0 75 10 75 36c0 34 -64 29 -84 29l5 51c82 0 220 9 220 -91c0 -51 -52 -92 -145 -92c-49 0 -83 6 -100 11z" />
    <glyph glyph-name="Tbar" unicode="&#x166;" horiz-adv-x="719" 
d="M446 302h171v-91h-171v-211h-173v211h-172v91h172v252h-247v128h666v-128h-246v-252z" />
    <glyph glyph-name="Tcaron" unicode="&#x164;" horiz-adv-x="719" 
d="M692 682v-128h-246v-554h-173v554h-247v128h666zM269 729l-117 170h93l116 -104l114 104h91l-115 -170h-182z" />
    <glyph glyph-name="Tcommaaccent" unicode="&#x162;" horiz-adv-x="719" 
d="M692 682v-128h-246v-554h-173v554h-247v128h666zM270 -229v56h29c61 0 75 10 75 36c0 34 -64 29 -84 29l5 51c82 0 220 9 220 -91c0 -51 -52 -92 -145 -92c-49 0 -83 6 -100 11z" />
    <glyph glyph-name="Ubreve" unicode="&#x16c;" horiz-adv-x="823" 
d="M754 682v-371c0 -54 -1 -139 -59 -210c-70 -84 -182 -110 -287 -110c-53 0 -195 2 -287 121c-27 36 -52 84 -52 194v376h172v-338c0 -28 0 -68 12 -106c22 -76 91 -110 158 -110c99 0 145 65 159 100c12 30 12 56 12 116v338h172zM199 912h111c17 -57 58 -74 100 -74
c40 0 80 15 103 74h110c-7 -77 -78 -183 -212 -183c-131 0 -206 106 -212 183z" />
    <glyph glyph-name="Uhungarumlaut" unicode="&#x170;" horiz-adv-x="823" 
d="M754 682v-371c0 -54 -1 -139 -59 -210c-70 -84 -182 -110 -287 -110c-53 0 -195 2 -287 121c-27 36 -52 84 -52 194v376h172v-338c0 -28 0 -68 12 -106c22 -76 91 -110 158 -110c99 0 145 65 159 100c12 30 12 56 12 116v338h172zM465 918l-148 -189h-89l76 189h161z
M670 918l-147 -189h-90l77 189h160z" />
    <glyph glyph-name="Umacron" unicode="&#x16a;" horiz-adv-x="823" 
d="M754 682v-371c0 -54 -1 -139 -59 -210c-70 -84 -182 -110 -287 -110c-53 0 -195 2 -287 121c-27 36 -52 84 -52 194v376h172v-338c0 -28 0 -68 12 -106c22 -76 91 -110 158 -110c99 0 145 65 159 100c12 30 12 56 12 116v338h172zM631 854v-117h-440v117h440z" />
    <glyph glyph-name="Uogonek" unicode="&#x172;" horiz-adv-x="823" 
d="M721 -103v-89c-41 -17 -77 -17 -87 -17c-37 0 -112 19 -112 125c0 45 11 68 27 93c-27 -8 -70 -18 -142 -18c-52 0 -194 2 -286 121c-27 36 -52 84 -52 194v376h172v-338c0 -28 0 -68 12 -106c22 -76 91 -110 158 -110c100 0 145 66 159 100c12 30 12 56 12 116v338h172
v-371c0 -92 -9 -149 -78 -245c-36 -50 -56 -78 -56 -117c0 -37 30 -58 63 -58c15 0 28 3 38 6z" />
    <glyph glyph-name="Uring" unicode="&#x16e;" horiz-adv-x="823" 
d="M754 682v-371c0 -54 -1 -139 -59 -210c-70 -84 -182 -110 -287 -110c-53 0 -195 2 -287 121c-27 36 -52 84 -52 194v376h172v-338c0 -28 0 -68 12 -106c22 -76 91 -110 158 -110c99 0 145 65 159 100c12 30 12 56 12 116v338h172zM411 957c61 0 114 -50 114 -114
s-51 -114 -114 -114s-114 50 -114 114s52 114 114 114zM411 904c-34 0 -61 -27 -61 -61c0 -35 27 -62 61 -62s61 28 61 62c0 33 -27 61 -61 61z" />
    <glyph glyph-name="Utilde" unicode="&#x168;" horiz-adv-x="823" 
d="M754 682v-371c0 -54 -1 -139 -59 -210c-70 -84 -182 -110 -287 -110c-53 0 -195 2 -287 121c-27 36 -52 84 -52 194v376h172v-338c0 -28 0 -68 12 -106c22 -76 91 -110 158 -110c99 0 145 65 159 100c12 30 12 56 12 116v338h172zM264 734h-74c0 90 43 160 131 160
c51 0 87 -18 118 -34c17 -9 47 -24 72 -24c39 0 45 43 47 58h75c0 -89 -43 -160 -128 -160c-55 0 -96 21 -137 42c-27 14 -44 18 -59 18c-31 0 -43 -27 -45 -60z" />
    <glyph glyph-name="Wacute" unicode="&#x1e82;" horiz-adv-x="1167" 
d="M1167 682l-301 -691h-73l-210 445l-211 -445h-73l-300 691h180l161 -377l175 377h139l171 -377l162 377h180zM781 918l-208 -189h-101l117 189h192z" />
    <glyph glyph-name="Wcircumflex" unicode="&#x174;" horiz-adv-x="1167" 
d="M1167 682l-301 -691h-73l-210 445l-211 -445h-73l-300 691h180l161 -377l175 377h139l171 -377l162 377h180zM673 899l117 -170h-93l-116 103l-114 -103h-91l115 170h182z" />
    <glyph glyph-name="Wdieresis" unicode="&#x1e84;" horiz-adv-x="1167" 
d="M1167 682l-301 -691h-73l-210 445l-211 -445h-73l-300 691h180l161 -377l175 377h139l171 -377l162 377h180zM726 894c44 0 80 -36 80 -80s-36 -80 -80 -80s-80 36 -80 80s36 80 80 80zM441 894c44 0 80 -36 80 -80s-36 -80 -80 -80s-80 36 -80 80s36 80 80 80z" />
    <glyph glyph-name="Wgrave" unicode="&#x1e80;" horiz-adv-x="1167" 
d="M1167 682l-301 -691h-73l-210 445l-211 -445h-73l-300 691h180l161 -377l175 377h139l171 -377l162 377h180zM386 918h192l117 -189h-101z" />
    <glyph glyph-name="Ycircumflex" unicode="&#x176;" horiz-adv-x="708" 
d="M709 682l-269 -363v-319h-171v319l-269 363h205l150 -214l150 214h204zM443 899l117 -170h-93l-116 103l-114 -103h-91l115 170h182z" />
    <glyph glyph-name="Ygrave" unicode="&#x1ef2;" horiz-adv-x="708" 
d="M709 682l-269 -363v-319h-171v319l-269 363h205l150 -214l150 214h204zM127 918h192l117 -189h-101z" />
    <glyph glyph-name="Zacute" unicode="&#x179;" horiz-adv-x="698" 
d="M666 682l-372 -554h372v-128h-662l375 554h-349v128h636zM547 918l-208 -189h-101l117 189h192z" />
    <glyph glyph-name="Zdotaccent" unicode="&#x17b;" horiz-adv-x="698" 
d="M666 682l-372 -554h372v-128h-662l375 554h-349v128h636zM349 894c44 0 80 -36 80 -80s-36 -80 -80 -80s-80 36 -80 80s36 80 80 80z" />
    <glyph glyph-name="Idotaccent" unicode="&#x130;" 
d="M253 682v-682h-172v682h172zM166 894c44 0 80 -36 80 -80s-36 -80 -80 -80s-80 36 -80 80s36 80 80 80z" />
    <glyph glyph-name="abreve" unicode="&#x103;" horiz-adv-x="531" 
d="M532 114v-81c-34 -21 -92 -42 -136 -42c-68 0 -77 33 -82 51c-34 -22 -81 -51 -152 -51c-69 0 -129 47 -129 121c0 92 94 125 128 137c23 8 125 41 146 47c0 24 1 78 -79 78c-90 0 -157 -62 -171 -78v118c67 42 137 56 201 56c23 0 140 -1 181 -75c7 -12 14 -28 14 -84
v-182c0 -16 0 -37 23 -37c15 0 30 8 56 22zM307 112v111c-10 -4 -62 -24 -73 -29c-13 -6 -54 -26 -54 -67c0 -32 26 -49 46 -49c4 0 44 0 81 34zM63 689h100c10 -46 52 -62 82 -62c42 0 71 18 84 62h99c-5 -58 -62 -171 -180 -171c-100 0 -161 68 -185 171z" />
    <glyph glyph-name="amacron" unicode="&#x101;" horiz-adv-x="531" 
d="M532 114v-81c-34 -21 -92 -42 -136 -42c-68 0 -77 33 -82 51c-34 -22 -81 -51 -152 -51c-69 0 -129 47 -129 121c0 92 94 125 128 137c23 8 125 41 146 47c0 24 1 78 -79 78c-90 0 -157 -62 -171 -78v118c67 42 137 56 201 56c23 0 140 -1 181 -75c7 -12 14 -28 14 -84
v-182c0 -16 0 -37 23 -37c15 0 30 8 56 22zM307 112v111c-10 -4 -62 -24 -73 -29c-13 -6 -54 -26 -54 -67c0 -32 26 -49 46 -49c4 0 44 0 81 34zM439 642v-100h-387v100h387z" />
    <glyph glyph-name="aogonek" unicode="&#x105;" horiz-adv-x="531" 
d="M524 -93v-80c-37 -15 -70 -15 -76 -15c-85 0 -104 67 -104 109c0 8 0 39 17 74c-28 8 -40 19 -47 47c-34 -22 -81 -51 -152 -51c-69 0 -129 47 -129 121c0 92 94 125 128 137c23 8 125 41 146 47c0 24 1 78 -79 78c-90 0 -157 -62 -171 -78v118c67 42 137 56 201 56
c23 0 140 -1 181 -75c7 -12 14 -28 14 -84v-182c0 -16 0 -37 23 -37c15 0 30 8 56 22v-81c-35 -21 -72 -32 -88 -36c-8 -19 -11 -30 -11 -42c0 -41 36 -53 57 -53c10 0 21 2 34 5zM307 112v111c-10 -4 -62 -24 -73 -29c-13 -6 -54 -26 -54 -67c0 -32 26 -49 46 -49
c4 0 44 0 81 34z" />
    <glyph glyph-name="aeacute" unicode="&#x1fd;" horiz-adv-x="781" 
d="M741 149v-95c-67 -49 -136 -63 -200 -63c-71 0 -142 22 -187 63c-37 -25 -93 -63 -185 -63c-111 0 -133 82 -133 117c0 53 38 97 78 119c61 33 179 64 200 69c0 13 1 21 -2 31c-12 40 -61 48 -80 48c-78 0 -153 -57 -176 -79v115c79 45 135 59 194 59
c70 0 107 -22 146 -51c21 18 61 51 137 51c127 0 182 -101 194 -129c17 -41 21 -89 21 -133h-289c-4 -93 54 -128 116 -128c78 0 137 46 166 69zM459 285h150c-5 62 -31 96 -77 96c-49 0 -71 -39 -73 -96zM314 110v113c-31 -9 -131 -38 -131 -99c0 -24 17 -48 45 -48
c35 0 71 23 86 34zM543 664l-164 -146h-75l75 146h164z" />
    <glyph glyph-name="cacute" unicode="&#x107;" horiz-adv-x="497" 
d="M460 126v-104c-24 -9 -84 -31 -156 -31c-150 0 -267 83 -267 238c0 162 133 241 261 241c44 0 105 -11 155 -30v-108c-23 12 -69 31 -118 31c-113 0 -143 -80 -143 -133c0 -67 42 -136 135 -136c43 0 77 12 133 32zM430 664l-164 -146h-75l75 146h164z" />
    <glyph glyph-name="ccaron" unicode="&#x10d;" horiz-adv-x="497" 
d="M460 126v-104c-24 -9 -84 -31 -156 -31c-150 0 -267 83 -267 238c0 162 133 241 261 241c44 0 105 -11 155 -30v-108c-23 12 -69 31 -118 31c-113 0 -143 -80 -143 -133c0 -67 42 -136 135 -136c43 0 77 12 133 32zM204 518l-99 175h89l78 -93l80 93h88l-99 -175h-137z
" />
    <glyph glyph-name="ccircumflex" unicode="&#x109;" horiz-adv-x="500" 
d="M463 126v-104c-24 -9 -84 -31 -156 -31c-150 0 -267 83 -267 238c0 162 133 241 261 241c44 0 105 -11 155 -30v-108c-23 12 -69 31 -118 31c-113 0 -143 -80 -143 -133c0 -67 42 -136 135 -136c43 0 77 12 133 32zM334 693l99 -175h-89l-78 87l-80 -87h-88l99 175h137z
" />
    <glyph glyph-name="cdotaccent" unicode="&#x10b;" horiz-adv-x="500" 
d="M463 126v-104c-24 -9 -84 -31 -156 -31c-150 0 -267 83 -267 238c0 162 133 241 261 241c44 0 105 -11 155 -30v-108c-23 12 -69 31 -118 31c-113 0 -143 -80 -143 -133c0 -67 42 -136 135 -136c43 0 77 12 133 32zM266 657c35 0 65 -28 65 -65c0 -35 -29 -65 -65 -65
c-37 0 -65 30 -65 65c0 36 29 65 65 65z" />
    <glyph glyph-name="dcaron" unicode="&#x10f;" horiz-adv-x="698" 
d="M524 682v-682h-144v37c-18 -14 -58 -46 -128 -46c-99 0 -214 76 -214 240c0 153 102 239 222 239c30 0 73 -5 120 -29v241h144zM380 126v220c-5 4 -40 27 -80 27c-33 0 -60 -13 -79 -32c-16 -17 -35 -43 -35 -112c0 -127 87 -136 109 -136c43 0 69 21 85 33zM566 408v28
c13 15 46 54 40 114c-45 21 -45 63 -45 70c0 43 38 71 75 71c38 0 88 -30 88 -104c0 -80 -61 -168 -158 -179z" />
    <glyph glyph-name="dcroat" unicode="&#x111;" horiz-adv-x="583" 
d="M523 608h55v-73h-55v-535h-144v37c-18 -14 -58 -46 -128 -46c-99 0 -215 76 -215 240c0 153 103 239 223 239c30 0 73 -5 120 -29v94h-88v73h88v74h144v-74zM379 126v220c-5 4 -40 27 -81 27c-32 0 -59 -13 -78 -32c-16 -17 -35 -43 -35 -112c0 -127 86 -136 109 -136
c43 0 69 21 85 33z" />
    <glyph glyph-name="ebreve" unicode="&#x115;" horiz-adv-x="564" 
d="M510 145v-93c-85 -60 -177 -61 -210 -61c-204 0 -263 140 -263 239c0 148 115 240 244 240c96 0 240 -57 237 -263h-331c6 -84 63 -126 153 -126c83 0 125 31 170 64zM190 283h200c-4 41 -31 99 -100 99c-71 0 -97 -59 -100 -99zM94 689h100c10 -46 52 -62 82 -62
c42 0 71 18 84 62h99c-5 -58 -62 -171 -180 -171c-100 0 -161 68 -185 171z" />
    <glyph glyph-name="ecaron" unicode="&#x11b;" horiz-adv-x="564" 
d="M510 145v-93c-85 -60 -177 -61 -210 -61c-204 0 -263 140 -263 239c0 148 115 240 244 240c96 0 240 -57 237 -263h-331c6 -84 63 -126 153 -126c83 0 125 31 170 64zM190 283h200c-4 41 -31 99 -100 99c-71 0 -97 -59 -100 -99zM223 518l-99 175h89l78 -93l80 93h88
l-99 -175h-137z" />
    <glyph glyph-name="edotaccent" unicode="&#x117;" horiz-adv-x="564" 
d="M510 145v-93c-85 -60 -177 -61 -210 -61c-204 0 -263 140 -263 239c0 148 115 240 244 240c96 0 240 -57 237 -263h-331c6 -84 63 -126 153 -126c83 0 125 31 170 64zM190 283h200c-4 41 -31 99 -100 99c-71 0 -97 -59 -100 -99zM287 657c35 0 65 -28 65 -65
c0 -35 -29 -65 -65 -65c-37 0 -65 30 -65 65c0 36 29 65 65 65z" />
    <glyph glyph-name="emacron" unicode="&#x113;" horiz-adv-x="564" 
d="M510 145v-93c-85 -60 -177 -61 -210 -61c-204 0 -263 140 -263 239c0 148 115 240 244 240c96 0 240 -57 237 -263h-331c6 -84 63 -126 153 -126c83 0 125 31 170 64zM190 283h200c-4 41 -31 99 -100 99c-71 0 -97 -59 -100 -99zM485 642v-100h-387v100h387z" />
    <glyph glyph-name="eng" unicode="&#x14b;" horiz-adv-x="583" 
d="M524 272v-231c0 -51 0 -116 -29 -171c-30 -55 -82 -95 -144 -99l-46 130c67 11 73 76 73 138v221c0 29 0 49 -6 66c-11 28 -37 43 -66 43c-57 0 -95 -62 -100 -72v-297h-145v461h145v-66c39 45 83 75 149 75c86 0 131 -49 152 -90c17 -34 17 -67 17 -108z" />
    <glyph glyph-name="eogonek" unicode="&#x119;" horiz-adv-x="564" 
d="M506 -93v-80c-37 -15 -70 -15 -78 -15c-70 0 -102 54 -102 111c0 7 0 38 16 70c-10 -1 -17 -2 -37 -2c-67 0 -123 9 -176 48c-34 26 -92 83 -92 191c0 148 115 240 244 240c96 0 240 -57 237 -263h-331c6 -84 63 -126 153 -126c83 0 125 31 170 64v-93
c-26 -18 -46 -28 -78 -40c-9 -21 -17 -39 -17 -59c0 -35 32 -51 56 -51c11 0 23 2 35 5zM190 283h200c-4 41 -31 99 -100 99c-71 0 -97 -59 -100 -99z" />
    <glyph glyph-name="gbreve" unicode="&#x11f;" horiz-adv-x="542" 
d="M531 461v-96h-67c10 -16 23 -38 23 -78c0 -21 -6 -115 -127 -147c-27 -7 -44 -9 -84 -11c-38 -3 -45 -23 -45 -31c0 -24 35 -28 104 -33c64 -4 179 -29 179 -142c0 -85 -70 -120 -94 -130c-40 -17 -76 -23 -143 -23c-40 0 -99 1 -148 18c-58 21 -101 61 -101 116
c0 39 22 90 124 116c-32 10 -57 28 -57 61c0 49 55 62 85 69c-59 10 -129 59 -129 144c0 80 52 123 90 142c49 25 104 25 134 25h256zM354 294c0 39 -32 81 -85 81c-57 0 -82 -50 -82 -84c0 -45 38 -82 83 -82c52 0 84 45 84 85zM385 -86c0 51 -94 51 -110 51
c-18 0 -113 0 -113 -56c0 -14 10 -53 111 -53c51 0 68 7 85 17s27 28 27 41zM104 689h100c10 -46 52 -62 82 -62c42 0 71 18 84 62h99c-5 -58 -62 -171 -180 -171c-100 0 -161 68 -185 171z" />
    <glyph glyph-name="gcircumflex" unicode="&#x11d;" horiz-adv-x="542" 
d="M531 461v-96h-67c10 -16 23 -38 23 -78c0 -21 -6 -115 -127 -147c-27 -7 -44 -9 -84 -11c-38 -3 -45 -23 -45 -31c0 -24 35 -28 104 -33c64 -4 179 -29 179 -142c0 -85 -70 -120 -94 -130c-40 -17 -76 -23 -143 -23c-40 0 -99 1 -148 18c-58 21 -101 61 -101 116
c0 39 22 90 124 116c-32 10 -57 28 -57 61c0 49 55 62 85 69c-59 10 -129 59 -129 144c0 80 52 123 90 142c49 25 104 25 134 25h256zM354 294c0 39 -32 81 -85 81c-57 0 -82 -50 -82 -84c0 -45 38 -82 83 -82c52 0 84 45 84 85zM385 -86c0 51 -94 51 -110 51
c-18 0 -113 0 -113 -56c0 -14 10 -53 111 -53c51 0 68 7 85 17s27 28 27 41zM340 693l99 -175h-89l-78 87l-80 -87h-88l99 175h137z" />
    <glyph glyph-name="gcommaaccent" unicode="&#x123;" horiz-adv-x="542" 
d="M531 461v-96h-67c10 -16 23 -38 23 -78c0 -21 -6 -115 -127 -147c-27 -7 -44 -9 -84 -11c-38 -3 -45 -23 -45 -31c0 -24 35 -28 104 -33c64 -4 179 -29 179 -142c0 -85 -70 -120 -94 -130c-40 -17 -76 -23 -143 -23c-40 0 -99 1 -148 18c-58 21 -101 61 -101 116
c0 39 22 90 124 116c-32 10 -57 28 -57 61c0 49 55 62 85 69c-59 10 -129 59 -129 144c0 80 52 123 90 142c49 25 104 25 134 25h256zM354 294c0 39 -32 81 -85 81c-57 0 -82 -50 -82 -84c0 -45 38 -82 83 -82c52 0 84 45 84 85zM385 -86c0 51 -94 51 -110 51
c-18 0 -113 0 -113 -56c0 -14 10 -53 111 -53c51 0 68 7 85 17s27 28 27 41zM370 725v-22c-11 -12 -37 -44 -33 -94c35 -15 37 -47 37 -55c0 -35 -31 -57 -60 -57c-32 0 -73 25 -73 84c0 70 56 138 129 144z" />
    <glyph glyph-name="gdotaccent" unicode="&#x121;" horiz-adv-x="542" 
d="M531 461v-96h-67c10 -16 23 -38 23 -78c0 -21 -6 -115 -127 -147c-27 -7 -44 -9 -84 -11c-38 -3 -45 -23 -45 -31c0 -24 35 -28 104 -33c64 -4 179 -29 179 -142c0 -85 -70 -120 -94 -130c-40 -17 -76 -23 -143 -23c-40 0 -99 1 -148 18c-58 21 -101 61 -101 116
c0 39 22 90 124 116c-32 10 -57 28 -57 61c0 49 55 62 85 69c-59 10 -129 59 -129 144c0 80 52 123 90 142c49 25 104 25 134 25h256zM354 294c0 39 -32 81 -85 81c-57 0 -82 -50 -82 -84c0 -45 38 -82 83 -82c52 0 84 45 84 85zM385 -86c0 51 -94 51 -110 51
c-18 0 -113 0 -113 -56c0 -14 10 -53 111 -53c51 0 68 7 85 17s27 28 27 41zM272 657c35 0 65 -28 65 -65c0 -35 -29 -65 -65 -65c-37 0 -65 30 -65 65c0 36 29 65 65 65z" />
    <glyph glyph-name="hbar" unicode="&#x127;" horiz-adv-x="583" 
d="M210 589h171v-72h-171v-124c56 69 110 77 147 77c35 0 93 -8 134 -68c25 -37 32 -71 32 -122v-280h-144v249c0 36 0 115 -74 115c-40 0 -76 -33 -95 -70v-294h-148v517h-62v72h62v93h148v-93z" />
    <glyph glyph-name="hcircumflex" unicode="&#x125;" horiz-adv-x="583" 
d="M210 682v-289c56 69 110 77 147 77c35 0 93 -8 134 -68c25 -37 32 -71 32 -122v-280h-144v249c0 36 0 115 -74 115c-40 0 -76 -33 -95 -70v-294h-148v682h148zM360 905l99 -175h-89l-78 87l-80 -87h-88l99 175h137z" />
    <glyph glyph-name="ibreve" unicode="&#x12d;" horiz-adv-x="271" 
d="M209 461v-461h-144v461h144zM-47 689h100c10 -46 52 -62 82 -62c42 0 71 18 84 62h99c-5 -58 -62 -171 -180 -171c-100 0 -161 68 -185 171z" />
    <glyph glyph-name="ij" unicode="&#x133;" horiz-adv-x="542" 
d="M203 461v-461h-139v461h139zM137 692c43 0 79 -34 79 -79s-36 -80 -79 -80c-44 0 -80 35 -80 80s37 79 80 79zM481 461v-420c0 -69 0 -138 -46 -200c-29 -40 -80 -68 -127 -70l-46 130c70 11 75 77 75 140v420h144zM407 693c44 0 80 -36 80 -80c0 -43 -35 -79 -80 -79
c-44 0 -79 36 -79 79c0 44 35 80 79 80z" />
    <glyph glyph-name="imacron" unicode="&#x12b;" horiz-adv-x="274" 
d="M206 461v-461h-144v461h144zM326 642v-100h-387v100h387z" />
    <glyph glyph-name="iogonek" unicode="&#x12f;" horiz-adv-x="269" 
d="M222 -93v-80c-37 -15 -70 -15 -76 -15c-84 0 -104 66 -104 109c0 22 6 55 20 79v461h139v-461h-58c-12 -25 -12 -40 -12 -46c0 -27 19 -52 52 -52c13 0 28 3 39 5zM135 692c43 0 79 -34 79 -79s-36 -80 -79 -80c-44 0 -80 35 -80 80s37 79 80 79z" />
    <glyph glyph-name="itilde" unicode="&#x129;" horiz-adv-x="271" 
d="M209 461v-461h-144v461h144zM7 520h-66c4 48 23 149 119 149c31 0 51 -10 91 -30c38 -19 52 -24 67 -24c20 0 37 10 44 54h68c-5 -78 -36 -151 -117 -151c-31 0 -73 21 -87 28c-40 20 -53 28 -74 28c-34 0 -43 -35 -45 -54z" />
    <glyph glyph-name="jcircumflex" unicode="&#x135;" horiz-adv-x="271" 
d="M210 461v-420c0 -69 0 -138 -46 -200c-29 -40 -79 -68 -127 -70l-46 130c70 11 75 77 75 140v420h144zM202 682l98 -175h-89l-77 87l-80 -87h-88l99 175h137z" />
    <glyph glyph-name="kcommaaccent" unicode="&#x137;" horiz-adv-x="568" 
d="M209 682v-449l182 228h169l-180 -228l188 -233h-177l-182 227v-227h-146v682h146zM189 -169v50c79 -3 77 7 77 20c0 9 -11 22 -41 22v47c120 0 148 -31 148 -72s-36 -77 -106 -77c-31 0 -58 5 -78 10z" />
    <glyph glyph-name="lacute" unicode="&#x13a;" horiz-adv-x="270" 
d="M208 682v-682h-146v682h146zM285 876l-164 -146h-75l75 146h164z" />
    <glyph glyph-name="lcaron" unicode="&#x13e;" horiz-adv-x="385" 
d="M211 682v-682h-145v682h145zM254 408v28c13 15 46 54 40 114c-45 21 -45 63 -45 70c0 43 38 71 75 71c38 0 88 -30 88 -104c0 -80 -61 -168 -158 -179z" />
    <glyph glyph-name="lcommaaccent" unicode="&#x13c;" horiz-adv-x="270" 
d="M208 682v-682h-146v682h146zM45 -169v50c79 -3 77 7 77 20c0 9 -11 22 -41 22v47c120 0 148 -31 148 -72s-36 -77 -106 -77c-31 0 -58 5 -78 10z" />
    <glyph glyph-name="ldot" unicode="&#x140;" horiz-adv-x="427" 
d="M207 682v-682h-145v682h145zM340 427c44 0 81 -35 81 -80c0 -44 -36 -81 -81 -81c-44 0 -80 37 -80 81c0 45 37 80 80 80z" />
    <glyph glyph-name="nacute" unicode="&#x144;" horiz-adv-x="588" 
d="M207 461v-66c39 45 83 75 150 75c85 0 131 -49 151 -90c17 -34 18 -67 18 -108v-272h-146v260c0 29 0 49 -7 66c-10 28 -36 43 -65 43c-58 0 -95 -62 -101 -72v-297h-145v461h145zM461 664l-164 -146h-75l75 146h164z" />
    <glyph glyph-name="ncaron" unicode="&#x148;" horiz-adv-x="588" 
d="M207 461v-66c39 45 83 75 150 75c85 0 131 -49 151 -90c17 -34 18 -67 18 -108v-272h-146v260c0 29 0 49 -7 66c-10 28 -36 43 -65 43c-58 0 -95 -62 -101 -72v-297h-145v461h145zM225 518l-99 175h89l78 -93l80 93h88l-99 -175h-137z" />
    <glyph glyph-name="ncommaaccent" unicode="&#x146;" horiz-adv-x="588" 
d="M207 461v-66c39 45 83 75 150 75c85 0 131 -49 151 -90c17 -34 18 -67 18 -108v-272h-146v260c0 29 0 49 -7 66c-10 28 -36 43 -65 43c-58 0 -95 -62 -101 -72v-297h-145v461h145zM206 -169v50c79 -3 77 7 77 20c0 9 -11 22 -41 22v47c120 0 148 -31 148 -72
s-36 -77 -106 -77c-31 0 -58 5 -78 10z" />
    <glyph glyph-name="obreve" unicode="&#x14f;" horiz-adv-x="594" 
d="M556 229c0 -180 -152 -238 -258 -238c-141 0 -261 87 -261 237c0 144 117 242 262 242c105 0 257 -59 257 -241zM401 238c0 32 0 143 -107 143c-101 0 -101 -114 -101 -156c0 -28 0 -144 105 -144c103 0 103 120 103 157zM115 689h100c10 -46 52 -62 82 -62
c42 0 71 18 84 62h99c-5 -58 -62 -171 -180 -171c-100 0 -161 68 -185 171z" />
    <glyph glyph-name="ohungarumlaut" unicode="&#x151;" horiz-adv-x="594" 
d="M556 229c0 -180 -152 -238 -258 -238c-141 0 -261 87 -261 237c0 144 117 242 262 242c105 0 257 -59 257 -241zM401 238c0 32 0 143 -107 143c-101 0 -101 -114 -101 -156c0 -28 0 -144 105 -144c103 0 103 120 103 157zM381 663l-130 -145h-72l53 145h149zM569 663
l-130 -145h-72l52 145h150z" />
    <glyph glyph-name="omacron" unicode="&#x14d;" horiz-adv-x="594" 
d="M556 229c0 -180 -152 -238 -258 -238c-141 0 -261 87 -261 237c0 144 117 242 262 242c105 0 257 -59 257 -241zM401 238c0 32 0 143 -107 143c-101 0 -101 -114 -101 -156c0 -28 0 -144 105 -144c103 0 103 120 103 157zM501 642v-100h-387v100h387z" />
    <glyph glyph-name="oslashacute" unicode="&#x1ff;" horiz-adv-x="594" 
d="M552 471l-62 -71c30 -34 68 -75 68 -168c0 -185 -158 -241 -257 -241c-64 0 -116 21 -137 29l-65 -74l-51 45l60 69c-72 68 -72 159 -72 172c0 115 88 238 266 238c63 0 96 -14 132 -29l65 81zM397 290l-161 -188c7 -5 26 -20 61 -20c103 0 103 113 103 153
c0 34 -1 43 -3 55zM199 167l164 191c-21 14 -45 22 -70 22c-26 0 -78 -11 -94 -85c-2 -7 -7 -30 -7 -67s5 -51 7 -61zM450 664l-164 -146h-75l75 146h164z" />
    <glyph glyph-name="racute" unicode="&#x155;" horiz-adv-x="448" 
d="M209 461v-132c49 103 97 141 149 141c34 0 62 -17 96 -42l-40 -128c-15 10 -48 34 -85 34c-54 0 -82 -45 -108 -101c-2 -5 -10 -30 -12 -34v-199h-145v461h145zM407 664l-164 -146h-75l75 146h164z" />
    <glyph glyph-name="rcaron" unicode="&#x159;" horiz-adv-x="448" 
d="M209 461v-132c49 103 97 141 149 141c34 0 62 -17 96 -42l-40 -128c-15 10 -48 34 -85 34c-54 0 -82 -45 -108 -101c-2 -5 -10 -30 -12 -34v-199h-145v461h145zM186 518l-99 175h89l78 -93l80 93h88l-99 -175h-137z" />
    <glyph glyph-name="rcommaaccent" unicode="&#x157;" horiz-adv-x="448" 
d="M209 461v-132c49 103 97 141 149 141c34 0 62 -17 96 -42l-40 -128c-15 10 -48 34 -85 34c-54 0 -82 -45 -108 -101c-2 -5 -10 -30 -12 -34v-199h-145v461h145zM87 -169v50c79 -3 77 7 77 20c0 9 -11 22 -41 22v47c120 0 148 -31 148 -72s-36 -77 -106 -77
c-31 0 -58 5 -78 10z" />
    <glyph glyph-name="sacute" unicode="&#x15b;" horiz-adv-x="427" 
d="M377 436v-103c-50 27 -99 45 -143 45c-13 0 -64 -2 -64 -32c0 -18 10 -25 57 -45c91 -36 173 -70 173 -163c0 -94 -70 -147 -188 -147c-72 0 -142 21 -165 34v102c73 -38 120 -43 147 -43c48 0 70 16 70 35c0 26 -18 33 -88 62c-47 20 -58 25 -77 36
c-36 22 -61 61 -61 110c0 78 66 143 188 143c83 0 128 -22 151 -34zM381 664l-164 -146h-75l75 146h164z" />
    <glyph glyph-name="uni015F" unicode="&#x15f;" horiz-adv-x="427" 
d="M259 -6l-9 -23c15 -5 77 -23 77 -81c0 -78 -94 -88 -141 -88c-17 0 -59 6 -76 9v58c32 -2 95 -5 95 32c0 28 -37 30 -51 31l28 60c-38 3 -104 16 -135 33v102c73 -38 120 -43 147 -43c48 0 70 16 70 35c0 26 -18 33 -88 62c-47 20 -58 25 -77 36c-36 22 -61 61 -61 110
c0 78 66 143 188 143c83 0 128 -22 151 -34v-103c-50 27 -99 45 -143 45c-13 0 -64 -2 -64 -32c0 -18 10 -25 57 -45c91 -36 173 -70 173 -163c0 -78 -49 -131 -141 -144z" />
    <glyph glyph-name="scircumflex" unicode="&#x15d;" horiz-adv-x="427" 
d="M377 436v-103c-50 27 -99 45 -143 45c-13 0 -64 -2 -64 -32c0 -18 10 -25 57 -45c91 -36 173 -70 173 -163c0 -94 -70 -147 -188 -147c-72 0 -142 21 -165 34v102c73 -38 120 -43 147 -43c48 0 70 16 70 35c0 26 -18 33 -88 62c-47 20 -58 25 -77 36
c-36 22 -61 61 -61 110c0 78 66 143 188 143c83 0 128 -22 151 -34zM282 693l99 -175h-89l-78 87l-80 -87h-88l99 175h137z" />
    <glyph glyph-name="uni0219" unicode="&#x219;" horiz-adv-x="427" 
d="M377 436v-103c-50 27 -99 45 -143 45c-13 0 -64 -2 -64 -32c0 -18 10 -25 57 -45c91 -36 173 -70 173 -163c0 -94 -70 -147 -188 -147c-72 0 -142 21 -165 34v102c73 -38 120 -43 147 -43c48 0 70 16 70 35c0 26 -18 33 -88 62c-47 20 -58 25 -77 36
c-36 22 -61 61 -61 110c0 78 66 143 188 143c83 0 128 -22 151 -34zM111 -169v50c79 -3 77 7 77 20c0 9 -11 22 -41 22v47c120 0 148 -31 148 -72s-36 -77 -106 -77c-31 0 -58 5 -78 10z" />
    <glyph glyph-name="tbar" unicode="&#x167;" horiz-adv-x="406" 
d="M225 297h166v-72h-166c-1 -62 -3 -127 69 -127c39 0 66 12 97 27v-105c-26 -10 -70 -29 -135 -29c-58 0 -116 22 -150 69c-22 31 -28 65 -28 134v31h-66v72h66v64h-66v27l193 218h20v-145h166v-100h-166v-64z" />
    <glyph glyph-name="tcaron" unicode="&#x165;" horiz-adv-x="563" 
d="M393 461v-100h-166v-101c0 -72 0 -88 4 -112c9 -46 50 -50 65 -50c39 0 66 12 97 27v-105c-26 -10 -70 -29 -135 -29c-58 0 -116 22 -149 69c-23 31 -28 65 -28 134v167h-67v27l193 218h20v-145h166zM430 408v28c13 15 45 54 40 114c-45 21 -46 63 -46 70
c0 43 38 71 75 71c39 0 89 -30 89 -104c0 -80 -61 -168 -158 -179z" />
    <glyph glyph-name="tcommaaccent" unicode="&#x163;" horiz-adv-x="406" 
d="M391 461v-100h-166v-101c0 -72 0 -88 4 -112c8 -46 50 -50 65 -50c39 0 66 12 97 27v-105c-26 -10 -70 -29 -135 -29c-58 0 -116 22 -150 69c-22 31 -28 65 -28 134v167h-66v27l193 218h20v-145h166zM141 -169v50c79 -3 77 7 77 20c0 9 -11 22 -41 22v47
c120 0 148 -31 148 -72s-36 -77 -106 -77c-31 0 -58 5 -78 10z" />
    <glyph glyph-name="ubreve" unicode="&#x16d;" horiz-adv-x="583" 
d="M521 461v-461h-146v66c-50 -71 -117 -75 -146 -75c-93 0 -141 58 -158 102c-10 28 -10 55 -10 80v288h146v-246c0 -56 0 -123 70 -123c18 0 59 5 98 65v304h146zM109 689h100c10 -46 52 -62 82 -62c42 0 71 18 84 62h99c-5 -58 -62 -171 -180 -171
c-100 0 -161 68 -185 171z" />
    <glyph glyph-name="uhungarumlaut" unicode="&#x171;" horiz-adv-x="583" 
d="M521 461v-461h-146v66c-50 -71 -117 -75 -146 -75c-93 0 -141 58 -158 102c-10 28 -10 55 -10 80v288h146v-246c0 -56 0 -123 70 -123c18 0 59 5 98 65v304h146zM375 663l-130 -145h-72l53 145h149zM563 663l-130 -145h-72l52 145h150z" />
    <glyph glyph-name="umacron" unicode="&#x16b;" horiz-adv-x="583" 
d="M521 461v-461h-146v66c-50 -71 -117 -75 -146 -75c-93 0 -141 58 -158 102c-10 28 -10 55 -10 80v288h146v-246c0 -56 0 -123 70 -123c18 0 59 5 98 65v304h146zM485 642v-100h-387v100h387z" />
    <glyph glyph-name="uogonek" unicode="&#x173;" horiz-adv-x="583" 
d="M535 -93v-80c-37 -15 -70 -15 -78 -15c-61 0 -102 46 -102 109c0 21 5 53 20 79v66c-50 -71 -117 -75 -146 -75c-93 0 -141 58 -158 102c-10 28 -10 55 -10 80v288h146v-246c0 -56 0 -123 70 -123c18 0 59 5 98 65v304h146v-461h-65c-8 -18 -12 -29 -12 -46
c0 -50 47 -52 56 -52c13 0 25 3 35 5z" />
    <glyph glyph-name="uring" unicode="&#x16f;" horiz-adv-x="583" 
d="M521 461v-461h-146v66c-50 -71 -117 -75 -146 -75c-93 0 -141 58 -158 102c-10 28 -10 55 -10 80v288h146v-246c0 -56 0 -123 70 -123c18 0 59 5 98 65v304h146zM292 699c55 0 101 -45 101 -101s-45 -102 -101 -102c-57 0 -102 45 -102 102s46 101 102 101zM291 652
c-30 0 -54 -24 -54 -54s24 -55 54 -55c31 0 55 25 55 55s-24 54 -55 54z" />
    <glyph glyph-name="utilde" unicode="&#x169;" horiz-adv-x="583" 
d="M521 461v-461h-146v66c-50 -71 -117 -75 -146 -75c-93 0 -141 58 -158 102c-10 28 -10 55 -10 80v288h146v-246c0 -56 0 -123 70 -123c18 0 59 5 98 65v304h146zM163 520h-66c4 48 23 149 119 149c31 0 51 -10 91 -30c38 -19 52 -24 67 -24c20 0 37 10 44 54h68
c-5 -78 -36 -151 -117 -151c-31 0 -73 21 -87 28c-40 20 -53 28 -74 28c-34 0 -43 -35 -45 -54z" />
    <glyph glyph-name="wacute" unicode="&#x1e83;" horiz-adv-x="781" 
d="M782 461l-211 -470h-68l-112 251l-116 -251h-68l-208 470h148l97 -245l103 245h87l102 -245l99 245h147zM543 664l-164 -146h-75l75 146h164z" />
    <glyph glyph-name="wcircumflex" unicode="&#x175;" horiz-adv-x="781" 
d="M782 461l-211 -470h-68l-112 251l-116 -251h-68l-208 470h148l97 -245l103 245h87l102 -245l99 245h147zM459 693l99 -175h-89l-78 87l-80 -87h-88l99 175h137z" />
    <glyph glyph-name="wdieresis" unicode="&#x1e85;" horiz-adv-x="781" 
d="M782 461l-211 -470h-68l-112 251l-116 -251h-68l-208 470h148l97 -245l103 245h87l102 -245l99 245h147zM492 657c36 0 65 -28 65 -65c0 -35 -29 -65 -65 -65s-65 30 -65 65c0 36 29 65 65 65zM289 657c36 0 65 -29 65 -65c0 -35 -28 -65 -65 -65c-36 0 -65 30 -65 65
c0 36 29 65 65 65z" />
    <glyph glyph-name="wgrave" unicode="&#x1e81;" horiz-adv-x="781" 
d="M782 461l-211 -470h-68l-112 251l-116 -251h-68l-208 470h148l97 -245l103 245h87l102 -245l99 245h147zM238 664h165l74 -146h-74z" />
    <glyph glyph-name="ycircumflex" unicode="&#x177;" horiz-adv-x="510" 
d="M509 461l-309 -682h-154l135 296l-180 386h155l97 -228l104 228h152zM321 693l99 -175h-89l-78 87l-80 -87h-88l99 175h137z" />
    <glyph glyph-name="ygrave" unicode="&#x1ef3;" horiz-adv-x="510" 
d="M509 461l-309 -682h-154l135 296l-180 386h155l97 -228l104 228h152zM103 664h165l74 -146h-74z" />
    <glyph glyph-name="zacute" unicode="&#x17a;" horiz-adv-x="521" 
d="M42 461h450l-236 -361h236v-100h-473l237 359h-214v102zM413 664l-164 -146h-75l75 146h164z" />
    <glyph glyph-name="zdotaccent" unicode="&#x17c;" horiz-adv-x="521" 
d="M42 461h450l-236 -361h236v-100h-473l237 359h-214v102zM261 657c35 0 65 -28 65 -65c0 -35 -29 -65 -65 -65c-37 0 -65 30 -65 65c0 36 29 65 65 65z" />
    <glyph glyph-name="kgreenlandic" unicode="&#x138;" horiz-adv-x="552" 
d="M209 461v-228l182 228h169l-180 -228l188 -233h-177l-182 227v-227h-146v461h146z" />
    <glyph glyph-name="napostrophe" unicode="&#x149;" horiz-adv-x="781" 
d="M48 377v30c15 18 51 61 45 128c-50 22 -51 69 -51 77c0 49 43 79 84 79c43 0 98 -34 98 -115c0 -92 -71 -188 -176 -199zM405 461v-66c40 45 84 75 150 75c84 0 130 -48 151 -90c17 -34 18 -67 18 -108v-272h-146v260c0 29 0 49 -7 66c-10 28 -36 43 -65 43
c-58 0 -95 -62 -101 -72v-297h-145v461h145z" />
    <glyph glyph-name="Delta" unicode="&#x2206;" horiz-adv-x="608" 
d="M645 0h-624v65c67 212 133 423 200 635h228c65 -212 131 -423 196 -635v-65zM455 129c-37 127 -73 255 -110 383c-7 28 -14 55 -16 65h-5c-1 -10 -6 -34 -13 -62c-37 -129 -74 -258 -110 -386h254z" />
    <glyph glyph-name="Omega" unicode="&#x2126;" horiz-adv-x="710" 
d="M652 0h-264v128c45 49 93 122 93 242c0 121 -48 202 -133 202c-87 0 -140 -81 -140 -207c0 -119 50 -192 94 -237v-128h-263v128h139c-61 49 -142 125 -142 276c0 178 128 308 315 308c199 0 303 -133 303 -304c0 -138 -65 -220 -143 -280h141v-128z" />
    <glyph glyph-name="uni03BC" unicode="&#x3bc;" horiz-adv-x="615" 
d="M392 459h145v-301c0 -21 0 -56 28 -56c5 0 10 1 21 5v-94c-23 -11 -49 -23 -91 -23c-23 0 -49 8 -64 37c-25 -23 -59 -37 -91 -37c-63 0 -104 46 -121 74v-294h-145v689h145v-295c15 -19 53 -66 104 -66c36 0 56 34 64 57c2 6 5 57 5 64v240z" />
    <glyph glyph-name="pi" unicode="&#x3c0;" horiz-adv-x="653" 
d="M671 16c-19 -15 -57 -26 -102 -26c-121 0 -149 91 -149 168v230h-122v-238c0 -72 -6 -113 -16 -150h-159c12 46 18 97 18 160v228c-22 0 -56 -11 -77 -24c-14 31 -27 63 -41 95c40 27 110 41 168 41h469v-112h-82v-207c0 -46 9 -79 39 -79c13 0 21 5 29 10
c8 -32 17 -64 25 -96z" />
    <glyph glyph-name="Euro" unicode="&#x20ac;" horiz-adv-x="627" 
d="M100 228h-84l16 82h57c-1 26 0 49 1 64h-74l16 82h71c23 87 96 235 300 235c65 0 119 -11 166 -21l-22 -126c-36 9 -82 21 -135 21c-59 0 -118 -19 -153 -109h267l-16 -82h-270c-2 -26 -1 -47 0 -64h262l-16 -82h-230c33 -87 84 -109 142 -109c45 0 83 12 159 47v-131
c-39 -17 -97 -44 -181 -44c-177 0 -251 129 -276 237z" />
    <glyph glyph-name="afii61289" unicode="&#x2113;" horiz-adv-x="493" 
d="M412 38c-33 -27 -85 -55 -141 -55c-51 0 -83 14 -109 41c-31 31 -46 91 -46 142v45c-17 -16 -32 -31 -49 -47c-12 23 -25 45 -38 67c29 28 58 55 87 83v195c0 145 68 219 166 219c94 0 125 -73 125 -131c0 -99 -49 -176 -118 -254c-10 -10 -24 -27 -31 -34v-122
c0 -73 23 -96 54 -96c25 0 47 16 63 32c12 -29 25 -56 37 -85zM329 578c0 22 -9 42 -31 42c-25 0 -40 -25 -40 -81v-121c4 5 8 9 12 15c34 42 59 103 59 145z" />
    <glyph glyph-name="estimated" unicode="&#x212e;" horiz-adv-x="661" 
d="M584 276h-426v-190c41 -40 92 -61 152 -61c91 0 155 45 202 125c12 -7 24 -15 36 -22c-59 -86 -126 -140 -238 -140c-167 0 -270 128 -270 288s102 288 269 288c172 0 269 -127 275 -288zM462 313v151c-42 42 -95 64 -154 64s-109 -21 -150 -63v-152h304z" />
    <glyph glyph-name="partialdiff" unicode="&#x2202;" horiz-adv-x="576" 
d="M559 453c0 -64 -8 -128 -23 -187c-42 -159 -142 -277 -284 -277c-130 0 -219 87 -219 207c0 205 135 294 252 294c53 0 99 -25 115 -51h2c2 18 3 31 3 50c0 82 -45 128 -115 128c-33 0 -68 -11 -93 -25c-10 34 -20 68 -30 103c33 22 86 38 147 38
c149 0 245 -102 245 -280zM387 330c-13 33 -36 54 -71 54c-63 0 -123 -86 -123 -199c0 -46 21 -78 59 -78c73 0 122 119 135 223z" />
    <glyph glyph-name="product" unicode="&#x220f;" horiz-adv-x="719" 
d="M652 -230h-163v791h-260v-791h-162v930h585v-930z" />
    <glyph glyph-name="summation" unicode="&#x2211;" horiz-adv-x="631" 
d="M559 -230h-535v87c85 128 169 255 254 383c-80 122 -159 245 -239 367v93h503v-128h-314c71 -110 142 -219 213 -329c-75 -114 -151 -230 -226 -345h344v-128z" />
    <glyph glyph-name="uni2219" unicode="&#x2219;" horiz-adv-x="271" 
d="M223 346c0 -41 -34 -87 -87 -87c-47 0 -87 40 -87 87c0 45 37 87 86 87c53 0 88 -45 88 -87z" />
    <glyph glyph-name="radical" unicode="&#x221a;" horiz-adv-x="513" 
d="M522 729l-162 -741h-128l-111 285c-18 -12 -36 -25 -54 -37c-17 25 -33 49 -49 74c56 39 113 78 169 117c36 -95 72 -191 108 -286c42 195 84 392 126 588h101z" />
    <glyph glyph-name="infinity" unicode="&#x221e;" horiz-adv-x="783" 
d="M743 294c0 -111 -81 -189 -183 -189c-67 0 -133 34 -176 98h-2c-41 -56 -99 -98 -175 -98c-87 0 -184 60 -184 187c0 121 97 184 184 184c76 0 136 -42 175 -98h2c28 43 89 98 175 98c105 0 184 -79 184 -182zM626 293c0 43 -27 79 -79 79c-46 0 -76 -30 -107 -81
c26 -48 62 -82 108 -82c50 0 78 41 78 84zM326 291c-29 45 -62 81 -108 81c-48 0 -78 -38 -78 -81c0 -44 31 -82 79 -82c46 0 82 40 107 82z" />
    <glyph glyph-name="integral" unicode="&#x222b;" horiz-adv-x="491" 
d="M411 624c-10 4 -25 8 -39 8c-37 0 -60 -24 -60 -79v-573c0 -122 -53 -217 -193 -217c-32 0 -76 7 -94 15c9 37 18 75 27 111c11 -4 24 -7 39 -7c39 0 61 27 61 79v571c0 126 56 219 194 219c36 0 80 -9 96 -18c-11 -36 -20 -72 -31 -109z" />
    <glyph glyph-name="approxequal" unicode="&#x2248;" horiz-adv-x="583" 
d="M554 425c-44 -66 -87 -98 -157 -98c-33 0 -75 7 -112 30c-29 19 -59 33 -92 33c-43 0 -66 -47 -79 -68l-84 98c39 56 80 99 156 99c42 0 78 -11 112 -30c38 -23 64 -33 94 -33c41 0 63 40 79 67zM554 180c-44 -65 -87 -98 -157 -98c-33 0 -75 7 -112 31
c-29 18 -59 32 -92 32c-43 0 -66 -46 -79 -68l-84 99c39 55 80 98 156 98c42 0 78 -11 112 -30c38 -22 64 -33 94 -33c41 0 63 41 79 68z" />
    <glyph glyph-name="notequal" unicode="&#x2260;" horiz-adv-x="583" 
d="M514 115h-230l-40 -94h-143l40 94h-71v129h127l50 117h-177v129h234l50 117h144l-51 -117h67v-129h-124l-50 -117h174v-129z" />
    <glyph glyph-name="lessequal" unicode="&#x2264;" horiz-adv-x="583" 
d="M514 0h-444v129h444v-129zM514 148l-444 168v126l444 167v-132l-290 -99v-2l290 -98v-130z" />
    <glyph glyph-name="greaterequal" unicode="&#x2265;" horiz-adv-x="583" 
d="M513 0h-443v129h443v-129zM514 315l-444 -166v132l290 98v2l-290 98v131l444 -168v-127z" />
    <glyph glyph-name="lozenge" unicode="&#x25ca;" horiz-adv-x="559" 
d="M488 350c-65 -117 -130 -233 -195 -350h-71c-65 116 -129 233 -194 349c65 117 129 234 194 351h71c65 -117 130 -233 195 -350zM377 350c-39 74 -79 148 -119 222c-40 -74 -80 -148 -119 -222c39 -74 79 -148 119 -221c40 73 79 147 119 221z" />
    <glyph glyph-name="uni00A0" unicode="&#xa0;" horiz-adv-x="278" 
 />
    <glyph glyph-name="uni00AD" unicode="&#xad;" 
d="M297 298v-133h-261v133h261z" />
    <glyph glyph-name="uni02C9" unicode="&#x2c9;" 
d="M360 642v-100h-387v100h387z" />
    <glyph glyph-name="zero.fitted" unicode="&#xf639;" horiz-adv-x="552" 
d="M507 344c0 -273 -120 -353 -228 -353c-37 0 -107 7 -165 81c-64 83 -69 208 -69 269c0 289 140 350 232 350c74 0 230 -44 230 -347zM350 348c0 167 -26 215 -73 215c-64 0 -74 -97 -74 -229c0 -70 0 -216 74 -216c43 0 58 48 64 81c8 50 9 129 9 149z" />
    <glyph glyph-name="one.fitted" unicode="&#xf6dc;" horiz-adv-x="306" 
d="M231 691v-691h-156v691h156z" />
    <glyph glyph-name="two.fitted" unicode="&#xf63a;" horiz-adv-x="519" 
d="M483 139v-139h-451v20c4 4 107 138 151 202c42 60 114 164 114 250c0 54 -41 96 -92 96c-37 0 -99 -23 -164 -85v143c85 54 135 65 191 65c163 0 216 -102 216 -193c0 -45 -7 -92 -83 -217c-33 -54 -90 -126 -102 -142h220z" />
    <glyph glyph-name="three.fitted" unicode="&#xf63b;" horiz-adv-x="501" 
d="M53 541v120c64 27 129 30 156 30c121 0 218 -62 218 -167c0 -45 -19 -92 -56 -127c-18 -17 -33 -25 -45 -31c37 -16 120 -52 120 -176c0 -134 -112 -199 -243 -199c-75 0 -137 23 -167 39v132c22 -15 75 -52 150 -52c56 0 101 37 101 89c0 9 0 84 -105 95v120
c65 6 94 49 94 83c0 39 -35 80 -96 80c-26 0 -52 -5 -75 -13c-9 -3 -45 -20 -52 -23z" />
    <glyph glyph-name="four.fitted" unicode="&#xf63c;" horiz-adv-x="536" 
d="M442 691v-414h46v-109h-46v-168h-151v168h-266v109l321 414h96zM291 277v186l-146 -186h146z" />
    <glyph glyph-name="five.fitted" unicode="&#xf63d;" horiz-adv-x="514" 
d="M444 682v-137h-218v-128c7 0 16 1 27 1c118 0 214 -81 214 -210c0 -28 -6 -99 -59 -151c-48 -48 -114 -66 -188 -66c-77 0 -145 25 -165 37v124c62 -33 110 -41 145 -41c78 0 108 54 108 94c0 47 -36 98 -135 98c-9 0 -42 0 -83 -10v389h354z" />
    <glyph glyph-name="six.fitted" unicode="&#xf63e;" horiz-adv-x="543" 
d="M424 691l-158 -258c11 3 19 6 40 6c117 0 191 -103 191 -215c0 -135 -97 -233 -226 -233c-119 0 -226 83 -226 242c0 94 38 177 93 267l118 191h168zM350 220c0 53 -26 100 -77 100c-42 0 -74 -34 -74 -103c0 -71 35 -99 75 -99c54 0 76 52 76 102z" />
    <glyph glyph-name="seven.fitted" unicode="&#xf63f;" horiz-adv-x="510" 
d="M486 682v-8l-249 -683l-136 52l183 503h-252v136h454z" />
    <glyph glyph-name="eight.fitted" unicode="&#xf640;" horiz-adv-x="552" 
d="M403 360c14 -7 31 -16 50 -34c32 -32 52 -79 52 -131c0 -85 -54 -204 -230 -204c-130 0 -227 79 -227 203c0 80 40 122 59 139c16 14 32 22 44 27c-27 18 -84 54 -84 146c0 99 70 185 207 185c153 0 212 -105 212 -186c0 -35 -12 -81 -41 -112c-17 -18 -32 -26 -42 -33z
M340 499c0 15 0 90 -65 90c-31 0 -43 -19 -48 -28c-13 -24 -15 -53 -15 -64c0 -13 2 -95 66 -95c7 0 62 0 62 97zM351 195c0 82 -37 110 -74 110c-6 0 -76 0 -76 -106c0 -83 44 -110 77 -110c35 0 73 28 73 106z" />
    <glyph glyph-name="nine.fitted" unicode="&#xf641;" horiz-adv-x="543" 
d="M121 -9l157 256c-12 -3 -25 -7 -44 -7c-99 0 -188 90 -188 216c0 138 102 235 227 235c120 0 225 -92 225 -235c0 -108 -42 -192 -90 -270l-120 -195h-167zM345 461c0 86 -48 102 -75 102c-45 0 -77 -43 -77 -102c0 -73 40 -101 76 -101c46 0 76 44 76 101z" />
    <glyph glyph-name="zero.taboldstyle" unicode="&#xf643;" horiz-adv-x="526" 
d="M263 124c40 0 87 32 87 107c0 54 -28 106 -87 106c-50 0 -87 -40 -87 -111c0 -59 40 -102 87 -102zM497 230c0 -183 -139 -239 -233 -239c-124 0 -235 85 -235 237c0 145 106 242 236 242c98 0 232 -63 232 -240z" />
    <glyph glyph-name="one.taboldstyle" unicode="&#xf644;" horiz-adv-x="526" 
d="M384 0h-147v290l-129 -103v140l163 143h113v-470z" />
    <glyph glyph-name="two.taboldstyle" unicode="&#xf645;" horiz-adv-x="526" 
d="M471 130v-130h-428v20l120 99c118 98 130 138 130 171c0 25 -11 50 -61 50c-56 0 -106 -28 -171 -69v140c67 30 131 59 218 59c130 0 172 -70 172 -143c0 -87 -55 -143 -118 -197h138z" />
    <glyph glyph-name="three.taboldstyle" unicode="&#xf646;" horiz-adv-x="526" 
d="M471 461l-150 -302c88 -16 145 -89 145 -173c0 -131 -129 -216 -243 -216c-71 0 -132 24 -166 39v132c33 -22 80 -52 144 -52c81 0 107 57 107 95c0 88 -100 109 -166 93l118 247h-201v137h412z" />
    <glyph glyph-name="four.taboldstyle" unicode="&#xf647;" horiz-adv-x="526" 
d="M298 0h-298v66l356 404h81v-373h88v-97h-88v-221h-139v221zM152 97h149v177z" />
    <glyph glyph-name="five.taboldstyle" unicode="&#xf648;" horiz-adv-x="526" 
d="M486 461v-137h-227l-21 -141c166 -9 227 -107 227 -194c0 -129 -96 -219 -243 -219c-34 0 -92 3 -169 36v133c38 -20 93 -50 155 -50c55 0 99 24 99 80c0 30 -16 118 -211 94l63 398h327z" />
    <glyph glyph-name="six.taboldstyle" unicode="&#xf649;" horiz-adv-x="526" 
d="M272 691l115 -58c-108 -134 -120 -160 -144 -209c17 7 39 15 69 15c94 0 177 -79 177 -208c0 -146 -97 -240 -228 -240s-224 93 -224 244c0 152 85 276 235 456zM342 220c0 53 -26 100 -77 100c-42 0 -74 -34 -74 -103c0 -71 35 -99 75 -99c54 0 76 52 76 102z" />
    <glyph glyph-name="seven.taboldstyle" unicode="&#xf64a;" horiz-adv-x="526" 
d="M499 461v-8l-249 -683l-136 52l183 502h-252v137h454z" />
    <glyph glyph-name="eight.taboldstyle" unicode="&#xf64b;" horiz-adv-x="526" 
d="M378 360c24 -11 114 -53 114 -167c0 -76 -48 -202 -231 -202c-134 0 -227 84 -227 201c0 113 81 155 116 168c-35 20 -96 55 -96 148c0 94 68 183 207 183c157 0 212 -109 212 -185c0 -84 -55 -126 -95 -146zM326 499c0 51 -18 90 -64 90c-42 0 -61 -39 -61 -92
c0 -37 12 -95 64 -95c49 0 61 51 61 97zM338 195c0 72 -32 110 -74 110c-50 0 -76 -41 -76 -106c0 -62 28 -111 77 -111c42 0 73 37 73 107z" />
    <glyph glyph-name="nine.taboldstyle" unicode="&#xf64c;" horiz-adv-x="526" 
d="M254 -230l-115 58c108 134 120 160 144 209c-17 -7 -39 -15 -69 -15c-94 0 -177 79 -177 208c0 146 97 240 228 240s224 -93 224 -244c0 -152 -85 -276 -235 -456zM184 241c0 -53 26 -100 77 -100c42 0 74 34 74 103c0 71 -35 99 -75 99c-54 0 -76 -52 -76 -102z" />
    <glyph glyph-name="zero.denominator" unicode="&#xf655;" 
d="M309 183c0 -118 -49 -188 -141 -188c-111 0 -143 93 -143 183c0 116 50 182 142 182c76 0 142 -56 142 -177zM204 182c0 81 -14 106 -37 106c-26 0 -37 -26 -37 -114c0 -65 9 -107 37 -107s37 31 37 115z" />
    <glyph glyph-name="one.denominator" unicode="&#xf656;" 
d="M219 360v-360h-104v360h104z" />
    <glyph glyph-name="two.denominator" unicode="&#xf657;" 
d="M311 77v-77h-278v14c1 0 60 66 91 106c23 28 65 81 65 123c0 31 -25 47 -48 47c-39 0 -73 -25 -103 -51v85c54 30 85 36 118 36c95 0 134 -49 134 -102c0 -61 -66 -135 -106 -181h127z" />
    <glyph glyph-name="three.denominator" unicode="&#xf658;" 
d="M42 274v69c42 15 82 17 98 17c77 0 135 -36 135 -89c0 -35 -25 -64 -57 -81c42 -17 68 -44 68 -90c0 -69 -68 -105 -150 -105c-39 0 -77 10 -104 22v77c25 -15 52 -31 94 -31c30 0 54 16 54 42c0 34 -31 43 -62 46v67c55 3 55 35 55 39c0 15 -13 38 -52 38
c-26 0 -45 -8 -79 -21z" />
    <glyph glyph-name="four.denominator" unicode="&#xf659;" 
d="M283 360v-212h27v-62h-27v-86h-101v86h-157v62l192 212h66zM182 148v78l-71 -78h71z" />
    <glyph glyph-name="five.denominator" unicode="&#xf65a;" 
d="M277 355v-76h-129v-59c86 3 143 -45 143 -111c0 -54 -41 -114 -152 -114c-40 0 -82 10 -103 21v72c19 -9 52 -25 91 -25c41 0 58 25 58 46c0 23 -21 46 -74 46c-24 0 -42 -4 -55 -7v207h221z" />
    <glyph glyph-name="six.denominator" unicode="&#xf65b;" 
d="M262 360l-88 -130c21 1 31 1 39 -2c43 -18 56 -24 74 -53c10 -18 15 -38 15 -58c0 -70 -60 -122 -139 -122c-72 0 -139 43 -139 127c0 56 31 104 57 139l70 99h111zM204 117c0 18 -10 47 -40 47c-26 0 -37 -22 -37 -50c0 -29 13 -47 38 -47c26 0 39 21 39 50z" />
    <glyph glyph-name="seven.denominator" unicode="&#xf65c;" 
d="M321 357l-149 -362l-91 31l108 255h-147v76h279z" />
    <glyph glyph-name="eight.denominator" unicode="&#xf65d;" 
d="M250 188c35 -17 58 -46 58 -85c0 -56 -46 -108 -142 -108c-76 0 -140 40 -140 107c0 24 6 47 31 68c10 10 18 13 27 18c-32 18 -47 43 -47 74c0 56 49 98 128 98c92 0 132 -54 132 -99c0 -46 -35 -66 -47 -73zM198 260c0 11 -3 41 -31 41c-30 0 -32 -35 -32 -44
s2 -45 33 -45c8 0 30 4 30 48zM205 104c0 29 -13 52 -38 52c-20 0 -39 -15 -39 -51c0 -39 21 -53 40 -53c15 0 37 10 37 52z" />
    <glyph glyph-name="nine.denominator" unicode="&#xf65e;" 
d="M61 -5l91 129c-80 -8 -133 49 -133 112c0 71 61 124 139 124c73 0 139 -48 139 -124c0 -59 -29 -104 -55 -141l-71 -100h-110zM195 242c0 25 -14 45 -39 45s-39 -23 -39 -48c0 -36 21 -49 39 -49c16 0 39 11 39 52z" />
    <glyph glyph-name="zero.numerator" unicode="&#xf661;" 
d="M309 510c0 -38 -5 -74 -19 -106c-10 -21 -43 -77 -122 -77c-143 0 -143 155 -143 182c0 57 12 98 30 124c21 32 59 58 112 58c54 0 142 -30 142 -181zM204 513c0 86 -15 106 -37 106c-31 0 -37 -44 -37 -114c0 -30 0 -107 37 -107c22 0 37 16 37 115z" />
    <glyph glyph-name="one.numerator" unicode="&#xf662;" 
d="M219 691v-359h-104v359h104z" />
    <glyph glyph-name="two.numerator" unicode="&#xf663;" 
d="M311 409v-77h-278v13c2 2 70 77 108 128c13 17 48 64 48 103c0 28 -23 46 -48 46c-43 0 -87 -38 -103 -51v85c53 29 84 35 118 35c99 0 134 -52 134 -101c0 -61 -65 -135 -106 -181h127z" />
    <glyph glyph-name="three.numerator" unicode="&#xf664;" 
d="M42 606v68c42 16 81 17 98 17c76 0 135 -35 135 -88c0 -35 -25 -64 -57 -81c42 -17 68 -44 68 -90c0 -68 -67 -105 -150 -105c-39 0 -77 9 -104 22v77c25 -16 52 -32 94 -32c29 0 54 16 54 42c0 34 -31 44 -62 46v67c55 4 55 36 55 40c0 16 -13 38 -51 38
c-25 0 -37 -5 -80 -21z" />
    <glyph glyph-name="four.numerator" unicode="&#xf665;" 
d="M283 691v-211h27v-62h-27v-86h-101v86h-157v62l192 211h66zM182 480v78l-71 -78h71z" />
    <glyph glyph-name="five.numerator" unicode="&#xf666;" 
d="M277 686v-77h-129v-59c121 4 143 -79 143 -110c0 -58 -42 -114 -152 -114c-40 0 -82 10 -103 21v71c19 -9 52 -24 91 -24c37 0 58 20 58 45c0 26 -27 47 -74 47c-24 0 -42 -4 -55 -7v207h221z" />
    <glyph glyph-name="six.numerator" unicode="&#xf667;" 
d="M262 691l-92 -130c93 7 132 -60 132 -112c0 -70 -59 -122 -139 -122c-73 0 -139 43 -139 127c0 55 30 102 57 139l70 98h111zM204 447c0 23 -11 48 -40 48c-26 0 -37 -22 -37 -49c0 -30 13 -48 38 -48c31 0 39 30 39 49z" />
    <glyph glyph-name="seven.numerator" unicode="&#xf668;" 
d="M321 688l-149 -361l-91 30l108 255h-147v76h279z" />
    <glyph glyph-name="eight.numerator" unicode="&#xf669;" 
d="M250 519c13 -7 58 -29 58 -84s-45 -108 -142 -108c-77 0 -140 40 -140 107c0 13 0 58 58 85c-33 19 -47 44 -47 74c0 56 49 98 128 98c92 0 132 -53 132 -98c0 -31 -20 -59 -47 -74zM198 590c0 27 -10 43 -31 43c-31 0 -32 -35 -32 -44s2 -46 33 -46c3 0 30 0 30 47z
M205 434c0 36 -17 53 -38 53c-19 0 -39 -14 -39 -50c0 -40 22 -54 40 -54c20 0 37 17 37 51z" />
    <glyph glyph-name="nine.numerator" unicode="&#xf66a;" 
d="M61 327l91 129c-83 -8 -133 51 -133 112c0 71 61 123 139 123c73 0 139 -47 139 -124c0 -58 -29 -103 -55 -140l-71 -100h-110zM195 570c0 36 -18 49 -39 49c-25 0 -39 -23 -39 -48c0 -34 19 -49 39 -49c25 0 39 23 39 48z" />
    <glyph glyph-name="abreve.sc" unicode="&#xf66d;" horiz-adv-x="569" 
d="M380 79h-208l-27 -79h-139l194 495h146l217 -495h-151zM202 175h143l-79 189zM72 733h111c17 -57 68 -74 105 -74c41 0 76 16 98 74h110c-8 -43 -49 -184 -208 -184c-147 0 -210 126 -216 184z" />
    <glyph glyph-name="amacron.sc" unicode="&#xf66e;" horiz-adv-x="569" 
d="M380 79h-208l-27 -79h-139l194 495h146l217 -495h-151zM202 175h143l-79 189zM504 692v-117h-440v117h440z" />
    <glyph glyph-name="aogonek.sc" unicode="&#xf66f;" horiz-adv-x="569" 
d="M590 -102v-89c-24 -9 -50 -17 -84 -17c-53 0 -116 31 -116 127c0 37 9 55 22 81l-32 79h-208l-27 -79h-139l194 495h146l217 -495h-61c-8 -18 -14 -33 -14 -54c0 -51 52 -53 61 -53c17 0 29 3 41 5zM202 175h143l-79 189z" />
    <glyph glyph-name="aeacute.sc" unicode="&#xf670;" horiz-adv-x="760" 
d="M712 495v-106h-218v-84h208v-106h-208v-93h224v-106h-356v92h-171l-53 -92h-138l303 495h409zM246 198h116v195zM730 738l-208 -189h-101l117 189h192z" />
    <glyph glyph-name="cacute.sc" unicode="&#xf671;" horiz-adv-x="559" 
d="M511 167v-122c-30 -16 -91 -51 -190 -51c-198 0 -281 137 -281 252c0 169 142 255 293 255c60 0 120 -11 172 -39v-132c-21 15 -77 55 -167 55c-91 0 -159 -53 -159 -138c0 -88 72 -137 155 -137c67 0 133 34 177 57zM529 738l-208 -189h-101l117 189h192z" />
    <glyph glyph-name="ccaron.sc" unicode="&#xf672;" horiz-adv-x="559" 
d="M511 167v-122c-30 -16 -91 -51 -190 -51c-198 0 -281 137 -281 252c0 169 142 255 293 255c60 0 120 -11 172 -39v-132c-21 15 -77 55 -167 55c-91 0 -159 -53 -159 -138c0 -88 72 -137 155 -137c67 0 133 34 177 57zM215 549l-117 170h93l116 -104l114 104h91l-115 -170
h-182z" />
    <glyph glyph-name="ccircumflex.sc" unicode="&#xf673;" horiz-adv-x="559" 
d="M511 167v-122c-30 -16 -91 -51 -190 -51c-198 0 -281 137 -281 252c0 169 142 255 293 255c60 0 120 -11 172 -39v-132c-21 15 -77 55 -167 55c-91 0 -159 -53 -159 -138c0 -88 72 -137 155 -137c67 0 133 34 177 57zM399 719l117 -170h-93l-116 103l-114 -103h-91
l115 170h182z" />
    <glyph glyph-name="cdotaccent.sc" unicode="&#xf674;" horiz-adv-x="559" 
d="M511 167v-122c-30 -16 -91 -51 -190 -51c-198 0 -281 137 -281 252c0 169 142 255 293 255c60 0 120 -11 172 -39v-132c-21 15 -77 55 -167 55c-91 0 -159 -53 -159 -138c0 -88 72 -137 155 -137c67 0 133 34 177 57zM310 715c44 0 80 -35 80 -80s-36 -81 -80 -81
c-45 0 -80 37 -80 81c0 45 36 80 80 80z" />
    <glyph glyph-name="dcaron.sc" unicode="&#xf675;" horiz-adv-x="580" 
d="M59 0v495h198c92 0 150 -21 197 -59c60 -48 86 -123 86 -190c0 -75 -31 -161 -118 -211c-52 -29 -119 -35 -166 -35h-197zM192 387v-279h60c35 0 75 13 93 26c37 25 57 71 57 117c0 54 -26 90 -52 110c-29 23 -59 26 -97 26h-61zM166 549l-117 170h93l116 -104l114 104
h91l-115 -170h-182z" />
    <glyph glyph-name="dcroat.sc" unicode="&#xf676;" horiz-adv-x="580" 
d="M59 206h-59v81h59v208h198c92 0 150 -21 197 -59c60 -48 86 -123 86 -190c0 -75 -31 -161 -118 -211c-52 -29 -119 -35 -166 -35h-197v206zM285 206h-93v-98h60c35 0 75 13 93 26c37 25 57 71 57 117c0 54 -26 90 -52 110c-29 23 -59 26 -97 26h-61v-100h93v-81z" />
    <glyph glyph-name="ebreve.sc" unicode="&#xf677;" horiz-adv-x="467" 
d="M422 106v-106h-361v495h356v-106h-223v-80h213v-106h-213v-97h228zM31 733h111c17 -57 68 -74 105 -74c41 0 76 16 98 74h110c-8 -43 -49 -184 -208 -184c-147 0 -210 126 -216 184z" />
    <glyph glyph-name="ecaron.sc" unicode="&#xf678;" horiz-adv-x="467" 
d="M422 106v-106h-361v495h356v-106h-223v-80h213v-106h-213v-97h228zM154 549l-117 170h93l116 -104l114 104h91l-115 -170h-182z" />
    <glyph glyph-name="edotaccent.sc" unicode="&#xf679;" horiz-adv-x="467" 
d="M422 106v-106h-361v495h356v-106h-223v-80h213v-106h-213v-97h228zM252 715c44 0 80 -35 80 -80s-36 -81 -80 -81c-45 0 -80 37 -80 81c0 45 36 80 80 80z" />
    <glyph glyph-name="emacron.sc" unicode="&#xf67a;" horiz-adv-x="467" 
d="M422 106v-106h-361v495h356v-106h-223v-80h213v-106h-213v-97h228zM463 692v-117h-440v117h440z" />
    <glyph glyph-name="eng.sc" unicode="&#xf67b;" horiz-adv-x="601" 
d="M308 -7v100c9 -1 21 -2 28 -2c58 0 69 48 69 107v49c0 38 0 77 -17 109c-14 27 -44 41 -71 41c-57 0 -99 -39 -127 -86v-311h-133v495h134v-67c24 27 68 76 157 76c53 0 166 -25 183 -157c1 -4 8 -56 8 -95v-55c0 -139 -44 -205 -185 -205c-14 0 -29 1 -46 1z" />
    <glyph glyph-name="eogonek.sc" unicode="&#xf67c;" horiz-adv-x="467" 
d="M422 -102v-89c-38 -15 -69 -17 -87 -17c-62 0 -112 42 -112 126c0 42 12 67 20 82h-182v495h356v-106h-223v-80h213v-106h-213v-97h228v-106h-89c-7 -17 -13 -32 -13 -50c0 -39 36 -57 63 -57c14 0 26 2 39 5z" />
    <glyph glyph-name="gbreve.sc" unicode="&#xf67d;" horiz-adv-x="587" 
d="M522 466v-123c-74 27 -118 42 -178 42c-31 0 -87 -4 -123 -39c-29 -28 -42 -67 -42 -102c0 -75 59 -134 145 -134c34 0 60 8 77 14v45h-71v103h203v-209c-57 -50 -132 -69 -208 -69c-153 0 -284 95 -284 253c0 153 117 254 292 254c93 0 160 -25 189 -35zM91 733h111
c17 -57 68 -74 105 -74c41 0 76 16 98 74h110c-8 -43 -49 -184 -208 -184c-147 0 -210 126 -216 184z" />
    <glyph glyph-name="gcircumflex.sc" unicode="&#xf67e;" horiz-adv-x="587" 
d="M522 466v-123c-74 27 -118 42 -178 42c-31 0 -87 -4 -123 -39c-29 -28 -42 -67 -42 -102c0 -75 59 -134 145 -134c34 0 60 8 77 14v45h-71v103h203v-209c-57 -50 -132 -69 -208 -69c-153 0 -284 95 -284 253c0 153 117 254 292 254c93 0 160 -25 189 -35zM401 719
l117 -170h-93l-116 103l-114 -103h-91l115 170h182z" />
    <glyph glyph-name="gcommaaccent.sc" unicode="&#xf67f;" horiz-adv-x="587" 
d="M522 466v-123c-74 27 -118 42 -178 42c-31 0 -87 -4 -123 -39c-29 -28 -42 -67 -42 -102c0 -75 59 -134 145 -134c34 0 60 8 77 14v45h-71v103h203v-209c-57 -50 -132 -69 -208 -69c-153 0 -284 95 -284 253c0 153 117 254 292 254c93 0 160 -25 189 -35zM204 -229v56h29
c61 0 75 10 75 36c0 34 -64 29 -84 29l5 51c82 0 220 9 220 -91c0 -51 -52 -92 -145 -92c-49 0 -83 6 -100 11z" />
    <glyph glyph-name="gdotaccent.sc" unicode="&#xf680;" horiz-adv-x="587" 
d="M522 466v-123c-74 27 -118 42 -178 42c-31 0 -87 -4 -123 -39c-29 -28 -42 -67 -42 -102c0 -75 59 -134 145 -134c34 0 60 8 77 14v45h-71v103h203v-209c-57 -50 -132 -69 -208 -69c-153 0 -284 95 -284 253c0 153 117 254 292 254c93 0 160 -25 189 -35zM319 715
c44 0 80 -35 80 -80s-36 -81 -80 -81c-45 0 -80 37 -80 81c0 45 36 80 80 80z" />
    <glyph glyph-name="hbar.sc" unicode="&#xf681;" horiz-adv-x="601" 
d="M409 444v51h132v-51h50v-99h-50v-345h-132v193h-217v-193h-132v345h-50v99h50v51h132v-51h217zM409 303v42h-217v-42h217z" />
    <glyph glyph-name="hcircumflex.sc" unicode="&#xf682;" horiz-adv-x="601" 
d="M192 303h217v192h132v-495h-132v193h-217v-193h-132v495h132v-192zM390 719l117 -170h-93l-116 103l-114 -103h-91l115 170h182z" />
    <glyph glyph-name="ibreve.sc" unicode="&#xf683;" horiz-adv-x="262" 
d="M197 495v-495h-132v495h132zM-81 733h111c17 -57 68 -74 105 -74c41 0 76 16 98 74h110c-8 -43 -49 -184 -208 -184c-147 0 -210 126 -216 184z" />
    <glyph glyph-name="i_j.sc" unicode="&#xf684;" horiz-adv-x="524" 
d="M197 495v-495h-132v495h132zM467 495v-415c0 -77 -8 -219 -165 -219c-30 0 -44 5 -61 11l6 109c14 -6 20 -8 31 -8c57 0 57 53 57 118v404h132z" />
    <glyph glyph-name="imacron.sc" unicode="&#xf685;" horiz-adv-x="262" 
d="M197 495v-495h-132v495h132zM351 692v-117h-440v117h440z" />
    <glyph glyph-name="iogonek.sc" unicode="&#xf686;" horiz-adv-x="262" 
d="M243 -102v-89c-24 -9 -51 -17 -84 -17c-54 0 -116 31 -116 127c0 37 8 55 22 81v495h132v-495h-43c-7 -18 -13 -33 -13 -54c0 -51 52 -53 61 -53c16 0 29 3 41 5z" />
    <glyph glyph-name="itilde.sc" unicode="&#xf687;" horiz-adv-x="262" 
d="M197 495v-495h-132v495h132zM-15 554h-74c0 27 4 67 23 100c19 34 52 61 108 61c51 0 96 -23 118 -35c27 -15 47 -24 72 -24c39 0 45 43 47 58h75c0 -83 -42 -160 -128 -160c-55 0 -96 21 -137 42c-27 14 -44 18 -59 18c-31 0 -43 -27 -45 -60z" />
    <glyph glyph-name="jcircumflex.sc" unicode="&#xf688;" horiz-adv-x="262" 
d="M204 495v-415c0 -77 -8 -219 -165 -219c-30 0 -44 5 -61 11l6 109c14 -6 20 -8 31 -8c57 0 57 53 57 118v404h132zM221 719l117 -170h-93l-116 103l-114 -103h-91l115 170h182z" />
    <glyph glyph-name="kcommaaccent.sc" unicode="&#xf689;" horiz-adv-x="550" 
d="M194 288l139 207h143l-156 -228l224 -267h-174l-176 210v-210h-132v495h132v-207zM186 -229v56h29c61 0 75 10 75 36c0 34 -64 29 -84 29l5 51c82 0 220 9 220 -91c0 -51 -52 -92 -145 -92c-49 0 -83 6 -100 11z" />
    <glyph glyph-name="lacute.sc" unicode="&#xf68a;" horiz-adv-x="453" 
d="M432 106v-106h-372v495h133v-389h239zM446 738l-208 -189h-101l117 189h192z" />
    <glyph glyph-name="lcaron.sc" unicode="&#xf68b;" horiz-adv-x="453" 
d="M432 106v-106h-372v495h133v-389h239zM267 266v23c15 16 40 43 40 75c0 6 -1 10 -5 20c-24 12 -40 31 -40 59c0 33 32 58 66 58s78 -25 78 -86c0 -70 -57 -141 -139 -149z" />
    <glyph glyph-name="lcommaaccent.sc" unicode="&#xf68c;" horiz-adv-x="453" 
d="M432 106v-106h-372v495h133v-389h239zM137 -229v56h29c61 0 75 10 75 36c0 34 -64 29 -84 29l5 51c82 0 220 9 220 -91c0 -51 -52 -92 -145 -92c-49 0 -83 6 -100 11z" />
    <glyph glyph-name="ldot.sc" unicode="&#xf68d;" horiz-adv-x="453" 
d="M432 106v-106h-372v495h133v-389h239zM325 387c42 0 77 -33 77 -76c0 -42 -35 -76 -77 -76s-76 34 -76 76c0 43 35 76 76 76z" />
    <glyph glyph-name="nacute.sc" unicode="&#xf68e;" horiz-adv-x="609" 
d="M548 495v-495h-110l-244 280v-280h-133v495h119l235 -266v266h133zM524 738l-208 -189h-101l117 189h192z" />
    <glyph glyph-name="ncaron.sc" unicode="&#xf68f;" horiz-adv-x="609" 
d="M548 495v-495h-110l-244 280v-280h-133v495h119l235 -266v266h133zM215 549l-117 170h93l116 -104l114 104h91l-115 -170h-182z" />
    <glyph glyph-name="ncommaaccent.sc" unicode="&#xf690;" horiz-adv-x="609" 
d="M548 495v-495h-110l-244 280v-280h-133v495h119l235 -266v266h133zM215 -229v56h29c61 0 75 10 75 36c0 34 -64 29 -84 29l5 51c82 0 220 9 220 -91c0 -51 -52 -92 -145 -92c-49 0 -83 6 -100 11z" />
    <glyph glyph-name="obreve.sc" unicode="&#xf691;" horiz-adv-x="630" 
d="M590 246c0 -134 -115 -252 -275 -252c-154 0 -275 110 -275 251c0 136 116 256 274 256c134 0 276 -94 276 -255zM451 244c0 103 -81 141 -134 141c-69 0 -138 -55 -138 -139c0 -79 62 -136 138 -136c82 0 134 66 134 134zM103 733h111c17 -57 68 -74 105 -74
c41 0 76 16 98 74h110c-8 -43 -49 -184 -208 -184c-147 0 -210 126 -216 184z" />
    <glyph glyph-name="ohungarumlaut.sc" unicode="&#xf692;" horiz-adv-x="630" 
d="M590 246c0 -134 -115 -252 -275 -252c-154 0 -275 110 -275 251c0 136 116 256 274 256c134 0 276 -94 276 -255zM451 244c0 103 -81 141 -134 141c-69 0 -138 -55 -138 -139c0 -79 62 -136 138 -136c82 0 134 66 134 134zM368 738l-148 -189h-89l76 189h161zM573 738
l-147 -189h-90l77 189h160z" />
    <glyph glyph-name="omacron.sc" unicode="&#xf693;" horiz-adv-x="630" 
d="M590 246c0 -134 -115 -252 -275 -252c-154 0 -275 110 -275 251c0 136 116 256 274 256c134 0 276 -94 276 -255zM451 244c0 103 -81 141 -134 141c-69 0 -138 -55 -138 -139c0 -79 62 -136 138 -136c82 0 134 66 134 134zM535 692v-117h-440v117h440z" />
    <glyph glyph-name="oslashacute.sc" unicode="&#xf694;" horiz-adv-x="630" 
d="M205 14l-15 -20h-94l41 58c-15 12 -31 24 -48 47c-30 40 -49 92 -49 146c0 135 114 256 274 256c60 0 98 -16 122 -26l18 26h94l-47 -66c16 -14 32 -27 48 -52c26 -39 41 -86 41 -134c0 -142 -118 -255 -276 -255c-55 0 -89 12 -109 20zM426 329l-150 -213
c9 -3 20 -6 40 -6c78 0 135 58 135 138c0 28 -6 60 -25 81zM211 157l154 219c-11 4 -23 9 -48 9c-70 0 -138 -56 -138 -139c0 -10 0 -51 32 -89zM535 738l-208 -189h-101l117 189h192z" />
    <glyph glyph-name="racute.sc" unicode="&#xf695;" horiz-adv-x="497" 
d="M60 495h161c104 0 150 -9 188 -45c27 -26 43 -63 43 -100c0 -54 -27 -101 -75 -128c30 -27 37 -44 67 -118c21 -51 36 -81 47 -104h-147c-51 149 -64 186 -117 186h-34v-186h-133v495zM238 395h-45v-109h42c25 0 78 0 78 54c0 55 -52 55 -75 55zM468 738l-208 -189h-101
l117 189h192z" />
    <glyph glyph-name="rcaron.sc" unicode="&#xf696;" horiz-adv-x="497" 
d="M60 495h161c104 0 150 -9 188 -45c27 -26 43 -63 43 -100c0 -54 -27 -101 -75 -128c30 -27 37 -44 67 -118c21 -51 36 -81 47 -104h-147c-51 149 -64 186 -117 186h-34v-186h-133v495zM238 395h-45v-109h42c25 0 78 0 78 54c0 55 -52 55 -75 55zM149 549l-117 170h93
l116 -104l114 104h91l-115 -170h-182z" />
    <glyph glyph-name="rcommaaccent.sc" unicode="&#xf697;" horiz-adv-x="497" 
d="M60 495h161c104 0 150 -9 188 -45c27 -26 43 -63 43 -100c0 -54 -27 -101 -75 -128c30 -27 37 -44 67 -118c21 -51 36 -81 47 -104h-147c-51 149 -64 186 -117 186h-34v-186h-133v495zM238 395h-45v-109h42c25 0 78 0 78 54c0 55 -52 55 -75 55zM159 -229v56h29
c61 0 75 10 75 36c0 34 -64 29 -84 29l5 51c82 0 220 9 220 -91c0 -51 -52 -92 -145 -92c-49 0 -83 6 -100 11z" />
    <glyph glyph-name="sacute.sc" unicode="&#xf698;" horiz-adv-x="446" 
d="M390 467v-118c-43 19 -102 46 -159 46c-31 0 -61 -11 -61 -37c0 -22 25 -35 59 -48c16 -6 31 -12 47 -17c66 -23 135 -58 135 -150c0 -114 -116 -149 -189 -149c-60 0 -120 13 -175 38v125c65 -36 111 -57 168 -57c13 0 63 3 63 36c0 22 -6 25 -94 62
c-72 30 -145 61 -145 159c0 75 60 144 185 144c81 0 138 -23 166 -34zM458 738l-208 -189h-101l117 189h192z" />
    <glyph glyph-name="scedilla.sc" unicode="&#xf699;" horiz-adv-x="446" 
d="M270 -2l-11 -23c60 -19 82 -49 82 -81c0 -41 -33 -93 -144 -93c-24 0 -78 3 -101 11v56c59 0 102 0 102 34c0 24 -26 28 -54 32l43 61c-75 8 -117 27 -140 37v125c65 -36 111 -57 168 -57c13 0 63 3 63 36c0 22 -6 25 -94 62c-72 30 -145 61 -145 159
c0 75 60 144 185 144c81 0 138 -23 166 -34v-118c-43 19 -102 46 -159 46c-31 0 -61 -11 -61 -37c0 -22 25 -35 59 -48c16 -6 31 -12 47 -17c66 -23 135 -58 135 -150c0 -116 -115 -139 -141 -145z" />
    <glyph glyph-name="scircumflex.sc" unicode="&#xf69a;" horiz-adv-x="446" 
d="M390 467v-118c-43 19 -102 46 -159 46c-31 0 -61 -11 -61 -37c0 -22 25 -35 59 -48c16 -6 31 -12 47 -17c66 -23 135 -58 135 -150c0 -114 -116 -149 -189 -149c-60 0 -120 13 -175 38v125c65 -36 111 -57 168 -57c13 0 63 3 63 36c0 22 -6 25 -94 62
c-72 30 -145 61 -145 159c0 75 60 144 185 144c81 0 138 -23 166 -34zM313 719l117 -170h-93l-116 103l-114 -103h-91l115 170h182z" />
    <glyph glyph-name="scommaaccent.sc" unicode="&#xf69b;" horiz-adv-x="446" 
d="M390 467v-118c-43 19 -102 46 -159 46c-31 0 -61 -11 -61 -37c0 -22 25 -35 59 -48c16 -6 31 -12 47 -17c66 -23 135 -58 135 -150c0 -114 -116 -149 -189 -149c-60 0 -120 13 -175 38v125c65 -36 111 -57 168 -57c13 0 63 3 63 36c0 22 -6 25 -94 62
c-72 30 -145 61 -145 159c0 75 60 144 185 144c81 0 138 -23 166 -34zM134 -229v56h29c61 0 75 10 75 36c0 34 -64 29 -84 29l5 51c82 0 220 9 220 -91c0 -51 -52 -92 -145 -92c-49 0 -83 6 -100 11z" />
    <glyph glyph-name="tbar.sc" unicode="&#xf69c;" horiz-adv-x="524" 
d="M328 169v-169h-132v169h-151v95h151v121h-170v110h472v-110h-170v-121h151v-95h-151z" />
    <glyph glyph-name="tcaron.sc" unicode="&#xf69d;" horiz-adv-x="524" 
d="M498 495v-110h-170v-385h-132v385h-170v110h472zM173 549l-117 170h93l116 -104l114 104h91l-115 -170h-182z" />
    <glyph glyph-name="tcommaaccent.sc" unicode="&#xf69e;" horiz-adv-x="524" 
d="M498 495v-110h-170v-385h-132v385h-170v110h472zM173 -229v56h29c61 0 75 10 75 36c0 34 -64 29 -84 29l5 51c82 0 220 9 220 -91c0 -51 -52 -92 -145 -92c-49 0 -83 6 -100 11z" />
    <glyph glyph-name="ubreve.sc" unicode="&#xf69f;" horiz-adv-x="595" 
d="M539 495v-268c0 -38 0 -101 -42 -153c-37 -46 -102 -80 -202 -80c-30 0 -112 0 -180 62c-59 55 -59 138 -59 167v272h132v-245c0 -59 15 -91 36 -110c20 -19 47 -30 76 -30c38 0 74 19 88 44c10 18 19 40 19 96v245h132zM85 733h111c17 -57 68 -74 105 -74
c41 0 76 16 98 74h110c-8 -43 -49 -184 -208 -184c-147 0 -210 126 -216 184z" />
    <glyph glyph-name="uhungarumlaut.sc" unicode="&#xf6a0;" horiz-adv-x="595" 
d="M539 495v-268c0 -38 0 -101 -42 -153c-37 -46 -102 -80 -202 -80c-30 0 -112 0 -180 62c-59 55 -59 138 -59 167v272h132v-245c0 -59 15 -91 36 -110c20 -19 47 -30 76 -30c38 0 74 19 88 44c10 18 19 40 19 96v245h132zM350 738l-148 -189h-89l76 189h161zM555 738
l-147 -189h-90l77 189h160z" />
    <glyph glyph-name="umacron.sc" unicode="&#xf6a1;" horiz-adv-x="595" 
d="M539 495v-268c0 -38 0 -101 -42 -153c-37 -46 -102 -80 -202 -80c-30 0 -112 0 -180 62c-59 55 -59 138 -59 167v272h132v-245c0 -59 15 -91 36 -110c20 -19 47 -30 76 -30c38 0 74 19 88 44c10 18 19 40 19 96v245h132zM517 692v-117h-440v117h440z" />
    <glyph glyph-name="uogonek.sc" unicode="&#xf6a2;" horiz-adv-x="595" 
d="M481 -101v-89c-13 -5 -42 -17 -84 -17c-73 0 -119 49 -119 123c0 36 11 58 21 78c-34 0 -116 0 -184 62c-59 55 -59 138 -59 167v272h132v-245c0 -18 2 -62 21 -93c18 -27 52 -47 91 -47c38 0 74 19 88 44c10 18 19 40 19 96v245h132v-268c0 -65 -3 -169 -141 -219
c-20 -26 -20 -60 -20 -64c0 -37 36 -50 62 -50c16 0 29 2 41 5z" />
    <glyph glyph-name="uring.sc" unicode="&#xf6a3;" horiz-adv-x="595" 
d="M539 495v-268c0 -38 0 -101 -42 -153c-37 -46 -102 -80 -202 -80c-30 0 -112 0 -180 62c-59 55 -59 138 -59 167v272h132v-245c0 -59 15 -91 36 -110c20 -19 47 -30 76 -30c38 0 74 19 88 44c10 18 19 40 19 96v245h132zM298 777c61 0 114 -50 114 -114
s-51 -114 -114 -114s-114 50 -114 114s52 114 114 114zM298 724c-34 0 -61 -27 -61 -61c0 -35 27 -62 61 -62s61 28 61 62c0 33 -27 61 -61 61z" />
    <glyph glyph-name="utilde.sc" unicode="&#xf6a4;" horiz-adv-x="595" 
d="M539 495v-268c0 -38 0 -101 -42 -153c-37 -46 -102 -80 -202 -80c-30 0 -112 0 -180 62c-59 55 -59 138 -59 167v272h132v-245c0 -59 15 -91 36 -110c20 -19 47 -30 76 -30c38 0 74 19 88 44c10 18 19 40 19 96v245h132zM151 554h-74c0 27 4 67 23 100
c19 34 52 61 108 61c51 0 96 -23 118 -35c27 -15 47 -24 72 -24c39 0 45 43 47 58h75c0 -83 -42 -160 -128 -160c-55 0 -96 21 -137 42c-27 14 -44 18 -59 18c-31 0 -43 -27 -45 -60z" />
    <glyph glyph-name="wacute.sc" unicode="&#xf6a5;" horiz-adv-x="850" 
d="M380 495h91l115 -255l115 255h143l-227 -501h-62l-130 286l-130 -286h-62l-227 501h143l115 -255zM645 738l-208 -189h-101l117 189h192z" />
    <glyph glyph-name="wcircumflex.sc" unicode="&#xf6a6;" horiz-adv-x="850" 
d="M380 495h91l115 -255l115 255h143l-227 -501h-62l-130 286l-130 -286h-62l-227 501h143l115 -255zM515 719l117 -170h-93l-116 103l-114 -103h-91l115 170h182z" />
    <glyph glyph-name="wdieresis.sc" unicode="&#xf6a7;" horiz-adv-x="850" 
d="M380 495h91l115 -255l115 255h143l-227 -501h-62l-130 286l-130 -286h-62l-227 501h143l115 -255zM567 714c44 0 80 -36 80 -80s-36 -80 -80 -80s-80 36 -80 80s36 80 80 80zM283 714c44 0 80 -36 80 -80s-36 -80 -80 -80s-80 36 -80 80s36 80 80 80z" />
    <glyph glyph-name="wgrave.sc" unicode="&#xf6a8;" horiz-adv-x="850" 
d="M380 495h91l115 -255l115 255h143l-227 -501h-62l-130 286l-130 -286h-62l-227 501h143l115 -255zM209 738h192l117 -189h-101z" />
    <glyph glyph-name="ycircumflex.sc" unicode="&#xf6a9;" horiz-adv-x="517" 
d="M517 495l-191 -289v-206h-135v206l-191 289h144l114 -171l115 171h144zM353 719l117 -170h-93l-116 103l-114 -103h-91l115 170h182z" />
    <glyph glyph-name="ygrave.sc" unicode="&#xf6aa;" horiz-adv-x="517" 
d="M517 495l-191 -289v-206h-135v206l-191 289h144l114 -171l115 171h144zM42 738h192l117 -189h-101z" />
    <glyph glyph-name="zacute.sc" unicode="&#xf6ab;" horiz-adv-x="514" 
d="M489 495l-262 -388h264v-107h-485l267 388h-242v107h458zM487 738l-208 -189h-101l117 189h192z" />
    <glyph glyph-name="zdotaccent.sc" unicode="&#xf6ac;" horiz-adv-x="514" 
d="M489 495l-262 -388h264v-107h-485l267 388h-242v107h458zM258 715c44 0 80 -35 80 -80s-36 -81 -80 -81c-45 0 -80 37 -80 81c0 45 36 80 80 80z" />
    <glyph glyph-name="idotaccent.sc" unicode="&#xf6ad;" horiz-adv-x="262" 
d="M197 495v-495h-132v495h132zM132 715c44 0 80 -35 80 -80s-36 -81 -80 -81c-45 0 -80 37 -80 81c0 45 36 80 80 80z" />
    <glyph glyph-name="one.alt" unicode="&#xe000;" horiz-adv-x="552" 
d="M378 0h-167v456c-51 -33 -65 -40 -106 -53v127c35 15 90 39 157 161h116v-691z" />
    <glyph glyph-name="uni2215" unicode="&#x2215;" horiz-adv-x="219" 
d="M395 691l-478 -718h-94l479 718h93z" />
    <glyph glyph-name="uni021A" unicode="&#x21a;" horiz-adv-x="719" 
d="M692 682v-128h-246v-554h-173v554h-247v128h666zM270 -229v56h29c61 0 75 10 75 36c0 34 -64 29 -84 29l5 51c82 0 220 9 220 -91c0 -51 -52 -92 -145 -92c-49 0 -83 6 -100 11z" />
    <glyph glyph-name="uni021B" unicode="&#x21b;" horiz-adv-x="406" 
d="M391 461v-100h-166v-101c0 -72 0 -88 4 -112c8 -46 50 -50 65 -50c39 0 66 12 97 27v-105c-26 -10 -70 -29 -135 -29c-58 0 -116 22 -150 69c-22 31 -28 65 -28 134v167h-66v27l193 218h20v-145h166zM141 -169v50c79 -3 77 7 77 20c0 9 -11 22 -41 22v47
c120 0 148 -31 148 -72s-36 -77 -106 -77c-31 0 -58 5 -78 10z" />
    <glyph glyph-name="uni03A9" unicode="&#x3a9;" horiz-adv-x="710" 
d="M652 0h-264v128c45 49 93 122 93 242c0 121 -48 202 -133 202c-87 0 -140 -81 -140 -207c0 -119 50 -192 94 -237v-128h-263v128h139c-61 49 -142 125 -142 276c0 178 128 308 315 308c199 0 303 -133 303 -304c0 -138 -65 -220 -143 -280h141v-128z" />
    </font>
</defs>
</svg>
